<svg width="24px" height="20px" viewBox="0 0 24 20">
  <title>ask-friend</title>
  <g id="UI" stroke="none" stroke-width="1" fill="none" fill-rule="evenodd">
    <g id="ask-friend" transform="translate(-1009.000000, -640.000000)" fill="#feefcf">
      <g id="icon-ask-friend" transform="translate(1009.000000, 638.000000)">
        <path d="M23.2311963,9.3520338 C23.2724624,9.4263128 23.2941176,9.50988314 23.2941176,9.59485527 L23.2941176,19.2941176 C23.2941176,20.3986871 22.3986871,21.2941176 21.2941176,21.2941176 L2.70588235,21.2941176 C1.60131285,21.2941176 0.705882353,20.3986871 0.705882353,19.2941176 L0.705882353,9.59485527 C0.705882353,9.31871289 0.929739978,9.09485527 1.20588235,9.09485527 C1.29085448,9.09485527 1.37442482,9.11651052 1.44870382,9.15777663 L11.5143571,14.7498062 C11.8163796,14.9175965 12.1836204,14.9175965 12.4856429,14.7498062 L22.5512962,9.15777663 C22.792688,9.02367004 23.0970897,9.11064194 23.2311963,9.3520338 Z M21.4117647,2.82352941 C22.4513595,2.82352941 23.2941176,3.66628753 23.2941176,4.70588235 L23.2941176,6.2908264 C23.2941176,6.47411238 23.1938341,6.64270778 23.0327747,6.73019277 L12.4773141,12.4637571 C12.1796443,12.6254468 11.8203557,12.6254468 11.5226859,12.4637571 L0.967225281,6.73019277 C0.806165895,6.64270778 0.705882353,6.47411238 0.705882353,6.2908264 L0.705882353,4.70588235 C0.705882353,3.66628753 1.54864047,2.82352941 2.58823529,2.82352941 L21.4117647,2.82352941 Z" id="Combined-Shape"></path>
      </g>
    </g>
  </g>
</svg>