<?xml version="1.0" encoding="UTF-8"?>
<svg width="228px" height="406px" viewBox="0 0 228 406" version="1.1" xmlns="http://www.w3.org/2000/svg" xmlns:xlink="http://www.w3.org/1999/xlink">
    <title>illu-aucun-ami</title>
    <defs>
        <text id="text-1" font-family="TitanOne, Titan One" font-size="30" font-weight="normal" fill="#feefcf">
            <tspan x="3.34" y="135.782872">Tu n’as aucun </tspan>
            <tspan x="63.445" y="169.782872">ami :’(</tspan>
        </text>
        <filter x="-2.7%" y="-2.7%" width="103.6%" height="111.0%" filterUnits="objectBoundingBox" id="filter-2">
            <feOffset dx="-4" dy="4" in="SourceAlpha" result="shadowOffsetOuter1"></feOffset>
            <feColorMatrix values="0 0 0 0 0.203921569   0 0 0 0 0.2   0 0 0 0 0.188235294  0 0 0 1 0" type="matrix" in="shadowOffsetOuter1"></feColorMatrix>
        </filter>
        <path d="M38.6897908,232.293129 C50.1961625,229.810246 57,210.894252 57,197.549835 C57,178.153833 50.1961625,167.351135 38.6897908,162.80654 C26.755069,158.092762 23.6282575,170.842009 30.8420911,176.992902 C39.0281962,183.972804 41.9858384,192.237144 42.0363413,197.038001 C42.0868443,201.838858 42.0363413,207.993055 36.035449,216.947106 C30.0345566,225.901157 26.072064,235.015824 38.6897908,232.293129 Z" id="path-3"></path>
        <filter x="-25.0%" y="-3.5%" width="133.3%" height="112.7%" filterUnits="objectBoundingBox" id="filter-4">
            <feOffset dx="-5" dy="4" in="SourceAlpha" result="shadowOffsetOuter1"></feOffset>
            <feColorMatrix values="0 0 0 0 0.596078431   0 0 0 0 0.352941176   0 0 0 0 0.0823529412  0 0 0 1 0" type="matrix" in="shadowOffsetOuter1"></feColorMatrix>
        </filter>
        <path d="M186.496696,239.782872 C195.289652,239.782872 199,225.784573 199,208.786028 C199,191.787482 195.289652,177.782872 186.496696,177.782872 C182.024559,177.782872 173.668752,185.213278 174.010148,192.367323 C174.055684,193.321539 174.200452,194.272042 174.416187,195.223647 C175.763153,201.165119 179.876586,207.1496 179.876586,214.349457 C179.876586,223.118832 180.109922,227.262682 179.876586,231.43519 C179.657623,235.350666 182.239935,239.782872 186.496696,239.782872 Z" id="path-5"></path>
        <filter x="-30.0%" y="-4.0%" width="140.0%" height="114.5%" filterUnits="objectBoundingBox" id="filter-6">
            <feOffset dx="-5" dy="4" in="SourceAlpha" result="shadowOffsetOuter1"></feOffset>
            <feColorMatrix values="0 0 0 0 0.596078431   0 0 0 0 0.352941176   0 0 0 0 0.0823529412  0 0 0 1 0" type="matrix" in="shadowOffsetOuter1"></feColorMatrix>
        </filter>
        <path d="M183.684375,102.964719 C193.374075,102.964719 201.229129,87.8830149 201.229129,69.2787903 C201.229129,50.6745658 188.812439,43.9997746 179.122738,43.9997746 C174.415562,43.9997746 171.587742,48.3133671 171.587742,56.6492442 C171.587742,65.4727292 182.543113,62.149169 182.543113,77.2323663 C182.543113,84.84593 178.094406,89.7030596 177.066977,93.7706791 C175.583818,99.6425453 177.960072,102.964719 183.684375,102.964719 Z" id="path-7"></path>
        <filter x="-25.3%" y="-4.2%" width="133.7%" height="115.3%" filterUnits="objectBoundingBox" id="filter-8">
            <feOffset dx="-5" dy="4" in="SourceAlpha" result="shadowOffsetOuter1"></feOffset>
            <feColorMatrix values="0 0 0 0 0.596078431   0 0 0 0 0.352941176   0 0 0 0 0.0823529412  0 0 0 1 0" type="matrix" in="shadowOffsetOuter1"></feColorMatrix>
        </filter>
        <path d="M98.0026064,225.465553 C112.288626,225.465553 122,230.749959 122,217.227186 C122,203.704413 98.0026064,208.482491 83.8674086,217.227186 C69.7322108,225.971881 60.7196064,245.020194 72.2935075,251.856179 C83.8674086,258.692164 83.7165863,225.465553 98.0026064,225.465553 Z" id="path-9"></path>
        <filter x="-13.6%" y="-5.7%" width="118.2%" height="120.5%" filterUnits="objectBoundingBox" id="filter-10">
            <feOffset dx="-5" dy="4" in="SourceAlpha" result="shadowOffsetOuter1"></feOffset>
            <feColorMatrix values="0 0 0 0 0.596078431   0 0 0 0 0.352941176   0 0 0 0 0.0823529412  0 0 0 1 0" type="matrix" in="shadowOffsetOuter1"></feColorMatrix>
        </filter>
        <path d="M86.6033241,87.2709072 C104.041277,80.1668893 114.00631,60.988856 104.041277,54.0323615 C94.0762445,47.0758669 92.1859966,71.4353818 75.1624874,71.4353818 C58.1389782,71.4353818 58.1389782,64.6368664 50.2473458,78.5515103 C49.8904331,79.1808241 49.9458308,86.5094127 50.2473458,87.2709072 C53.4762143,95.4256119 70.654672,93.7682013 86.6033241,87.2709072 Z" id="path-11"></path>
        <filter x="-12.9%" y="-6.2%" width="117.2%" height="122.5%" filterUnits="objectBoundingBox" id="filter-12">
            <feOffset dx="-5" dy="4" in="SourceAlpha" result="shadowOffsetOuter1"></feOffset>
            <feColorMatrix values="0 0 0 0 0.596078431   0 0 0 0 0.352941176   0 0 0 0 0.0823529412  0 0 0 1 0" type="matrix" in="shadowOffsetOuter1"></feColorMatrix>
        </filter>
        <path d="M156.04846,20.9588754 C165.4716,25.3729036 178,25.3729036 178,15.1770914 C178,4.9812792 160.208555,-2.00782512 142.366423,4.01416873 C124.524291,10.0361626 114.358184,24.3419604 117.597626,33.3111145 C119.21897,37.8001874 127.878466,38.0779796 135.917948,33.3111145 C139.483758,31.196832 139.228492,23.5686634 142.366423,20.9588754 C146.289106,17.6964164 153.433465,19.7339483 156.04846,20.9588754 Z" id="path-13"></path>
        <filter x="-12.3%" y="-7.1%" width="116.4%" height="125.7%" filterUnits="objectBoundingBox" id="filter-14">
            <feOffset dx="-5" dy="4" in="SourceAlpha" result="shadowOffsetOuter1"></feOffset>
            <feColorMatrix values="0 0 0 0 0.596078431   0 0 0 0 0.352941176   0 0 0 0 0.0823529412  0 0 0 1 0" type="matrix" in="shadowOffsetOuter1"></feColorMatrix>
        </filter>
        <path d="M103.997885,329.782872 C109.625377,329.782872 112,320.300154 112,308.78501 C112,297.269866 109.625377,287.782872 103.997885,287.782872 C101.135718,287.782872 95.7880015,292.816373 96.0064947,297.662662 C96.0356376,298.309066 96.1282893,298.952955 96.2663595,299.597591 C97.1284179,303.622459 99.7610149,307.676462 99.7610149,312.553785 C99.7610149,318.494329 99.9103503,321.301453 99.7610149,324.127991 C99.6208787,326.78041 101.273558,329.782872 103.997885,329.782872 Z" id="path-15"></path>
        <filter x="-46.9%" y="-6.0%" width="162.5%" height="121.4%" filterUnits="objectBoundingBox" id="filter-16">
            <feOffset dx="-5" dy="4" in="SourceAlpha" result="shadowOffsetOuter1"></feOffset>
            <feColorMatrix values="0 0 0 0 0.596078431   0 0 0 0 0.352941176   0 0 0 0 0.0823529412  0 0 0 1 0" type="matrix" in="shadowOffsetOuter1"></feColorMatrix>
        </filter>
        <path d="M130.306469,292.485574 C140.462964,292.485574 133.198361,275.928674 133.198361,265.076209 C133.198361,254.223745 141.10438,245.725725 133.198361,242.374694 C125.292342,239.023663 119.821469,254.223745 119.821469,265.076209 C119.821469,275.928674 120.149974,292.485574 130.306469,292.485574 Z" id="path-17"></path>
        <filter x="-44.4%" y="-4.9%" width="159.2%" height="117.8%" filterUnits="objectBoundingBox" id="filter-18">
            <feOffset dx="-5" dy="4" in="SourceAlpha" result="shadowOffsetOuter1"></feOffset>
            <feColorMatrix values="0 0 0 0 0.596078431   0 0 0 0 0.352941176   0 0 0 0 0.0823529412  0 0 0 1 0" type="matrix" in="shadowOffsetOuter1"></feColorMatrix>
        </filter>
    </defs>
    <g id="sketch" stroke="none" stroke-width="1" fill="none" fill-rule="evenodd">
        <g id="illu-aucun-ami" transform="translate(-34.000000, -158.000000)">
            <g transform="translate(38.000000, 158.217128)">
                <ellipse id="Oval" stroke="#EE481E" stroke-width="2" transform="translate(109.681273, 142.170810) rotate(-15.000000) translate(-109.681273, -142.170810) " cx="109.681273" cy="142.17081" rx="91.6363032" ry="48.8271025"></ellipse>
                <g id="Tu-n’as-aucun-ami-:’" fill="#feefcf" fill-opacity="1">
                    <use filter="url(#filter-2)" xlink:href="#text-1"></use>
                    <use xlink:href="#text-1"></use>
                </g>
                <g id="Oval-Copy">
                    <use fill="black" fill-opacity="1" filter="url(#filter-4)" xlink:href="#path-3"></use>
                    <use fill="#FFD633" fill-rule="evenodd" xlink:href="#path-3"></use>
                </g>
                <path d="M47.5284459,187.615727 C48.7603272,195.730162 50.4002,181.519816 50.4002,177.958485 C50.4002,172.78212 49.9568436,169.136834 47.2651574,167.923982 C44.4732672,166.665979 43.2580795,169.160018 44.945612,170.801556 C46.8605881,172.664338 48.2580189,176.98912 48.269833,178.270362 C48.2816472,179.551605 47.2278115,185.635439 47.5284459,187.615727 Z" id="Oval-Copy" fill="#feefcf" transform="translate(47.286844, 178.831556) rotate(-25.000000) translate(-47.286844, -178.831556) "></path>
                <g id="Oval">
                    <use fill="black" fill-opacity="1" filter="url(#filter-6)" xlink:href="#path-5"></use>
                    <use fill="#FFD633" fill-rule="evenodd" xlink:href="#path-5"></use>
                </g>
                <g id="Oval" transform="translate(186.408436, 73.482247) rotate(-28.000000) translate(-186.408436, -73.482247) ">
                    <use fill="black" fill-opacity="1" filter="url(#filter-8)" xlink:href="#path-7"></use>
                    <use fill="#FFD633" fill-rule="evenodd" xlink:href="#path-7"></use>
                </g>
                <g id="Oval">
                    <use fill="black" fill-opacity="1" filter="url(#filter-10)" xlink:href="#path-9"></use>
                    <use fill="#FFD633" fill-rule="evenodd" xlink:href="#path-9"></use>
                </g>
                <path d="M118.779296,211.851042 C118.779296,207.105968 110.467006,208.782572 105.570813,211.851042 C100.674621,214.919513 95.9809004,217.460455 99.9899033,219.859169 C101.433887,220.72315 103.043067,217.67126 106.087884,216.8633 C111.49654,215.428081 118.779296,214.887011 118.779296,211.851042 Z" id="Oval" fill="#feefcf" transform="translate(108.628648, 214.449847) rotate(17.000000) translate(-108.628648, -214.449847) "></path>
                <g id="Oval">
                    <use fill="black" fill-opacity="1" filter="url(#filter-12)" xlink:href="#path-11"></use>
                    <use fill="#FFD633" fill-rule="evenodd" xlink:href="#path-11"></use>
                </g>
                <g id="Oval">
                    <use fill="black" fill-opacity="1" filter="url(#filter-14)" xlink:href="#path-13"></use>
                    <use fill="#FFD633" fill-rule="evenodd" xlink:href="#path-13"></use>
                </g>
                <path d="M190.632039,191.842361 C192.606698,191.842361 193.439941,188.99027 193.439941,185.526892 C193.439941,182.063515 192.606698,179.210138 190.632039,179.210138 C189.627718,179.210138 187.751231,180.72405 187.827899,182.181655 C187.838125,182.376072 187.870636,182.569732 187.919084,182.763618 C188.221576,183.974166 189.145342,185.193477 189.145342,186.660416 C189.145342,188.447137 189.197743,189.291428 189.145342,190.141558 C189.096169,190.939319 189.676086,191.842361 190.632039,191.842361 Z" id="Oval" fill="#feefcf" transform="translate(190.632781, 185.526249) rotate(-26.000000) translate(-190.632781, -185.526249) "></path>
                <path d="M179.62056,65.3863251 C182.602936,65.3863251 185.02063,60.5398323 185.02063,54.5613806 C185.02063,48.5829288 181.198918,46.4379903 178.216542,46.4379903 C176.767728,46.4379903 175.897358,47.8241597 175.897358,50.5028867 C175.897358,53.3383061 179.448834,56.1453715 178.834012,58.7199857 C178.382242,60.6118081 177.858687,65.3863251 179.62056,65.3863251 Z" id="Oval" fill="#feefcf" transform="translate(180.458994, 55.912158) rotate(-77.000000) translate(-180.458994, -55.912158) "></path>
                <path d="M102.81598,65.6326267 C107.457898,64.1369677 105.975016,57.7889053 103.322361,56.3243054 C100.669707,54.8597056 98.9645843,58.4256761 96.5121288,58.6066736 C94.0596733,58.7876711 89.9807411,60.7488464 90.8402539,62.4657139 C91.6997667,64.1825813 98.5705084,67.0005478 102.81598,65.6326267 Z" id="Oval" fill="#feefcf" transform="translate(98.270009, 60.983838) rotate(-34.000000) translate(-98.270009, -60.983838) "></path>
                <path d="M166.143391,9.48599064 C169.070487,10.636573 172.282287,10.5731688 172.282287,7.91547824 C172.282287,5.25778764 166.755758,3.43597331 161.213484,5.00569587 C155.671211,6.57541843 152.513329,10.3044381 153.519591,12.642382 C154.023227,13.8125258 156.713113,13.8849365 159.210404,12.642382 C160.318046,12.0912627 165.3311,9.16669511 166.143391,9.48599064 Z" id="Oval" fill="#feefcf" transform="translate(162.808119, 8.985711) rotate(33.000000) translate(-162.808119, -8.985711) "></path>
                <circle id="Oval" stroke="#EF7E00" stroke-width="2" cx="18" cy="190.782872" r="3"></circle>
                <circle id="Oval-Copy-2" stroke="#EF7E00" stroke-width="2" cx="138" cy="72.7828725" r="3"></circle>
                <circle id="Oval-Copy-8" stroke="#EF7E00" stroke-width="2" cx="152" cy="220.782872" r="3"></circle>
                <circle id="Oval-Copy-12" stroke="#EF7E00" stroke-width="2" cx="116" cy="90.7828725" r="3"></circle>
                <circle id="Oval-Copy-11" stroke="#EF7E00" stroke-width="2" cx="45" cy="144.782872" r="3"></circle>
                <circle id="Oval-Copy-7" stroke="#EF7E00" stroke-width="2" cx="101" cy="245.782872" r="3"></circle>
                <circle id="Oval-Copy-3" stroke="#EF7E00" stroke-width="2" cx="18" cy="89.7828725" r="3"></circle>
                <circle id="Oval-Copy-3" stroke="#EF7E00" stroke-width="2" cx="175" cy="165.782872" r="3"></circle>
                <circle id="Oval-Copy-5" stroke="#EF7E00" stroke-width="2" cx="208" cy="45.7828725" r="3"></circle>
                <circle id="Oval-Copy-6" stroke="#EF7E00" stroke-width="2" cx="104" cy="26.7828725" r="3"></circle>
                <path d="M165.977578,287.282843 L166.283306,287.285056 C167.427936,287.301538 168.313539,287.405129 168.90129,287.650067 C169.110148,287.737106 169.275976,287.838556 169.382823,287.973234 C169.5,289.656364 167.258335,291.639954 163.678452,293.810522 C160.222616,295.905878 155.428665,298.137607 149.696395,300.070892 C140.933283,303.026368 129.980169,305.282872 118.254454,305.282872 C105.44847,305.282872 93.4559888,303.714063 84.2144056,301.573999 C78.7917537,300.318282 74.3193596,298.86734 71.193454,297.420443 C69.636009,296.699544 68.4182457,295.9836 67.5961055,295.292054 C66.9232293,294.726062 66.5,294.196525 66.5,293.682366 C66.5,293.444788 66.6113533,293.239853 66.800948,293.054568 C67.0672445,292.794326 67.4703429,292.57548 67.9897529,292.378586 C69.2225889,291.91125 71.068872,291.597099 73.4237027,291.383325 C76.571595,291.097556 80.6112551,290.997775 85.3104054,290.989886 L86.551078,290.989851 C90.526281,290.995948 94.9377494,291.059171 99.6545397,291.126473 C105.396624,291.208406 111.590141,291.296765 118,291.296765 C131.160288,291.296765 143.409996,289.752078 152.720077,288.577335 C158.589393,287.836747 163.28223,287.241841 166.283306,287.285056 Z" id="Oval" stroke="#CD330C" fill="#CD330C"></path>
                <g id="Oval">
                    <use fill="black" fill-opacity="1" filter="url(#filter-16)" xlink:href="#path-15"></use>
                    <use fill="#FFD633" fill-rule="evenodd" xlink:href="#path-15"></use>
                </g>
                <path d="M169.648037,288.782872 C160.130791,310.762399 155.372168,330.932167 155.372168,349.292174 C155.372168,367.652181 160.248112,385.815748 170,403.782872 C109.090381,397.595232 75.3648751,396.532811 68.8234834,400.595609 C59.0113958,406.689806 81.6072948,371.279625 80.1871017,346.282872 C79.2403064,329.618371 74.5112725,312.178916 66,293.96451 C84.651996,301.175457 102.974111,303.822282 120.966344,301.904983 C147.954695,299.029036 148.157534,293.947552 155.372168,293.947552 C160.181924,293.947552 164.940547,292.225992 169.648037,288.782872 Z" id="Path-3" stroke="#EE481E" fill="#EE481E" stroke-linejoin="round"></path>
                <path d="M169.056739,288.28414 L169.192254,288.300113 C169.435937,288.345047 169.684427,288.477205 169.918121,288.760339 C170.461651,289.418857 170.58781,290.186803 170.447684,291.018506 C170.281685,292.003775 169.718432,293.085544 169.163237,294.129225 C168.690275,295.027362 168.463704,295.478861 168.30174,295.906215 C165.880753,302.294185 163.962731,306.508075 162.438062,309.85757 C159.001496,317.407254 157.586184,320.524353 156.908593,334.494068 C155.611872,361.228233 158.665871,371.322162 164.934171,392.059321 C165.623963,394.341332 166.352587,396.751812 167.118547,399.326884 C167.283682,399.882049 167.938554,400.527989 168.512202,401.129744 C169.068139,401.712919 169.564432,402.262602 169.725816,402.660413 C169.778475,402.790216 169.816821,402.956461 169.844752,403.149794 C165.70529,404.711811 156.859897,404.084048 148.222784,403.159288 L148.222784,403.159288 L147.156309,403.043661 C142.601308,402.54382 138.174814,401.983448 134.734874,401.547955 C131.757777,401.171057 129.523345,400.887676 128.593272,400.820224 C108.736512,399.380146 102.749398,398.385445 83.8306585,394.465514 C82.6237293,394.21544 81.3635516,394.203781 80.101765,394.220455 L80.101765,394.220455 L79.2352201,394.234414 C77.1364467,394.268742 75.0619141,394.251346 73.2037798,393.396226 C72.8450187,393.231123 72.6405458,392.9628 72.5498636,392.630624 C72.4699929,392.338052 72.4892285,391.978579 72.6013757,391.590445 C72.8406475,390.762342 73.5074634,389.779152 74.0209157,389.23768 C74.8512045,388.36208 75.9322907,387.732864 77.0442498,387.141631 L77.0442498,387.141631 L77.6822296,386.805068 L77.6822296,386.805068 L78.2042222,386.527505 C79.4148573,385.874436 80.5546125,385.1648 81.2151274,384.00808 C83.1714427,380.582103 83.6821781,376.504907 84.1894149,372.559373 C84.2498845,372.089012 84.3101296,371.620414 84.3724576,371.154844 C84.6223848,369.287966 84.3461777,367.290258 84.078527,365.307404 C83.6286715,361.974709 83.2346022,358.699405 84.9691758,356.062804 C85.4105025,355.391975 86.1279846,355.054907 87.0307247,354.962988 C88.0484758,354.859357 89.3113063,355.075726 90.5593364,355.33191 C92.0864803,355.650935 93.3834182,355.938111 94.2403256,355.820068 C94.4665478,355.788905 94.6582902,355.73395 94.7847323,355.603611 C94.8926521,355.492365 94.936705,355.329751 94.9454099,355.122929 C94.9552767,354.8885 94.8458133,354.708064 94.6684214,354.562274 C94.3743016,354.320552 93.9276095,354.161466 93.4001007,354.041866 C91.6816609,353.65225 89.1477091,353.742087 87.3355704,353.801364 C86.7528756,353.820425 86.2424714,353.83703 85.852408,353.835874 L85.852408,353.835874 L82.5118415,351.449426 C83.3380711,350.427172 85.3852466,350.736416 87.2481852,351.0774 C88.2074954,351.252987 89.1069513,351.438644 89.6755003,351.315664 C89.884196,350.413093 89.6015231,350.069589 89.2052946,349.804505 C88.5324987,349.354394 87.5626126,349.109677 86.5805646,348.849581 C84.76028,348.367476 82.9698621,347.805375 82.32522,346.398594 C83.1322493,345.200025 83.8995319,345.341196 84.8146546,345.619825 C85.6117441,345.862517 86.5162076,346.146304 87.2108595,346.163952 C88.2409241,345.029863 87.7424354,344.028092 87.1433019,343.033178 L86.9068902,342.643936 C86.2678391,341.585831 85.6399339,340.499786 85.585036,339.401984 C85.2984302,333.670687 84.6683813,330.358181 84.0155164,327.225239 L84.0155164,327.225239 L83.7785078,326.093897 C83.0899293,322.805394 82.4184666,319.418611 82.1288112,313.382509 C82.0771936,312.306854 81.0813796,309.298318 80.4686285,308.389969 L80.4686285,308.389969 L75.0563008,301.446928 C86.12642,301.543995 94.4392128,301.939302 102.373364,302.316672 C104.226416,302.404808 106.058779,302.491966 107.90086,302.574101 L109.284717,302.634697 C117.142284,302.972019 125.31266,303.200336 136.129922,303.009086 C137.703756,302.981261 143.854973,300.675786 150.10466,298.174679 L151.41265,297.649042 C155.912427,295.833546 160.300973,293.991868 162.900055,292.904134 C163.867614,292.499204 164.589284,292.197191 164.979946,292.037432 C165.636185,291.769068 166.230475,290.917865 166.801702,290.155782 C167.347259,289.427944 167.873578,288.759627 168.351491,288.477263 C168.641099,288.306155 168.923411,288.25054 169.192254,288.300113 Z" id="Path-9" stroke="#F66844" fill="#F66844" stroke-linejoin="round"></path>
                <circle id="Oval-Copy-9" stroke="#EF7E00" stroke-width="2" cx="152" cy="286.782872" r="3"></circle>
                <g id="Oval" transform="translate(128.266808, 267.193906) rotate(-17.000000) translate(-128.266808, -267.193906) ">
                    <use fill="black" fill-opacity="1" filter="url(#filter-18)" xlink:href="#path-17"></use>
                    <use fill="#FFD633" fill-rule="evenodd" xlink:href="#path-17"></use>
                </g>
                <path d="M126.342859,255.406492 C128.860644,255.406492 130.138962,248.658402 130.351289,247.167981 C130.563615,245.677561 130.030024,243.702309 128.07013,242.871592 C126.871977,242.363745 125.351095,243.92884 125.167025,245.582993 C125.05,246.634641 126.099643,247.527734 126.099643,248.573363 C126.099643,251.263678 123.825075,255.406492 126.342859,255.406492 Z" id="Oval" fill="#feefcf" transform="translate(127.775968, 249.090380) rotate(-17.000000) translate(-127.775968, -249.090380) "></path>
                <path d="M133,384.243821 C123.425919,384.756249 113.860777,385.41905 104.277758,385.781105 C101.843324,385.87308 103.397697,382.34716 104.741516,381.985458 C106.004143,381.645609 107.406964,381.789442 108.703941,382.008466 C116.523746,383.329016 124.305001,382.27904 131.836866,384.031132 L133,384.243821 Z" id="Path-10" stroke="#EE481E" fill="#EE481E" stroke-linejoin="round"></path>
                <path d="M147.855393,311.782872 C142.093336,312.744361 125.18658,312.56861 130.569223,314.667337 L122,314.758642 C127.355798,316.846902 144.550769,318.716208 148,312.814481" id="Path-11" stroke="#EE481E" fill="#EE481E" stroke-linejoin="round"></path>
                <path d="M121.997427,346.99139 C134.02702,346.746746 140.866425,342.888978 149.519749,334.155464 C151.276085,332.382853 157.193218,325.089525 155.785556,327.144611 C152.512569,331.92294 149.916556,337.183506 146.206303,341.637686 C144.661629,343.492076 139.174806,343.638116 140.252771,345.791808 C141.427496,348.138822 150.179079,343.871822 148.1878,345.596569 L151.343445,342.86301 C139.881097,352.791125 128.881114,357.562304 113.155733,353.106814 C112.015383,352.783717 110.207854,350.229399 111.380628,350.053656 C117.001096,349.211418 122.737894,350.564521 128.416526,350.819954" id="Path-4" stroke="#EE481E" fill="#EE481E" stroke-linejoin="round"></path>
                <path d="M135.372609,342.552526 C136.942522,342.266416 138.427844,339.935549 138.564569,337.684413 C138.67816,335.808289 138.778632,333.93146 138.910868,332.056748 C138.943322,331.59636 138.925714,330.977924 139.195365,330.720389 C139.801302,330.141465 140.572275,329.743168 141.276267,329.271491 C141.611517,329.948137 142.235408,330.627606 142.229539,331.301077 C142.209859,333.529282 141.954019,335.754313 141.810044,337.981813 C141.769993,338.597779 141.803829,339.218685 141.803829,340.268581 C144.153346,338.867662 144.802441,336.918864 145.162205,334.882575 C145.426332,333.388168 145.401818,331.840842 145.512647,330.317506 C145.55546,329.732937 145.587915,329.145193 145.674921,328.566622 C145.859292,327.342097 146.481456,326.292907 147.754097,326.436491 C149.102005,326.588543 149.04918,327.899148 148.961828,328.955394 C148.564775,333.746952 148.34139,338.568145 147.638088,343.314547 C147.055629,347.244952 145.441523,350.874429 142.411147,353.576075 C139.97635,355.746776 137.283642,356.909563 134.054739,355.15374 C133.59623,354.90432 132.824221,355.025326 132.275943,355.213361 C125.498769,357.538936 119.021284,360.524929 112.991261,364.480734 C112.280018,364.947472 111.531487,365.354941 110.811958,365.782872 C108.983099,363.080521 109.174375,361.822834 111.666485,360.334071 C117.644374,356.762804 123.896402,353.847721 130.687731,352.280287 C131.619942,352.065086 132.332221,351.839655 132.703033,350.715322 C132.904667,350.104647 133.795447,349.499263 134.478377,349.333453 C136.096281,348.940448 136.815119,349.90885 136.297915,351.546489 C136.162572,351.975478 136.056231,352.413993 135.936424,352.850038 C139.263727,353.754585 143.81119,348.029904 144.426794,342.219848 C142.73604,343.442962 141.192368,345.245 139.106287,343.44649 C138.038733,344.457931 137.092711,345.574503 135.941258,346.388031 C134.611649,347.327151 133.235429,347.289403 132.943337,346.395793 C131.595774,347.395592 130.294477,348.470183 128.8896,349.377199 C126.864976,350.683924 125.287813,350.053493 125.102062,347.624198 C124.902499,345.012513 125.20426,342.359904 125.300933,339.725994 C125.319923,339.202457 125.400714,338.68139 125.454575,338.141272 C123.389901,338.581904 123.304966,338.797457 123.365387,340.7773 C123.518339,345.791115 122.506717,350.385465 118.370463,353.65898 C116.223961,355.357651 115.295893,355.366471 113.502595,353.938035 C111.992068,355.944337 110.674889,358.323535 107.448058,357.620783 C107.055148,358.214171 106.647047,358.919393 106.155392,359.557233 C104.433564,361.79073 102.303289,363.392385 99.3858145,362.979976 C96.2926005,362.542873 94.1885659,360.607481 93.0333149,357.667703 C91.8418112,354.635848 91.8034869,351.475931 92.3017019,348.301197 C93.2421992,342.30487 95.6407434,337.066329 100.356004,333.208246 C103.122945,330.943703 106.218921,329.386147 109.920143,330.711217 C112.261719,331.549087 113.345501,334.217571 112.232372,336.258799 C111.554275,337.502022 110.501222,338.275332 109.094274,337.764848 C107.647275,337.239901 108.216614,335.964574 108.377507,334.89845 C108.410997,334.677253 108.464859,334.458877 108.564985,333.962858 C107.845456,334.004134 107.174955,333.859492 106.69711,334.105384 C105.328487,334.809195 103.787922,335.425515 102.759382,336.51457 C98.0858981,341.462766 96.2687773,347.440749 97.1788914,354.267185 C97.2175609,354.556118 97.264862,354.84999 97.3577378,355.123753 C97.9243149,356.789968 98.7049553,358.381745 100.577318,358.68232 C102.328494,358.963139 103.405715,357.649358 104.396621,356.399433 C106.398458,353.874533 106.718862,350.866668 106.791022,347.769194 C106.818298,346.607818 106.846264,345.372709 107.250913,344.322461 C107.495014,343.688502 108.463132,343.345592 109.105667,342.872152 C109.506863,343.552326 110.237095,344.228267 110.245381,344.913027 C110.267824,346.783153 109.958468,348.655043 109.834863,350.530108 C109.771335,351.493571 109.823815,352.464795 110.064118,353.513632 C112.083563,352.26935 113.013012,350.373118 113.282663,348.139621 C113.500524,346.335466 113.503286,344.505205 113.629998,342.68835 C113.662107,342.225845 113.651404,341.596472 113.924853,341.348816 C114.508002,340.821398 115.264129,340.494012 115.949477,340.084778 C116.287835,340.682753 116.915869,341.282492 116.913106,341.879055 C116.902749,344.163354 116.682125,346.446241 116.557485,348.73054 C116.523995,349.351446 116.552652,349.975526 116.552652,350.659934 C119.311996,349.792077 120.764173,345.632361 120.227979,340.655941 C117.951313,339.63321 117.288408,338.412566 118.07837,336.696961 C118.795137,335.140463 119.97352,335.010284 122.299559,336.22987 C123.260082,335.5945 124.158802,334.801787 125.201152,334.373503 C126.030129,334.03271 127.340058,333.727902 127.881777,334.149836 C128.522931,334.649383 128.835739,335.951521 128.819166,336.897344 C128.77739,339.296651 128.464926,341.690314 128.278484,344.087504 C128.238779,344.597635 128.272615,345.11341 128.272615,346.183767 C129.090198,345.42351 129.769676,345.082365 129.972001,344.55142 C130.710864,342.608972 131.64929,340.641477 131.855757,338.613655 C132.278014,334.472989 132.260406,330.286108 132.456515,326.119688 C132.500364,325.184449 132.457551,324.135612 132.861164,323.360538 C133.218857,322.674719 134.142436,322.296884 134.816045,321.782872 C135.196525,322.45458 135.91122,323.132284 135.900172,323.796936 C135.848727,326.846078 135.552492,329.889927 135.424054,332.939069 C135.300795,335.872144 135.271102,338.809452 135.215515,341.745349 C135.210336,342.014878 135.318058,342.286525 135.372609,342.552526" id="Fill-1" fill="#feefcf"></path>
                <path d="M121.997427,346.99139 C134.02702,346.746746 140.866425,342.888978 149.519749,334.155464 C151.276085,332.382853 157.193218,325.089525 155.785556,327.144611 C152.512569,331.92294 149.916556,337.183506 146.206303,341.637686 C144.661629,343.492076 139.174806,343.638116 140.252771,345.791808 C141.427496,348.138822 150.179079,343.871822 148.1878,345.596569 L151.343445,342.86301 C139.881097,352.791125 128.881114,357.562304 113.155733,353.106814 C112.015383,352.783717 110.207854,350.229399 111.380628,350.053656 C117.001096,349.211418 122.737894,350.564521 128.416526,350.819954" id="Path-4" stroke="#985A15" fill="#985A15" opacity="0.168847947" stroke-linejoin="round"></path>
            </g>
        </g>
    </g>
</svg>