<svg width="24px" height="20px" viewBox="0 0 24 20">
  <title>invite-game</title>
  <g id="UI" stroke="none" stroke-width="1" fill="none" fill-rule="evenodd">
    <g id="invite-game" transform="translate(-954.000000, -640.000000)" fill="#feefcf">
      <g id="icon-invite-game" transform="translate(954.000000, 638.000000)">
        <path d="M10.5882353,3.52941176 C10.5882353,2.74971565 11.2203039,2.11764706 12,2.11764706 C12.7796961,2.11764706 13.4117647,2.74971565 13.4117647,3.52941176 L13.4117647,4.94117647 L21.2941176,4.94117647 C22.3986871,4.94117647 23.2941176,5.83660697 23.2941176,6.94117647 L23.2941176,19.8823529 C23.2941176,20.9869224 22.3986871,21.8823529 21.2941176,21.8823529 L2.70588235,21.8823529 C1.60131285,21.8823529 0.705882353,20.9869224 0.705882353,19.8823529 L0.705882353,6.94117647 C0.705882353,5.83660697 1.60131285,4.94117647 2.70588235,4.94117647 L10.5882353,4.94117647 L10.5882353,3.52941176 Z M16.9411765,9.52941176 C14.7970121,9.52941176 13.0588235,11.2676004 13.0588235,13.4117647 C13.0588235,15.555929 14.7970121,17.2941176 16.9411765,17.2941176 C19.0853408,17.2941176 20.8235294,15.555929 20.8235294,13.4117647 C20.8235294,11.2676004 19.0853408,9.52941176 16.9411765,9.52941176 Z M7.36764706,9.52941176 L6.75,9.52941176 C6.37030423,9.52941176 6.05650904,9.81156565 6.00684662,10.1776412 L6,10.2794118 L5.99947059,12.3524118 L3.92647059,12.3529412 C3.54677482,12.3529412 3.23297963,12.6350951 3.1833172,13.0011706 L3.17647059,13.1029412 L3.17647059,13.7205882 C3.17647059,14.100284 3.45862447,14.4140792 3.82470003,14.4637416 L3.92647059,14.4705882 L5.99947059,14.4704118 L6,16.5441176 C6,16.9238134 6.28215388,17.2376086 6.64822944,17.287271 L6.75,17.2941176 L7.36764706,17.2941176 C7.74734282,17.2941176 8.06113802,17.0119638 8.11080044,16.6458882 L8.11764706,16.5441176 L8.11747059,14.4704118 L10.1911765,14.4705882 C10.5708722,14.4705882 10.8846674,14.1884344 10.9343299,13.8223588 L10.9411765,13.7205882 L10.9411765,13.1029412 C10.9411765,12.7232454 10.6590226,12.4094502 10.292947,12.3597878 L10.1911765,12.3529412 L8.11747059,12.3524118 L8.11764706,10.2794118 C8.11764706,9.8651982 7.78186062,9.52941176 7.36764706,9.52941176 Z M16.9411765,11.2941176 C18.1107206,11.2941176 19.0588235,12.2422205 19.0588235,13.4117647 C19.0588235,14.5813089 18.1107206,15.5294118 16.9411765,15.5294118 C15.7716323,15.5294118 14.8235294,14.5813089 14.8235294,13.4117647 C14.8235294,12.2422205 15.7716323,11.2941176 16.9411765,11.2941176 Z" id="Combined-Shape"></path>
      </g>
    </g>
  </g>
</svg>