<svg width="22px" height="22px" viewBox="0 0 22 22">
  <title>exclure</title>
  <g id="UI" stroke="none" stroke-width="1" fill="none" fill-rule="evenodd">
    <g id="exclure" transform="translate(-1176.000000, -639.000000)">
      <g id="icon-exclure" transform="translate(1174.000000, 638.000000)" fill="#feefcf">
        <path d="M17.5417957,1.41176471 C18.6463652,1.41176471 19.5417957,2.30719521 19.5417957,3.41176471 L19.5415294,7.02576471 L17.6762834,5.80801314 C17.3279048,5.58055363 16.9292269,5.44424092 16.5167524,5.40993647 L16.3095344,5.40133521 C14.984051,5.40133521 13.8994958,6.43287115 13.8148521,7.73695953 L13.8095344,7.90133521 L13.8091115,8.65594954 L12.0681115,8.65634675 C11.0137497,8.65634675 10.1499463,9.47222454 10.0735972,10.5070844 L10.0681115,10.6563467 L10.0681115,13.3436533 C10.0681115,14.398015 10.8839892,15.2618184 11.9188491,15.3381675 L12.0681115,15.3436533 L13.8091115,15.3429495 L13.8095344,16.0986054 C13.8095344,16.5840081 13.9508429,17.0589127 14.2162124,17.4653544 C14.9395955,18.573293 16.3924586,18.9182116 17.5298086,18.2806742 L17.6762834,18.1919275 L19.5415294,16.9737647 L19.5417957,20.5882353 C19.5417957,21.6928048 18.6463652,22.5882353 17.5417957,22.5882353 L4.82352941,22.5882353 C3.71895991,22.5882353 2.82352941,21.6928048 2.82352941,20.5882353 L2.82352941,3.41176471 C2.82352941,2.30719521 3.71895991,1.41176471 4.82352941,1.41176471 L17.5417957,1.41176471 Z M16.6408669,7.33043661 C16.8350279,7.33043661 17.0249898,7.38696 17.1875665,7.49310778 L22.8078949,11.1626712 C23.2703388,11.464605 23.400458,12.0842556 23.0985241,12.5466996 C23.0228162,12.6626544 22.9238497,12.7616209 22.8078949,12.8373288 L17.1875665,16.5068922 C16.7251225,16.8088261 16.1054719,16.6787069 15.803538,16.216263 C15.6973903,16.0536863 15.6408669,15.8637245 15.6408669,15.6695634 L15.6399381,13.6714823 L12.7399381,13.6718266 C12.1876533,13.6718266 11.7399381,13.2241114 11.7399381,12.6718266 L11.7399381,11.3281734 C11.7399381,10.7758886 12.1876533,10.3281734 12.7399381,10.3281734 L15.6399381,10.3274823 L15.6408669,8.33043661 C15.6408669,7.77815186 16.0885821,7.33043661 16.6408669,7.33043661 Z" id="Combined-Shape"></path>
      </g>
    </g>
  </g>
</svg>