<?xml version="1.0" encoding="UTF-8"?>
<svg width="665px" height="930px" viewBox="0 0 665 930" version="1.1" xmlns="http://www.w3.org/2000/svg" xmlns:xlink="http://www.w3.org/1999/xlink">
    <title>aaa-loginpage-illu</title>
    <defs>
        <rect id="path-1" x="0" y="0" width="132.857143" height="132.857143"></rect>
        <rect id="path-3" x="0" y="0" width="132.857143" height="132.857143"></rect>
        <rect id="path-5" x="0" y="0" width="132.857143" height="132.857143"></rect>
    </defs>
    <g id="sketch" stroke="none" stroke-width="1" fill="none" fill-rule="evenodd">
        <g id="aaa-loginpage-illu" transform="translate(-0.000000, 0.000000)">
            <rect id="Rectangle-Copy-3" fill="#FEEFCF" x="132.857143" y="132.857143" width="132.857143" height="132.857143"></rect>
            <g id="Group" transform="translate(531.428571, 0.000000)">
                <rect id="Rectangle-Copy-4" fill="#FCF19B" x="0" y="0" width="132.857143" height="132.857143"></rect>
                <rect id="Rectangle" fill="#EF5F00" x="20.5980066" y="0" width="21.627907" height="132.857143"></rect>
                <rect id="Rectangle-Copy-5" fill="#EF7E00" x="55.6146179" y="0" width="21.627907" height="132.857143"></rect>
                <rect id="Rectangle-Copy-15" fill="#F1A726" x="90.6312292" y="0" width="21.627907" height="132.857143"></rect>
            </g>
            <g id="Oval-Copy" transform="translate(531.428571, 265.714286)">
                <mask id="mask-2" fill="white">
                    <use xlink:href="#path-1"></use>
                </mask>
                <use id="Mask" fill="#F9E131" xlink:href="#path-1"></use>
                <path d="M132.857143,157.059801 C132.857143,157.059801 132.857143,147.663274 132.857143,133.14907 C132.857143,98.77923 132.857143,35.7120624 132.857143,0.764795028 C132.857143,-14.3484178 132.857143,-24.2026578 132.857143,-24.2026578 C82.8028971,-24.2026578 42.2259136,16.3743257 42.2259136,66.4285714 C42.2259136,116.482817 82.8028971,157.059801 132.857143,157.059801 Z" fill="#EF7E00" mask="url(#mask-2)"></path>
            </g>
            <rect id="Rectangle-Copy-6" fill="#FFBF4C" x="531.428571" y="531.428571" width="132.857143" height="132.857143"></rect>
            <rect id="Rectangle" fill="#EF5F00" x="531.428571" y="531.428571" width="61.7940199" height="132.857143"></rect>
            <path d="M664.285714,647.807309 C664.285714,647.807309 664.285714,547.906977 664.285714,547.906977 C636.698999,547.906977 614.335548,570.270428 614.335548,597.857143 C614.335548,625.443858 636.698999,647.807309 664.285714,647.807309 Z" id="Oval" fill="#EF5F00"></path>
            <path d="M664.285714,382.093023 C664.285714,382.093023 664.285714,282.192691 664.285714,282.192691 C636.698999,282.192691 614.335548,304.556142 614.335548,332.142857 C614.335548,359.729572 636.698999,382.093023 664.285714,382.093023 Z" id="Oval-Copy" fill="#EE481E"></path>
            <g id="Group-18" transform="translate(531.428571, 797.142857)">
                <rect id="Rectangle-Copy-20" fill="#EF7E00" x="0" y="0" width="132.857143" height="132.857143"></rect>
                <polygon id="Rectangle" fill="#F1A726" points="0 0 132.857143 0 0 132.857143"></polygon>
                <polygon id="Rectangle" fill="#F9E131" points="0 0 87.5415282 0 0 87.5415282"></polygon>
                <polygon id="Rectangle" fill="#FCF19B" transform="translate(89.086379, 89.086379) scale(-1, -1) translate(-89.086379, -89.086379) " points="45.3156146 45.3156146 132.857143 45.3156146 45.3156146 132.857143"></polygon>
            </g>
            <g id="Group-16" transform="translate(398.571429, 664.285714)">
                <rect id="Rectangle-Copy-20" fill="#EE481E" x="0" y="0" width="132.857143" height="132.857143"></rect>
                <rect id="Rectangle-Copy-8" fill="#FEEFCF" x="0" y="110.199336" width="132.857143" height="22.6578073"></rect>
                <rect id="Rectangle-Copy-9" fill="#FEEFCF" x="0" y="93.7209302" width="132.857143" height="14.4186047"></rect>
                <rect id="Rectangle-Copy-10" fill="#FEEFCF" x="0" y="76.2126246" width="132.857143" height="12.358804"></rect>
                <rect id="Rectangle-Copy-11" fill="#FEEFCF" x="0" y="58.7043189" width="132.857143" height="9.26910299"></rect>
                <rect id="Rectangle-Copy-12" fill="#FEEFCF" x="0.0532167345" y="41.1960133" width="132.857143" height="6.17940199"></rect>
                <rect id="Rectangle-Copy-13" fill="#FEEFCF" x="0" y="24.717608" width="132.857143" height="3.089701"></rect>
            </g>
            <g id="Group-15" transform="translate(265.714286, 797.142857)">
                <rect id="Rectangle-Copy-20" fill="#FEEFCF" x="0" y="0" width="132.857143" height="132.857143"></rect>
                <rect id="Rectangle" fill="#EF5F00" x="0" y="62.8239203" width="132.857143" height="70.0332226"></rect>
                <path d="M0,95.4593614 L16.4842835,80.8584219 C18.8617701,78.7525652 21.927916,77.5899 25.1039316,77.5899 L119.857143,77.5899 C127.036845,77.5899 132.857143,71.7696017 132.857143,64.5899 L132.857143,37.7849428 L132.857143,37.7849428 L128.349045,58.2118916 C127.034409,64.1687279 121.754695,68.4102898 115.654517,68.4102898 L22.4752586,68.4102898 C17.7186903,68.4102898 13.3418862,71.0080569 11.0635602,75.1834817 L0,95.4593614 L0,95.4593614 Z" id="Path-8" fill="#F9E131"></path>
                <path d="M0,95.4593614 L11.0633753,75.1873001 C13.3418415,71.0123349 17.7183923,68.4149318 22.4746243,68.4149318 L115.654176,68.4149318 C121.754509,68.4149318 127.034313,64.1731586 128.348793,58.2161286 L132.857143,37.7849428 L132.857143,37.7849428 L124.280443,52.7252083 C121.967876,56.7536078 117.681646,59.2420465 113.036665,59.2529626 L17.4730653,59.4775447 C11.2228227,59.4922333 5.86772322,63.9527366 4.7233654,70.0973435 L0,95.4593614 L0,95.4593614 Z" id="Path-8-Copy" fill="#EFC10A"></path>
                <path d="M0,95.4593614 L4.7233654,70.0973435 C5.86772322,63.9527366 11.2228227,59.4922333 17.4730653,59.4775447 L113.036665,59.2529626 C117.681646,59.2420465 121.967876,56.7536078 124.280443,52.7252083 L132.857143,37.7849428 L132.857143,37.7849428 L117.30839,48.1425544 C115.173741,49.564525 112.666153,50.3232604 110.10125,50.3232604 L13,50.3232604 C5.82029825,50.3232604 6.22616748e-15,56.1435587 0,63.3232604 L0,95.4593614 L0,95.4593614 Z" id="Path-8-Copy-2" fill="#F1A726"></path>
            </g>
            <g id="Group-Copy-2" transform="translate(265.714286, 265.714286)">
                <mask id="mask-4" fill="white">
                    <use xlink:href="#path-3"></use>
                </mask>
                <use id="Mask" fill="#FEEFCF" xlink:href="#path-3"></use>
                <rect id="Rectangle" fill="#F1A726" mask="url(#mask-4)" x="0" y="62.8239203" width="132.857143" height="70.0332226"></rect>
                <g mask="url(#mask-4)" stroke-linejoin="round" stroke-width="20">
                    <g transform="translate(-45.830565, 28.258181)">
                        <polyline id="Path-2" stroke="#EFC10A" points="1.29463787e-12 37.5913621 104.534884 37.5913621 144.96988 0 201.480011 0"></polyline>
                        <polyline id="Path-2-Copy" stroke="#EF7E00" points="-1.06321889e-13 55.0775985 113.877238 55.0775985 153.989771 16.7138111 201.480011 16.7138111"></polyline>
                        <polyline id="Path-2-Copy-2" stroke="#ED4217" points="1.23131228e-12 72.5638348 122.982181 72.5638348 161.926721 34.2000475 201.480011 34.2000475"></polyline>
                    </g>
                </g>
            </g>
            <g id="Group-Copy-3" transform="translate(66.428571, 597.857143) rotate(-180.000000) translate(-66.428571, -597.857143) translate(0.000000, 531.428571)">
                <mask id="mask-6" fill="white">
                    <use xlink:href="#path-5"></use>
                </mask>
                <use id="Mask" fill="#FFF18C" xlink:href="#path-5"></use>
                <g id="Group-Copy-2" mask="url(#mask-6)" stroke-linejoin="round" stroke-width="20">
                    <g transform="translate(-45.830565, 34.319880)">
                        <polyline id="Path-2" stroke="#EFC10A" points="1.72618382e-12 37.5913621 104.534884 37.5913621 144.96988 0 201.480011 0"></polyline>
                        <polyline id="Path-2-Copy" stroke="#EF7E00" points="3.25224067e-13 54.1286189 113.877238 54.1286189 153.989771 15.7648315 201.480011 15.7648315"></polyline>
                        <polyline id="Path-2-Copy-2" stroke="#ED4217" points="1.23131228e-12 70.6658757 122.982181 70.6658757 161.926721 32.3020883 201.480011 32.3020883"></polyline>
                    </g>
                </g>
            </g>
            <g id="Group-13" transform="translate(265.714286, 531.428571)">
                <rect id="Rectangle-Copy-20" fill="#FEEFCF" x="0" y="0" width="132.857143" height="132.857143"></rect>
                <path d="M0,132.857143 C2.36754285,88.8598845 6.65547963,62.8698464 12.8638104,54.8870288 C22.1763064,42.9128023 40.8258348,72.1705228 53.7857888,63.6981105 C66.7457428,55.2256982 53.9540614,30.5406655 63.83366,21.5661096 C73.7132585,12.5915536 79.4658991,29.1300218 98.327418,23.2368161 C110.901764,19.3080123 122.411672,11.562407 132.857143,0 L132.857143,132.857143 L0,132.857143 Z" id="Path-7" fill="#EF5F00"></path>
                <path d="M132.857143,132.857143 L0,132.857143 C6.594907,105.240749 15.1451755,88.3373393 25.6508056,82.1469129 C41.4092507,72.8612732 56.314613,100.787627 70.5823416,91.2666062 C84.8500702,81.7455859 71.9477605,54.6032127 81.5923043,44.8165035 C91.2368481,35.0297943 101.523782,57.7845339 116.357692,44.8165035 C126.246966,36.1711499 131.746783,21.2323154 132.857143,0 L132.857143,132.857143 Z" id="Path-5" fill="#EF7E00"></path>
                <path d="M0,132.857143 C3.53776012,124.215625 12.6526114,118.265188 27.344554,115.005833 C49.3824677,110.116801 58.7504386,128.932859 80.466965,115.005833 C102.183491,101.078808 88.8756446,74.0243341 97.1258064,70.2544177 C105.375968,66.4845012 113.779587,97.199384 123.22964,95.4654031 C129.529676,94.3094159 132.738843,83.7203183 132.857143,63.6981105 L132.857143,132.857143 L0,132.857143 Z" id="Path-6" fill="#F1A726"></path>
            </g>
            <g id="Group-12" transform="translate(132.857143, 664.285714)">
                <rect id="Rectangle-Copy-20" fill="#FFFFC6" x="0" y="0" width="132.857143" height="132.857143"></rect>
                <circle id="Oval" fill="#FFD736" cx="72.0930233" cy="60.7641196" r="50.4651163"></circle>
                <circle id="Oval" fill="#F68236" cx="86.5116279" cy="46.345515" r="36.0465116"></circle>
                <circle id="Oval" fill="#EE481E" cx="104.019934" cy="28.8372093" r="18.538206"></circle>
            </g>
            <g id="Group-14" transform="translate(0.000000, 797.142857)">
                <rect id="Rectangle-Copy-20" fill="#F1A726" x="0" y="0" width="132.857143" height="132.857143"></rect>
                <path d="M-2.34172224e-13,11.8811082 C18.8711376,26.3478025 33.2379712,32.4074463 43.1005009,30.0600394 C57.8942955,26.538929 47.3687943,0.611864242 61.8369555,5.23374586 C76.3051168,9.85562749 81.5101718,32.5575495 100.909111,30.0600394 C113.841737,28.3950326 124.491081,21.2471133 132.857143,8.61628141 L132.857143,40.1604849 C109.185913,56.5356349 92.5026244,65.2714962 82.8072785,66.368069 C68.2642597,68.0129281 74.1632665,39.7373083 65.9095982,37.8421424 C57.6559299,35.9469765 63.5915808,61.960169 43.1005009,61.960169 C29.439781,61.960169 15.0729473,58.1284848 -2.34172224e-13,50.4651163 L-2.34172224e-13,11.8811082 Z" id="Path-12" fill="#FFE683"></path>
                <path d="M0,57.3987695 C20.1471996,64.6133195 34.9441871,68.2205945 44.3909628,68.2205945 C58.5611262,68.2205945 56.7267707,55.0090869 65.9095982,57.3987695 C75.0924257,59.7884521 63.5326117,75.4507563 74.7691642,76.1260309 C86.0057166,76.8013056 97.9877945,60.6233454 110.815466,60.0974438 C119.367247,59.7468427 126.714473,60.7282206 132.857143,63.0415777 L132.857143,90.4553162 C120.889522,84.249656 111.132657,82.0121322 103.586548,83.7427449 C92.2673844,86.338664 82.106672,98.3057068 70.3868938,98.3057068 C58.6671156,98.3057068 66.4950041,78.9936566 60.8282226,77.8641741 C55.1614411,76.7346915 62.7285582,94.7895786 44.3909628,93.1242911 C32.1658991,92.0140995 17.3689115,85.0860677 0,72.3401958 L0,57.3987695 Z" id="Path-13" fill="#FFE683"></path>
                <path d="M132.857143,94.9999883 C121.739539,86.6975686 112.514692,84.8057903 105.182604,89.3246534 C94.1844708,96.1029481 97.5788977,104.966276 88.7016531,106.616433 C79.8244084,108.26659 79.3205241,100.054476 66.4285714,101.107878 C53.5366188,102.16128 50.7325787,109.988674 42.3860092,107.593863 C34.0394396,105.199052 33.9881332,97.503125 26.687424,92.2270819 C21.8202846,88.7097198 12.9244766,87.7422437 0,89.3246534 L0,125.020445 C6.75115354,113.899813 13.6640214,109.919506 20.7386035,113.079522 C31.3504768,117.819546 34.2601243,126.912761 42.3860092,128.351953 C50.5118941,129.791145 53.3223748,123.215438 66.4285714,123.215438 C79.534768,123.215438 85.4265177,130.954161 97.2741112,127.0848 C109.121705,123.215438 108.690063,118.294845 116.180737,113.079522 C121.174519,109.60264 126.733322,112.296766 132.857143,121.1619 L132.857143,94.9999883 Z" id="Path-14" fill="#FFE683"></path>
            </g>
            <g id="Group-17" transform="translate(132.857143, 398.544820)">
                <rect id="Rectangle-Copy-20" fill="#FEEFCF" x="0" y="0.0266083672" width="132.857143" height="132.857143"></rect>
                <path d="M124.61794,95.8767707 L124.61794,124.644549 L-8.23920266,124.644549 L-8.23920266,95.8767707 L124.61794,95.8767707 Z M124.61794,74.9547505 L124.61794,93.2615182 L-8.23920266,93.2615182 L-8.23920266,74.9547505 L124.61794,74.9547505 Z M124.61794,52.725104 L124.61794,68.4166192 L-8.23920266,68.4166192 L-8.23920266,52.725104 L124.61794,52.725104 Z M124.61794,30.4954575 L124.61794,42.2640939 L-8.23920266,42.2640939 L-8.23920266,30.4954575 L124.61794,30.4954575 Z M124.671157,8.26581103 L124.671157,16.1115686 L-8.18598592,16.1115686 L-8.18598592,8.26581103 L124.671157,8.26581103 Z" id="Combined-Shape" fill="#F1A726" transform="translate(58.215977, 66.455180) rotate(-270.000000) translate(-58.215977, -66.455180) "></path>
            </g>
            <g id="Group-9" transform="translate(465.000000, 465.000000) scale(-1, 1) translate(-465.000000, -465.000000) translate(398.571429, 398.571429)">
                <rect id="Rectangle-Copy-33" fill="#F1A726" x="0" y="0" width="132.857143" height="132.857143"></rect>
                <polygon id="Rectangle-Copy-46" fill="#EF7E00" points="0 0 132.857143 0 0 132.857143"></polygon>
                <polygon id="Rectangle-Copy-47" fill="#EE481E" points="0 0 87.5415282 0 0 87.5415282"></polygon>
                <polygon id="Rectangle-Copy-48" fill="#FFF18C" transform="translate(89.086379, 89.086379) scale(-1, -1) translate(-89.086379, -89.086379) " points="45.3156146 45.3156146 132.857143 45.3156146 45.3156146 132.857143"></polygon>
            </g>
            <path d="M132.857143,132.857143 C150.929238,149.996184 161.542924,163.997881 164.698201,174.862232 C169.431117,191.15876 147.993114,196.394616 155.625749,211.254746 C163.258383,226.114876 186.405469,218.373981 193.42146,230.784125 C198.098788,239.057554 195.762997,250.700941 186.414085,265.714286 L265.714286,265.714286 L265.714286,132.857143 L132.857143,132.857143 Z" id="Path-15" fill="#EFC10A"></path>
            <path d="M160.432061,132.857143 C176.716675,144.541717 188.372042,155.092781 195.398163,164.510335 C205.937345,178.636666 179.337234,197.948233 188.195373,207.030469 C197.053512,216.112704 223.89517,193.844296 230.84396,200.852854 C237.79275,207.861412 218.053853,228.172187 217.735713,236.824891 C217.417572,245.477595 228.216381,246.10369 228.944405,252.516493 C229.429755,256.791695 226.786763,261.190959 221.015429,265.714286 L265.714286,265.714286 L265.714286,132.857143 L160.432061,132.857143 Z" id="Path-16" fill="#EF7E00"></path>
            <path d="M187.078695,132.857143 L265.714286,132.857143 L265.714286,265.714286 L246.617241,265.714286 C253.207671,258.792386 256.502885,250.97476 256.502885,242.261407 C256.502885,229.191377 249.156259,222.581188 246.617241,203.578315 C244.078224,184.575441 254.048043,168.014722 248.982677,161.899954 C243.917311,155.785187 234.981539,183.83554 226.367036,179.132836 C217.752534,174.430133 224.790676,155.298885 214.338152,142.987321 C207.369803,134.779613 198.283318,131.402887 187.078695,132.857143 Z" id="Path-17" fill="#EF5F00"></path>
        </g>
    </g>
</svg>