<?xml version="1.0" encoding="UTF-8"?>
<svg width="1085px" height="1550px" viewBox="0 0 1085 1550" version="1.1" xmlns="http://www.w3.org/2000/svg" xmlns:xlink="http://www.w3.org/1999/xlink">
    <title>aaa-loginpage-mid2-illu</title>
    <defs>
        <rect id="path-1" x="0" y="0" width="155" height="155"></rect>
        <rect id="path-3" x="0" y="0" width="155" height="155"></rect>
        <rect id="path-5" x="0" y="0" width="155" height="155"></rect>
    </defs>
    <g id="sketch" stroke="none" stroke-width="1" fill="none" fill-rule="evenodd">
        <g id="aaa-loginpage-mid2-illu" transform="translate(0.000000, 0.000000)">
            <g id="Group-2" transform="translate(930.000000, 0.000000)">
                <rect id="Rectangle-Copy-3" fill="#FEEFCF" x="2.28426331e-13" y="0.382104869" width="155" height="154.617895"></rect>
                <path d="M2.28426331e-13,0.382104869 C21.0841113,20.3283602 33.4667451,36.6234031 37.1479015,49.2672337 C42.6696359,68.2329795 17.6586331,74.3264197 26.5633734,91.6204995 C35.4681138,108.914579 62.4730467,99.9057976 70.6583705,114.348607 C76.1152531,123.977146 73.3901627,137.52761 62.4830994,155 L155,155 L155,0.382104869 L2.28426331e-13,0.382104869 Z" id="Path-15" fill="#EFC10A"></path>
                <path d="M32.1707378,0.382104869 C51.1694539,13.9805027 64.7673825,26.259732 72.9645237,37.2197927 C85.2602356,53.6598839 54.2267733,76.1345043 64.5612686,86.7043248 C74.8957639,97.2741453 106.211031,71.3583806 114.317953,79.514875 C122.424875,87.6713693 99.3961616,111.308859 99.0249979,121.378794 C98.6538343,131.44873 111.252445,132.177373 112.101806,139.640533 C112.668047,144.615973 109.584556,149.735795 102.851334,155 L155,155 L155,0.382104869 L32.1707378,0.382104869 Z" id="Path-16" fill="#EF7E00"></path>
                <path d="M63.2584777,0.382104869 L155,0.382104869 L155,155 L132.720115,155 C140.408949,146.944359 144.253366,137.846279 144.253366,127.70576 C144.253366,112.494982 135.682302,104.802106 132.720115,82.6867403 C129.757927,60.5713746 141.389383,41.2981648 135.47979,34.1818561 C129.570197,27.0655475 119.145128,59.7102842 109.094876,54.2373222 C99.0446226,48.7643603 107.255788,26.4995931 95.0611775,12.1715116 C86.9314371,2.61945724 76.3305372,-1.31034499 63.2584777,0.382104869 Z" id="Path-17" fill="#EF5F00"></path>
            </g>
            <g id="Group-2-Copy-2" transform="translate(155.000000, 1395.000000)">
                <rect id="Rectangle-Copy-3" fill="#FEEFCF" x="2.28426331e-13" y="0.382104869" width="155" height="154.617895"></rect>
                <path d="M2.28426331e-13,0.382104869 C21.0841113,20.3283602 33.4667451,36.6234031 37.1479015,49.2672337 C42.6696359,68.2329795 17.6586331,74.3264197 26.5633734,91.6204995 C35.4681138,108.914579 62.4730467,99.9057976 70.6583705,114.348607 C76.1152531,123.977146 73.3901627,137.52761 62.4830994,155 L155,155 L155,0.382104869 L2.28426331e-13,0.382104869 Z" id="Path-15" fill="#EFC10A"></path>
                <path d="M32.1707378,0.382104869 C51.1694539,13.9805027 64.7673825,26.259732 72.9645237,37.2197927 C85.2602356,53.6598839 54.2267733,76.1345043 64.5612686,86.7043248 C74.8957639,97.2741453 106.211031,71.3583806 114.317953,79.514875 C122.424875,87.6713693 99.3961616,111.308859 99.0249979,121.378794 C98.6538343,131.44873 111.252445,132.177373 112.101806,139.640533 C112.668047,144.615973 109.584556,149.735795 102.851334,155 L155,155 L155,0.382104869 L32.1707378,0.382104869 Z" id="Path-16" fill="#EF7E00"></path>
                <path d="M63.2584777,0.382104869 L155,0.382104869 L155,155 L132.720115,155 C140.408949,146.944359 144.253366,137.846279 144.253366,127.70576 C144.253366,112.494982 135.682302,104.802106 132.720115,82.6867403 C129.757927,60.5713746 141.389383,41.2981648 135.47979,34.1818561 C129.570197,27.0655475 119.145128,59.7102842 109.094876,54.2373222 C99.0446226,48.7643603 107.255788,26.4995931 95.0611775,12.1715116 C86.9314371,2.61945724 76.3305372,-1.31034499 63.2584777,0.382104869 Z" id="Path-17" fill="#EF5F00"></path>
            </g>
            <g id="Group-Copy" transform="translate(1007.500000, 1007.500000) scale(-1, -1) rotate(-270.000000) translate(-1007.500000, -1007.500000) translate(930.000000, 930.000000)">
                <rect id="Rectangle-Copy-4" fill="#FCF19B" x="0" y="0" width="155" height="155"></rect>
                <rect id="Rectangle" fill="#EF5F00" x="24.0310078" y="0" width="25.2325581" height="155"></rect>
                <rect id="Rectangle-Copy-5" fill="#EF7E00" x="64.8837209" y="0" width="25.2325581" height="155"></rect>
                <rect id="Rectangle-Copy-15" fill="#F1A726" x="105.736434" y="0" width="25.2325581" height="155"></rect>
            </g>
            <g id="Group-18-Copy-2" transform="translate(852.500000, 1162.500000) rotate(-270.000000) translate(-852.500000, -1162.500000) translate(775.000000, 1085.000000)">
                <rect id="Rectangle-Copy-20" fill="#EF7E00" x="0" y="0" width="155" height="155"></rect>
                <polygon id="Rectangle" fill="#F1A726" points="0 0 155 0 0 155"></polygon>
                <polygon id="Rectangle" fill="#F9E131" points="0 0 102.131783 0 0 102.131783"></polygon>
                <polygon id="Rectangle" fill="#FCF19B" transform="translate(103.934109, 103.934109) scale(-1, -1) translate(-103.934109, -103.934109) " points="52.8682171 52.8682171 155 52.8682171 52.8682171 155"></polygon>
            </g>
            <g id="Group-16-Copy-2" transform="translate(310.000000, 620.000000)">
                <rect id="Rectangle-Copy-20" fill="#EE481E" x="0" y="0" width="154.937939" height="155"></rect>
                <rect id="Rectangle-Copy-8" fill="#FEEFCF" x="0" y="128.565891" width="154.937939" height="26.4341085"></rect>
                <rect id="Rectangle-Copy-9" fill="#FEEFCF" x="0" y="109.341085" width="154.937939" height="16.8217054"></rect>
                <rect id="Rectangle-Copy-10" fill="#FEEFCF" x="0" y="88.9147287" width="154.937939" height="14.4186047"></rect>
                <rect id="Rectangle-Copy-11" fill="#FEEFCF" x="0" y="68.4883721" width="154.937939" height="10.8139535"></rect>
                <rect id="Rectangle-Copy-12" fill="#FEEFCF" x="0.0620613312" y="48.0620155" width="154.937939" height="7.20930233"></rect>
                <rect id="Rectangle-Copy-13" fill="#FEEFCF" x="0" y="28.8372093" width="154.937939" height="3.60465116"></rect>
            </g>
            <g id="Group-16-Copy" transform="translate(852.500000, 1472.500000) scale(1, -1) translate(-852.500000, -1472.500000) translate(775.000000, 1395.000000)">
                <rect id="Rectangle-Copy-20" fill="#EE481E" x="0" y="0" width="154.937939" height="155"></rect>
                <rect id="Rectangle-Copy-8" fill="#FEEFCF" x="0" y="128.565891" width="154.937939" height="26.4341085"></rect>
                <rect id="Rectangle-Copy-9" fill="#FEEFCF" x="0" y="109.341085" width="154.937939" height="16.8217054"></rect>
                <rect id="Rectangle-Copy-10" fill="#FEEFCF" x="0" y="88.9147287" width="154.937939" height="14.4186047"></rect>
                <rect id="Rectangle-Copy-11" fill="#FEEFCF" x="0" y="68.4883721" width="154.937939" height="10.8139535"></rect>
                <rect id="Rectangle-Copy-12" fill="#FEEFCF" x="0.0620613312" y="48.0620155" width="154.937939" height="7.20930233"></rect>
                <rect id="Rectangle-Copy-13" fill="#FEEFCF" x="0" y="28.8372093" width="154.937939" height="3.60465116"></rect>
            </g>
            <g id="Group-15-Copy-3" transform="translate(0.000000, 620.000000)">
                <rect id="Rectangle-Copy-20" fill="#FEEFCF" x="0" y="0" width="155" height="155"></rect>
                <rect id="Rectangle" fill="#EF5F00" x="0" y="73.2945736" width="155" height="81.7054264"></rect>
                <path d="M0,111.369255 L19.8466843,93.7900719 C22.224171,91.6842152 25.2903168,90.52155 28.4663324,90.52155 L142,90.52155 C149.179702,90.52155 155,84.7012517 155,77.52155 L155,44.0824332 L155,44.0824332 L149.365432,69.6136065 C148.050796,75.5704429 142.771082,79.8120048 136.670904,79.8120048 L24.9351522,79.8120048 C20.1785839,79.8120048 15.8017798,82.4097718 13.5234538,86.5851967 L0,111.369255 L0,111.369255 Z" id="Path-8" fill="#F9E131"></path>
                <path d="M0,111.369255 L13.5232688,86.5897887 C15.8017351,82.4148235 20.1782858,79.8174204 24.9345178,79.8174204 L136.670563,79.8174204 C142.770896,79.8174204 148.050701,75.5756472 149.36518,69.6186173 L155,44.0824332 L155,44.0824332 L144.370978,62.5977619 C142.058411,66.6261614 137.772181,69.1146001 133.1272,69.1255162 L18.5891414,69.3946898 C12.3388988,69.4093784 6.98379927,73.8698817 5.83944145,80.0144886 L0,111.369255 L0,111.369255 Z" id="Path-8-Copy" fill="#EFC10A"></path>
                <path d="M0,111.369255 L5.83944145,80.0144886 C6.98379927,73.8698817 12.3388988,69.4093784 18.5891414,69.3946898 L133.1272,69.1255162 C137.772181,69.1146001 142.058411,66.6261614 144.370978,62.5977619 L155,44.0824332 L155,44.0824332 L136.31418,56.5297645 C134.17953,57.9517351 131.671942,58.7104705 129.107039,58.7104705 L13,58.7104705 C5.82029825,58.7104705 4.44981064e-15,64.5307687 0,71.7104705 L0,111.369255 L0,111.369255 Z" id="Path-8-Copy-2" fill="#F1A726"></path>
            </g>
            <g id="Group-Copy-10" transform="translate(465.000000, 1395.000000)">
                <mask id="mask-2" fill="white">
                    <use xlink:href="#path-1"></use>
                </mask>
                <use id="Mask" fill="#FEEFCF" xlink:href="#path-1"></use>
                <rect id="Rectangle" fill="#F1A726" mask="url(#mask-2)" x="0" y="73.2945736" width="155" height="81.7054264"></rect>
                <g id="Group-Copy-2" mask="url(#mask-2)" stroke-linejoin="round" stroke-width="20">
                    <g transform="translate(-53.468992, 32.967878)">
                        <polyline id="Path-2" stroke="#EFC10A" points="1.59898432e-12 43.8565891 121.957364 43.8565891 169.131527 0 235.060012 0"></polyline>
                        <polyline id="Path-2-Copy" stroke="#EF7E00" points="-4.92321391e-13 61.4893411 132.856778 61.4893411 179.654733 16.7315891 235.060012 16.7315891"></polyline>
                        <polyline id="Path-2-Copy-2" stroke="#ED4217" points="1.436531e-12 79.122093 143.479211 79.122093 188.914508 34.3643411 235.060012 34.3643411"></polyline>
                    </g>
                </g>
            </g>
            <g id="Group-Copy-13" transform="translate(310.000000, 930.000000)">
                <mask id="mask-4" fill="white">
                    <use xlink:href="#path-3"></use>
                </mask>
                <use id="Mask" fill="#FEEFCF" xlink:href="#path-3"></use>
                <rect id="Rectangle" fill="#F1A726" mask="url(#mask-4)" x="0" y="73.2945736" width="155" height="81.7054264"></rect>
                <g id="Group-Copy-2" mask="url(#mask-4)" stroke-linejoin="round" stroke-width="20">
                    <g transform="translate(-53.468992, 32.967878)">
                        <polyline id="Path-2" stroke="#EFC10A" points="1.59898432e-12 43.8565891 121.957364 43.8565891 169.131527 0 235.060012 0"></polyline>
                        <polyline id="Path-2-Copy" stroke="#EF7E00" points="-4.92321391e-13 61.4893411 132.856778 61.4893411 179.654733 16.7315891 235.060012 16.7315891"></polyline>
                        <polyline id="Path-2-Copy-2" stroke="#ED4217" points="1.436531e-12 79.122093 143.479211 79.122093 188.914508 34.3643411 235.060012 34.3643411"></polyline>
                    </g>
                </g>
            </g>
            <g id="Group-Copy-3" transform="translate(852.500000, 542.500000) rotate(-180.000000) translate(-852.500000, -542.500000) translate(775.000000, 465.000000)">
                <mask id="mask-6" fill="white">
                    <use xlink:href="#path-5"></use>
                </mask>
                <use id="Mask" fill="#FFF18C" xlink:href="#path-5"></use>
                <g id="Group-Copy-2" mask="url(#mask-6)" stroke-linejoin="round" stroke-width="20">
                    <g transform="translate(-53.468992, 47.379807)">
                        <polyline id="Path-2" stroke="#EFC10A" points="1.37055799e-12 43.8565891 121.957364 43.8565891 169.131527 0 235.060012 0"></polyline>
                        <polyline id="Path-2-Copy" stroke="#EF7E00" points="-3.54687282e-14 59.4800818 132.856778 59.4800818 179.654733 14.7223299 235.060012 14.7223299"></polyline>
                        <polyline id="Path-2-Copy-2" stroke="#ED4217" points="1.436531e-12 75.1035745 143.479211 75.1035745 188.914508 30.3458226 235.060012 30.3458226"></polyline>
                    </g>
                </g>
            </g>
            <g id="Group-13-Copy-3" transform="translate(155.000000, 155.000000)">
                <rect id="Rectangle-Copy-20" fill="#FEEFCF" x="0" y="0" width="155" height="155"></rect>
                <path d="M0,155 C2.76213332,103.669865 7.76472624,73.3481542 15.0077787,64.0348669 C25.8723575,50.064936 47.6301406,84.1989433 62.7500869,74.3144623 C77.8700333,64.4299812 62.946405,35.6307764 74.4726033,25.1604611 C85.9988016,14.6901458 92.7102156,33.9850254 114.715321,27.1096188 C129.385391,22.5260144 142.813618,13.4894748 155,0 L155,155 L0,155 Z" id="Path-7" fill="#EF5F00"></path>
                <path d="M155,155 L0,155 C7.69405817,122.780874 17.6693715,103.060229 29.9259399,95.838065 C48.3107925,85.0048188 65.7003819,117.585564 82.3460652,106.477707 C98.9917485,95.3698502 83.9390539,63.7037482 95.1910217,52.2859208 C106.442989,40.8680933 118.444413,67.4152895 135.750641,52.2859208 C147.288127,42.1996749 153.70458,24.7710347 155,0 L155,155 Z" id="Path-5" fill="#EF7E00"></path>
                <path d="M0,155 C4.12738681,144.918229 14.76138,137.976053 31.9019796,134.173472 C57.612879,128.469601 68.5421783,150.421669 93.8781258,134.173472 C119.214073,117.925275 103.688252,86.3617231 113.313441,81.9634873 C122.93863,77.5652515 132.742851,113.399281 143.767913,111.376304 C151.117955,110.027652 154.861984,97.6737047 155,74.3144623 L155,155 L0,155 Z" id="Path-6" fill="#F1A726"></path>
            </g>
            <g id="Group-13-Copy-4" transform="translate(620.000000, 620.000000)">
                <rect id="Rectangle-Copy-20" fill="#FEEFCF" x="0" y="0" width="155" height="155"></rect>
                <path d="M0,155 C2.76213332,103.669865 7.76472624,73.3481542 15.0077787,64.0348669 C25.8723575,50.064936 47.6301406,84.1989433 62.7500869,74.3144623 C77.8700333,64.4299812 62.946405,35.6307764 74.4726033,25.1604611 C85.9988016,14.6901458 92.7102156,33.9850254 114.715321,27.1096188 C129.385391,22.5260144 142.813618,13.4894748 155,0 L155,155 L0,155 Z" id="Path-7" fill="#EF5F00"></path>
                <path d="M155,155 L0,155 C7.69405817,122.780874 17.6693715,103.060229 29.9259399,95.838065 C48.3107925,85.0048188 65.7003819,117.585564 82.3460652,106.477707 C98.9917485,95.3698502 83.9390539,63.7037482 95.1910217,52.2859208 C106.442989,40.8680933 118.444413,67.4152895 135.750641,52.2859208 C147.288127,42.1996749 153.70458,24.7710347 155,0 L155,155 Z" id="Path-5" fill="#EF7E00"></path>
                <path d="M0,155 C4.12738681,144.918229 14.76138,137.976053 31.9019796,134.173472 C57.612879,128.469601 68.5421783,150.421669 93.8781258,134.173472 C119.214073,117.925275 103.688252,86.3617231 113.313441,81.9634873 C122.93863,77.5652515 132.742851,113.399281 143.767913,111.376304 C151.117955,110.027652 154.861984,97.6737047 155,74.3144623 L155,155 L0,155 Z" id="Path-6" fill="#F1A726"></path>
            </g>
            <g id="Group-12" transform="translate(930.000000, 620.000000)">
                <rect id="Rectangle-Copy-20" fill="#FFFFC6" x="0" y="0" width="155" height="155"></rect>
                <circle id="Oval" fill="#FFD736" cx="84.1085271" cy="70.8914729" r="58.875969"></circle>
                <circle id="Oval" fill="#F68236" cx="100.930233" cy="54.0697674" r="42.0542636"></circle>
                <circle id="Oval" fill="#EE481E" cx="121.356589" cy="33.6434109" r="21.627907"></circle>
            </g>
            <g id="Group-14" transform="translate(775.000000, 775.000000)">
                <rect id="Rectangle-Copy-20" fill="#F1A726" x="0" y="0" width="155" height="155"></rect>
                <path d="M-2.73200928e-13,13.8612929 C22.0163271,30.739103 38.7776331,37.8086873 50.2839177,35.0700459 C67.5433448,30.9620839 55.2635933,0.713841616 72.1431148,6.10603684 C89.0226363,11.4982321 95.0952005,37.9838078 117.727296,35.0700459 C132.81536,33.127538 145.239594,24.7882988 155,10.0523283 L155,46.8538991 C127.383565,65.9582407 107.919728,76.1500789 96.6084916,77.4294138 C79.6416363,79.3484161 86.523811,46.3601931 76.8945313,44.1491661 C67.2652515,41.9381392 74.1901776,72.2868638 50.2839177,72.2868638 C34.3464111,72.2868638 17.5851052,67.8165656 -2.73200928e-13,58.875969 L-2.73200928e-13,13.8612929 Z" id="Path-12" fill="#FFE683"></path>
                <path d="M0,66.9652311 C23.5050661,75.3822061 40.7682183,79.5906936 51.7894566,79.5906936 C68.3213139,79.5906936 66.1812325,64.1772681 76.8945312,66.9652311 C87.60783,69.7531941 74.1213803,88.0258823 87.2306915,88.8137028 C100.340003,89.6015232 114.319094,70.7272363 129.284711,70.1136844 C139.261789,69.7046498 147.833552,70.8495907 155,73.5485073 L155,105.531202 C141.037775,98.2912653 129.654766,95.6808209 120.850972,97.6998691 C107.645282,100.728441 95.7911174,114.689991 82.1180428,114.689991 C68.4449682,114.689991 77.5775048,92.1592661 70.9662598,90.8415364 C64.3550147,89.5238068 73.1833179,110.587842 51.7894566,108.645006 C37.5268823,107.349783 20.2637301,99.267079 0,84.3968951 L0,66.9652311 Z" id="Path-13" fill="#FFE683"></path>
                <path d="M155,110.83332 C142.029462,101.147163 131.267141,98.9400887 122.713038,104.212096 C109.881883,112.120106 113.842047,122.460655 103.485262,124.385839 C93.1284765,126.311022 92.5406114,116.730222 77.5,117.959191 C62.4593886,119.18816 59.1880085,128.32012 49.450344,125.526174 C39.7126796,122.732227 39.652822,113.753646 31.135328,107.598262 C25.4569987,103.494673 15.078556,102.365951 0,104.212096 L0,145.857186 C7.87634579,132.883116 15.9413583,128.239423 24.1950375,131.926109 C36.5755562,137.456137 39.970145,148.064888 49.450344,149.743945 C58.9305431,151.423002 62.2094373,143.751344 77.5,143.751344 C92.7905627,143.751344 99.6642706,152.779855 113.486463,148.2656 C127.308655,143.751344 126.805073,138.010652 135.544193,131.926109 C141.370273,127.869747 147.855542,131.012894 155,141.35555 L155,110.83332 Z" id="Path-14" fill="#FFE683"></path>
            </g>
            <g id="Group-14-Copy-4" transform="translate(0.000000, 1240.000000)">
                <rect id="Rectangle-Copy-20" fill="#F1A726" x="0" y="0" width="155" height="155"></rect>
                <path d="M-2.73200928e-13,13.8612929 C22.0163271,30.739103 38.7776331,37.8086873 50.2839177,35.0700459 C67.5433448,30.9620839 55.2635933,0.713841616 72.1431148,6.10603684 C89.0226363,11.4982321 95.0952005,37.9838078 117.727296,35.0700459 C132.81536,33.127538 145.239594,24.7882988 155,10.0523283 L155,46.8538991 C127.383565,65.9582407 107.919728,76.1500789 96.6084916,77.4294138 C79.6416363,79.3484161 86.523811,46.3601931 76.8945313,44.1491661 C67.2652515,41.9381392 74.1901776,72.2868638 50.2839177,72.2868638 C34.3464111,72.2868638 17.5851052,67.8165656 -2.73200928e-13,58.875969 L-2.73200928e-13,13.8612929 Z" id="Path-12" fill="#FFE683"></path>
                <path d="M0,66.9652311 C23.5050661,75.3822061 40.7682183,79.5906936 51.7894566,79.5906936 C68.3213139,79.5906936 66.1812325,64.1772681 76.8945312,66.9652311 C87.60783,69.7531941 74.1213803,88.0258823 87.2306915,88.8137028 C100.340003,89.6015232 114.319094,70.7272363 129.284711,70.1136844 C139.261789,69.7046498 147.833552,70.8495907 155,73.5485073 L155,105.531202 C141.037775,98.2912653 129.654766,95.6808209 120.850972,97.6998691 C107.645282,100.728441 95.7911174,114.689991 82.1180428,114.689991 C68.4449682,114.689991 77.5775048,92.1592661 70.9662598,90.8415364 C64.3550147,89.5238068 73.1833179,110.587842 51.7894566,108.645006 C37.5268823,107.349783 20.2637301,99.267079 0,84.3968951 L0,66.9652311 Z" id="Path-13" fill="#FFE683"></path>
                <path d="M155,110.83332 C142.029462,101.147163 131.267141,98.9400887 122.713038,104.212096 C109.881883,112.120106 113.842047,122.460655 103.485262,124.385839 C93.1284765,126.311022 92.5406114,116.730222 77.5,117.959191 C62.4593886,119.18816 59.1880085,128.32012 49.450344,125.526174 C39.7126796,122.732227 39.652822,113.753646 31.135328,107.598262 C25.4569987,103.494673 15.078556,102.365951 0,104.212096 L0,145.857186 C7.87634579,132.883116 15.9413583,128.239423 24.1950375,131.926109 C36.5755562,137.456137 39.970145,148.064888 49.450344,149.743945 C58.9305431,151.423002 62.2094373,143.751344 77.5,143.751344 C92.7905627,143.751344 99.6642706,152.779855 113.486463,148.2656 C127.308655,143.751344 126.805073,138.010652 135.544193,131.926109 C141.370273,127.869747 147.855542,131.012894 155,141.35555 L155,110.83332 Z" id="Path-14" fill="#FFE683"></path>
            </g>
            <g id="Group-14-Copy-3" transform="translate(697.500000, 1007.500000) rotate(-270.000000) translate(-697.500000, -1007.500000) translate(620.000000, 930.000000)">
                <rect id="Rectangle-Copy-20" fill="#FFA23A" x="0" y="0" width="155" height="155"></rect>
                <path d="M0,13.8612929 C22.0163271,30.739103 38.7776331,37.8086873 50.2839177,35.0700459 C67.5433448,30.9620839 55.2635933,0.713841616 72.1431148,6.10603684 C89.0226363,11.4982321 95.0952005,37.9838078 117.727296,35.0700459 C132.81536,33.127538 145.239594,24.7882988 155,10.0523283 L155,46.8538991 C127.383565,65.9582407 107.919728,76.1500789 96.6084916,77.4294138 C79.6416363,79.3484161 86.523811,46.3601931 76.8945313,44.1491661 C67.2652515,41.9381392 74.1901776,72.2868638 50.2839177,72.2868638 C34.3464111,72.2868638 17.5851052,67.8165656 0,58.875969 L0,13.8612929 Z" id="Path-12" fill="#EE481E"></path>
                <path d="M0,66.9652311 C23.5050661,75.3822061 40.7682183,79.5906936 51.7894566,79.5906936 C68.3213139,79.5906936 66.1812325,64.1772681 76.8945312,66.9652311 C87.60783,69.7531941 74.1213803,88.0258823 87.2306915,88.8137028 C100.340003,89.6015232 114.319094,70.7272363 129.284711,70.1136844 C139.261789,69.7046498 147.833552,70.8495907 155,73.5485073 L155,105.531202 C141.037775,98.2912653 129.654766,95.6808209 120.850972,97.6998691 C107.645282,100.728441 95.7911174,114.689991 82.1180428,114.689991 C68.4449682,114.689991 77.5775048,92.1592661 70.9662598,90.8415364 C64.3550147,89.5238068 73.1833179,110.587842 51.7894566,108.645006 C37.5268823,107.349783 20.2637301,99.267079 0,84.3968951 L0,66.9652311 Z" id="Path-13" fill="#EE481E"></path>
                <path d="M155,110.83332 C142.029462,101.147163 131.267141,98.9400887 122.713038,104.212096 C109.881883,112.120106 113.842047,122.460655 103.485262,124.385839 C93.1284765,126.311022 92.5406114,116.730222 77.5,117.959191 C62.4593886,119.18816 59.1880085,128.32012 49.450344,125.526174 C39.7126796,122.732227 39.652822,113.753646 31.135328,107.598262 C25.4569987,103.494673 15.078556,102.365951 4.54747351e-13,104.212096 L4.54747351e-13,145.857186 C7.87634579,132.883116 15.9413583,128.239423 24.1950375,131.926109 C36.5755562,137.456137 39.970145,148.064888 49.450344,149.743945 C58.9305431,151.423002 62.2094373,143.751344 77.5,143.751344 C92.7905627,143.751344 99.6642706,152.779855 113.486463,148.2656 C127.308655,143.751344 126.805073,138.010652 135.544193,131.926109 C141.370273,127.869747 147.855542,131.012894 155,141.35555 L155,110.83332 Z" id="Path-14" fill="#EE481E"></path>
            </g>
            <g id="Group-17" transform="translate(930.000000, 310.000000)">
                <rect id="Rectangle-Copy-20" fill="#FEEFCF" x="0" y="0.0310306656" width="155" height="154.937939"></rect>
                <path d="M145.387597,111.811446 L145.387597,145.360415 L-9.6124031,145.360415 L-9.6124031,111.811446 L145.387597,111.811446 Z M145.387597,87.4121954 L145.387597,108.761539 L-9.6124031,108.761539 L-9.6124031,87.4121954 L145.387597,87.4121954 Z M145.387597,61.487992 L145.387597,79.7874297 L-9.6124031,79.7874297 L-9.6124031,61.487992 L145.387597,61.487992 Z M145.387597,35.5637885 L145.387597,49.2883668 L-9.6124031,49.2883668 L-9.6124031,35.5637885 L145.387597,35.5637885 Z M145.449683,9.639585 L145.449683,18.7893039 L-9.55031691,18.7893039 L-9.55031691,9.639585 L145.449683,9.639585 Z" id="Combined-Shape" fill="#F1A726" transform="translate(67.918640, 77.500000) rotate(-270.000000) translate(-67.918640, -77.500000) "></path>
            </g>
            <g id="Group-3-Copy-3" transform="translate(465.000000, 465.000000)">
                <rect id="Rectangle-Copy-6" fill="#FFBF4C" x="2.28426331e-13" y="0" width="155" height="155"></rect>
                <rect id="Rectangle" fill="#EF5F00" x="4.56852663e-13" y="0" width="72.0930233" height="155"></rect>
                <path d="M155,135.775194 C155,135.775194 155,19.2248062 155,19.2248062 C122.815499,19.2248062 96.7248062,45.3154992 96.7248062,77.5 C96.7248062,109.684501 122.815499,135.775194 155,135.775194 Z" id="Oval" fill="#EF5F00"></path>
            </g>
            <g id="Group-3-Copy" transform="translate(930.000000, 1240.000000)">
                <rect id="Rectangle-Copy-6" fill="#FFBF4C" x="2.28426331e-13" y="0" width="155" height="155"></rect>
                <rect id="Rectangle" fill="#EF5F00" x="4.56852663e-13" y="0" width="72.0930233" height="155"></rect>
                <path d="M155,135.775194 C155,135.775194 155,19.2248062 155,19.2248062 C122.815499,19.2248062 96.7248062,45.3154992 96.7248062,77.5 C96.7248062,109.684501 122.815499,135.775194 155,135.775194 Z" id="Oval" fill="#EF5F00"></path>
            </g>
            <g id="Group-18-Copy-6" transform="translate(465.000000, 775.000000)">
                <rect id="Rectangle-Copy-20" fill="#EF7E00" x="0" y="0" width="155" height="155"></rect>
                <polygon id="Rectangle" fill="#F1A726" points="0 0 155 0 0 155"></polygon>
                <polygon id="Rectangle" fill="#F9E131" points="0 0 102.131783 0 0 102.131783"></polygon>
                <polygon id="Rectangle" fill="#FCF19B" transform="translate(103.934109, 103.934109) scale(-1, -1) translate(-103.934109, -103.934109) " points="52.8682171 52.8682171 155 52.8682171 52.8682171 155"></polygon>
            </g>
            <g id="Group-13-Copy-5" transform="translate(465.000000, 1085.000000)">
                <rect id="Rectangle-Copy-20" fill="#FEEFCF" x="0" y="0" width="155" height="155"></rect>
                <path d="M0,155 C2.76213332,103.669865 7.76472624,73.3481542 15.0077787,64.0348669 C25.8723575,50.064936 47.6301406,84.1989433 62.7500869,74.3144623 C77.8700333,64.4299812 62.946405,35.6307764 74.4726033,25.1604611 C85.9988016,14.6901458 92.7102156,33.9850254 114.715321,27.1096188 C129.385391,22.5260144 142.813618,13.4894748 155,0 L155,155 L0,155 Z" id="Path-7" fill="#EF5F00"></path>
                <path d="M155,155 L0,155 C7.69405817,122.780874 17.6693715,103.060229 29.9259399,95.838065 C48.3107925,85.0048188 65.7003819,117.585564 82.3460652,106.477707 C98.9917485,95.3698502 83.9390539,63.7037482 95.1910217,52.2859208 C106.442989,40.8680933 118.444413,67.4152895 135.750641,52.2859208 C147.288127,42.1996749 153.70458,24.7710347 155,0 L155,155 Z" id="Path-5" fill="#EF7E00"></path>
                <path d="M0,155 C4.12738681,144.918229 14.76138,137.976053 31.9019796,134.173472 C57.612879,128.469601 68.5421783,150.421669 93.8781258,134.173472 C119.214073,117.925275 103.688252,86.3617231 113.313441,81.9634873 C122.93863,77.5652515 132.742851,113.399281 143.767913,111.376304 C151.117955,110.027652 154.861984,97.6737047 155,74.3144623 L155,155 L0,155 Z" id="Path-6" fill="#F1A726"></path>
            </g>
            <g id="Group-15-Copy" transform="translate(620.000000, 1240.000000)">
                <rect id="Rectangle-Copy-20" fill="#FEEFCF" x="0" y="0" width="155" height="155"></rect>
                <rect id="Rectangle" fill="#EF5F00" x="0" y="73.2945736" width="155" height="81.7054264"></rect>
                <path d="M0,111.369255 L19.8466843,93.7900719 C22.224171,91.6842152 25.2903168,90.52155 28.4663324,90.52155 L142,90.52155 C149.179702,90.52155 155,84.7012517 155,77.52155 L155,44.0824332 L155,44.0824332 L149.365432,69.6136065 C148.050796,75.5704429 142.771082,79.8120048 136.670904,79.8120048 L24.9351522,79.8120048 C20.1785839,79.8120048 15.8017798,82.4097718 13.5234538,86.5851967 L0,111.369255 L0,111.369255 Z" id="Path-8" fill="#F9E131"></path>
                <path d="M0,111.369255 L13.5232688,86.5897887 C15.8017351,82.4148235 20.1782858,79.8174204 24.9345178,79.8174204 L136.670563,79.8174204 C142.770896,79.8174204 148.050701,75.5756472 149.36518,69.6186173 L155,44.0824332 L155,44.0824332 L144.370978,62.5977619 C142.058411,66.6261614 137.772181,69.1146001 133.1272,69.1255162 L18.5891414,69.3946898 C12.3388988,69.4093784 6.98379927,73.8698817 5.83944145,80.0144886 L0,111.369255 L0,111.369255 Z" id="Path-8-Copy" fill="#EFC10A"></path>
                <path d="M0,111.369255 L5.83944145,80.0144886 C6.98379927,73.8698817 12.3388988,69.4093784 18.5891414,69.3946898 L133.1272,69.1255162 C137.772181,69.1146001 142.058411,66.6261614 144.370978,62.5977619 L155,44.0824332 L155,44.0824332 L136.31418,56.5297645 C134.17953,57.9517351 131.671942,58.7104705 129.107039,58.7104705 L13,58.7104705 C5.82029825,58.7104705 4.44981064e-15,64.5307687 0,71.7104705 L0,111.369255 L0,111.369255 Z" id="Path-8-Copy-2" fill="#F1A726"></path>
            </g>
            <g id="Group-15-Copy-4" transform="translate(155.000000, 1085.000000)">
                <rect id="Rectangle-Copy-20" fill="#FEEFCF" x="0" y="0" width="155" height="155"></rect>
                <rect id="Rectangle" fill="#EF5F00" x="0" y="73.2945736" width="155" height="81.7054264"></rect>
                <path d="M0,111.369255 L19.8466843,93.7900719 C22.224171,91.6842152 25.2903168,90.52155 28.4663324,90.52155 L142,90.52155 C149.179702,90.52155 155,84.7012517 155,77.52155 L155,44.0824332 L155,44.0824332 L149.365432,69.6136065 C148.050796,75.5704429 142.771082,79.8120048 136.670904,79.8120048 L24.9351522,79.8120048 C20.1785839,79.8120048 15.8017798,82.4097718 13.5234538,86.5851967 L0,111.369255 L0,111.369255 Z" id="Path-8" fill="#F9E131"></path>
                <path d="M0,111.369255 L13.5232688,86.5897887 C15.8017351,82.4148235 20.1782858,79.8174204 24.9345178,79.8174204 L136.670563,79.8174204 C142.770896,79.8174204 148.050701,75.5756472 149.36518,69.6186173 L155,44.0824332 L155,44.0824332 L144.370978,62.5977619 C142.058411,66.6261614 137.772181,69.1146001 133.1272,69.1255162 L18.5891414,69.3946898 C12.3388988,69.4093784 6.98379927,73.8698817 5.83944145,80.0144886 L0,111.369255 L0,111.369255 Z" id="Path-8-Copy" fill="#EFC10A"></path>
                <path d="M0,111.369255 L5.83944145,80.0144886 C6.98379927,73.8698817 12.3388988,69.4093784 18.5891414,69.3946898 L133.1272,69.1255162 C137.772181,69.1146001 142.058411,66.6261614 144.370978,62.5977619 L155,44.0824332 L155,44.0824332 L136.31418,56.5297645 C134.17953,57.9517351 131.671942,58.7104705 129.107039,58.7104705 L13,58.7104705 C5.82029825,58.7104705 4.44981064e-15,64.5307687 0,71.7104705 L0,111.369255 L0,111.369255 Z" id="Path-8-Copy-2" fill="#F1A726"></path>
            </g>
            <g id="Group-14-Copy-2" transform="translate(310.000000, 1240.000000)">
                <rect id="Rectangle-Copy-20" fill="#EE481E" x="0" y="0" width="155" height="155"></rect>
                <path d="M-2.27373675e-13,13.8612929 C22.0163271,30.739103 38.7776331,37.8086873 50.2839177,35.0700459 C67.5433448,30.9620839 55.2635933,0.713841616 72.1431148,6.10603684 C89.0226363,11.4982321 95.0952005,37.9838078 117.727296,35.0700459 C132.81536,33.127538 145.239594,24.7882988 155,10.0523283 L155,46.8538991 C127.383565,65.9582407 107.919728,76.1500789 96.6084916,77.4294138 C79.6416363,79.3484161 86.523811,46.3601931 76.8945313,44.1491661 C67.2652515,41.9381392 74.1901776,72.2868638 50.2839177,72.2868638 C34.3464111,72.2868638 17.5851052,67.8165656 -2.27373675e-13,58.875969 L-2.27373675e-13,13.8612929 Z" id="Path-12" fill="#F7972B"></path>
                <path d="M0,66.9652311 C23.5050661,75.3822061 40.7682183,79.5906936 51.7894566,79.5906936 C68.3213139,79.5906936 66.1812325,64.1772681 76.8945312,66.9652311 C87.60783,69.7531941 74.1213803,88.0258823 87.2306915,88.8137028 C100.340003,89.6015232 114.319094,70.7272363 129.284711,70.1136844 C139.261789,69.7046498 147.833552,70.8495907 155,73.5485073 L155,105.531202 C141.037775,98.2912653 129.654766,95.6808209 120.850972,97.6998691 C107.645282,100.728441 95.7911174,114.689991 82.1180428,114.689991 C68.4449682,114.689991 77.5775048,92.1592661 70.9662598,90.8415364 C64.3550147,89.5238068 73.1833179,110.587842 51.7894566,108.645006 C37.5268823,107.349783 20.2637301,99.267079 0,84.3968951 L0,66.9652311 Z" id="Path-13" fill="#F7972B"></path>
                <path d="M155,110.83332 C142.029462,101.147163 131.267141,98.9400887 122.713038,104.212096 C109.881883,112.120106 113.842047,122.460655 103.485262,124.385839 C93.1284765,126.311022 92.5406114,116.730222 77.5,117.959191 C62.4593886,119.18816 59.1880085,128.32012 49.450344,125.526174 C39.7126796,122.732227 39.652822,113.753646 31.135328,107.598262 C25.4569987,103.494673 15.078556,102.365951 0,104.212096 L0,145.857186 C7.87634579,132.883116 15.9413583,128.239423 24.1950375,131.926109 C36.5755562,137.456137 39.970145,148.064888 49.450344,149.743945 C58.9305431,151.423002 62.2094373,143.751344 77.5,143.751344 C92.7905627,143.751344 99.6642706,152.779855 113.486463,148.2656 C127.308655,143.751344 126.805073,138.010652 135.544193,131.926109 C141.370273,127.869747 147.855542,131.012894 155,141.35555 L155,110.83332 Z" id="Path-14" fill="#F7972B"></path>
            </g>
        </g>
    </g>
</svg>