<?xml version="1.0" encoding="UTF-8"?>
<svg width="812px" height="1080px" viewBox="0 0 812 1080" version="1.1" xmlns="http://www.w3.org/2000/svg" xmlns:xlink="http://www.w3.org/1999/xlink">
    <title>aaa-loginpage-illu</title>
    <defs>
        <rect id="path-1" x="0" y="0" width="135" height="135"></rect>
        <rect id="path-3" x="0" y="0" width="135" height="135"></rect>
        <rect id="path-5" x="0" y="0" width="135" height="135"></rect>
    </defs>
    <g id="sketch" stroke="none" stroke-width="1" fill="none" fill-rule="evenodd">
        <g id="aaa-loginpage-illu" transform="translate(0.840602, 0.000000)">
            <g id="Group-22-Copy" transform="translate(67.666812, 1012.333188) rotate(-270.000000) translate(-67.666812, -1012.333188) translate(0.166812, 944.666377)">
                <rect id="Rectangle-Copy-3" fill="#FEEFCF" x="0" y="0.333623461" width="135" height="135"></rect>
                <path d="M0,0.333623461 C18.3635808,17.7491009 29.1484554,31.9766312 32.3546239,43.0162145 C37.1638765,59.5755894 15.3800998,64.8958949 23.1358414,79.9957044 C30.891583,95.095514 54.4120084,87.2297651 61.5411614,99.8400726 C66.2939301,108.246944 63.9204643,120.078128 54.420764,135.333623 L135,135.333623 L135,0.333623461 L0,0.333623461 Z" id="Path-15" fill="#EFC10A"></path>
                <path d="M28.0196749,0.333623461 C44.5669437,12.2066586 56.4103009,22.9279012 63.5497465,32.4973511 C74.2589149,46.851526 47.2297703,66.4745699 56.2307824,75.7032932 C65.2317944,84.9320165 92.5063823,62.3044401 99.5672497,69.4260397 C106.628117,76.5476392 86.5708504,97.1860074 86.2475788,105.978271 C85.9243073,114.770535 96.8972907,115.406728 97.6370571,121.922963 C98.1302347,126.26712 95.4446136,130.73734 89.5801938,135.333623 L135,135.333623 L135,0.333623461 L28.0196749,0.333623461 Z" id="Path-16" fill="#EF7E00"></path>
                <path d="M55.0960935,0.333623461 L135,0.333623461 L135,135.333623 L115.594939,135.333623 C122.291665,128.300081 125.640029,120.356364 125.640029,111.502473 C125.640029,98.221636 118.174908,91.5048306 115.594939,72.1954592 C113.014969,52.8860877 123.145592,36.0582599 117.998527,29.8448674 C112.851461,23.6314749 103.771563,52.1342524 95.0181174,47.355699 C86.2646713,42.5771456 93.4163316,23.1373287 82.7952191,10.627192 C75.7144775,2.2871009 66.4814356,-1.14408862 55.0960935,0.333623461 Z" id="Path-17" fill="#EF5F00"></path>
            </g>
            <g id="Group" transform="translate(0.166812, 675.000000)">
                <rect id="Rectangle-Copy-4" fill="#FCF19B" x="0" y="0" width="135" height="135"></rect>
                <rect id="Rectangle" fill="#EF5F00" x="20.9302326" y="0" width="21.9767442" height="135"></rect>
                <rect id="Rectangle-Copy-5" fill="#EF7E00" x="56.5116279" y="0" width="21.9767442" height="135"></rect>
                <rect id="Rectangle-Copy-15" fill="#F1A726" x="92.0930233" y="0" width="21.9767442" height="135"></rect>
            </g>
            <g id="Group-14-Copy-5" transform="translate(540.166812, 945.000000)">
                <rect id="Rectangle-Copy-20" fill="#EE481E" x="0" y="0" width="135" height="135"></rect>
                <path d="M-4.7589839e-13,12.0727389 C19.1755107,26.7727671 33.7740675,32.930147 43.7956703,30.5448787 C58.8280745,26.9669763 48.1328071,0.62173302 62.8343258,5.31816112 C77.5358445,10.0145892 82.824852,33.0826713 102.536677,30.5448787 C115.677894,28.853017 126.499002,21.5898086 135,8.75525369 L135,40.8082347 C110.946976,57.4475 93.9946022,66.3242623 84.1428798,67.4385217 C69.3652962,69.1099108 75.3594483,40.3782327 66.9726562,38.4524995 C58.5858642,36.5267664 64.6172515,62.9595266 43.7956703,62.9595266 C29.9146162,62.9595266 15.3160594,59.066041 -4.7589839e-13,51.2790698 L-4.7589839e-13,12.0727389 Z" id="Path-12" fill="#F1A726"></path>
                <path d="M0,58.3245561 C20.4721544,65.6554698 35.5078031,69.3209267 45.106946,69.3209267 C59.5056605,69.3209267 57.6417186,55.8963303 66.9726562,58.3245561 C76.3035939,60.752782 64.5573312,76.6677039 75.9751184,77.3538701 C87.3929056,78.0400363 99.5682428,61.6011413 112.602812,61.0667574 C121.292526,60.7105014 128.758255,61.7077081 135,64.0583773 L135,91.914273 C122.839353,85.6085214 112.925119,83.3349086 105.257298,85.0934344 C93.755568,87.7312231 83.4309732,99.8912827 71.5221663,99.8912827 C59.6133594,99.8912827 67.5675042,80.2677479 61.809323,79.1200478 C56.0511418,77.9723478 63.7403092,96.3184428 45.106946,94.6262958 C32.6847039,93.4981978 17.6490553,86.4584236 0,73.5069732 L0,58.3245561 Z" id="Path-13" fill="#F1A726"></path>
                <path d="M135,96.5322462 C123.70308,88.0959165 114.329445,86.1736256 106.879097,90.7653736 C95.7035752,97.6529956 99.1527509,106.65928 90.1323249,108.336053 C81.1118989,110.012826 80.5998874,101.668258 67.5,102.73865 C54.4001126,103.809042 51.5508461,111.762685 43.0696545,109.329248 C34.5884629,106.895811 34.5363289,99.0757561 27.1178663,93.7146155 C22.1722247,90.1405218 13.1329359,89.1574411 0,90.7653736 L0,127.036904 C6.86004311,115.736907 13.8844088,111.692401 21.0730971,114.903385 C31.8561296,119.719861 34.8127069,128.959741 43.0696545,130.422146 C51.3266021,131.88455 54.1824131,125.202784 67.5,125.202784 C80.8175869,125.202784 86.8043647,133.066325 98.8430485,129.134554 C110.881732,125.202784 110.443128,120.202826 118.05462,114.903385 C123.128947,111.370424 128.777407,114.108004 135,123.116124 L135,96.5322462 Z" id="Path-14" fill="#F1A726"></path>
            </g>
            <g id="Group-9-Copy" transform="translate(337.666812, 1012.500000) scale(-1, 1) translate(-337.666812, -1012.500000) translate(270.166812, 945.000000)">
                <rect id="Rectangle-Copy-33" fill="#F1A726" x="0" y="0" width="135" height="135"></rect>
                <polygon id="Rectangle-Copy-46" fill="#EF7E00" points="0 0 135 0 0 135"></polygon>
                <polygon id="Rectangle-Copy-47" fill="#EE481E" points="0 0 88.9534884 0 0 88.9534884"></polygon>
                <polygon id="Rectangle-Copy-48" fill="#FFF18C" transform="translate(90.523256, 90.523256) scale(-1, -1) translate(-90.523256, -90.523256) " points="46.0465116 46.0465116 135 46.0465116 46.0465116 135"></polygon>
            </g>
            <rect id="Rectangle-Copy-3" fill="#FEEFCF" x="270.166812" y="135" width="135" height="135"></rect>
            <g id="Group" transform="translate(675.166812, 0.000000)">
                <rect id="Rectangle-Copy-4" fill="#FCF19B" x="0" y="0" width="135" height="135"></rect>
                <rect id="Rectangle" fill="#EF5F00" x="20.9302326" y="0" width="21.9767442" height="135"></rect>
                <rect id="Rectangle-Copy-5" fill="#EF7E00" x="56.5116279" y="0" width="21.9767442" height="135"></rect>
                <rect id="Rectangle-Copy-15" fill="#F1A726" x="92.0930233" y="0" width="21.9767442" height="135"></rect>
            </g>
            <g id="Oval-Copy" transform="translate(675.166812, 270.000000)">
                <mask id="mask-2" fill="white">
                    <use xlink:href="#path-1"></use>
                </mask>
                <use id="Mask" fill="#F9E131" xlink:href="#path-1"></use>
                <path d="M135,159.593023 C135,159.593023 135,150.044939 135,135.296636 C135,100.372443 135,36.2880634 135,0.777130431 C135,-14.5798439 135,-24.5930233 135,-24.5930233 C84.1384277,-24.5930233 42.9069767,16.6384277 42.9069767,67.5 C42.9069767,118.361572 84.1384277,159.593023 135,159.593023 Z" fill="#EF7E00" mask="url(#mask-2)"></path>
            </g>
            <rect id="Rectangle-Copy-6" fill="#FFBF4C" x="675.166812" y="540" width="135" height="135"></rect>
            <rect id="Rectangle" fill="#EF5F00" x="675.166812" y="540" width="62.7906977" height="135"></rect>
            <path d="M810.166812,658.255814 C810.166812,658.255814 810.166812,556.744186 810.166812,556.744186 C782.13515,556.744186 759.410998,579.468338 759.410998,607.5 C759.410998,635.531662 782.13515,658.255814 810.166812,658.255814 Z" id="Oval" fill="#EF5F00"></path>
            <path d="M810.166812,388.255814 C810.166812,388.255814 810.166812,286.744186 810.166812,286.744186 C782.13515,286.744186 759.410998,309.468338 759.410998,337.5 C759.410998,365.531662 782.13515,388.255814 810.166812,388.255814 Z" id="Oval-Copy" fill="#EE481E"></path>
            <g id="Group-18" transform="translate(675.166812, 810.000000)">
                <rect id="Rectangle-Copy-20" fill="#EF7E00" x="0" y="0" width="135" height="135"></rect>
                <polygon id="Rectangle" fill="#F1A726" points="0 0 135 0 0 135"></polygon>
                <polygon id="Rectangle" fill="#F9E131" points="0 0 88.9534884 0 0 88.9534884"></polygon>
                <polygon id="Rectangle" fill="#FCF19B" transform="translate(90.523256, 90.523256) scale(-1, -1) translate(-90.523256, -90.523256) " points="46.0465116 46.0465116 135 46.0465116 46.0465116 135"></polygon>
            </g>
            <g id="Group-16" transform="translate(540.166812, 675.000000)">
                <rect id="Rectangle-Copy-20" fill="#EE481E" x="0" y="0" width="135" height="135"></rect>
                <rect id="Rectangle-Copy-8" fill="#FEEFCF" x="0" y="111.976744" width="135" height="23.0232558"></rect>
                <rect id="Rectangle-Copy-9" fill="#FEEFCF" x="0" y="95.2325581" width="135" height="14.6511628"></rect>
                <rect id="Rectangle-Copy-10" fill="#FEEFCF" x="0" y="77.4418605" width="135" height="12.5581395"></rect>
                <rect id="Rectangle-Copy-11" fill="#FEEFCF" x="0" y="59.6511628" width="135" height="9.41860465"></rect>
                <rect id="Rectangle-Copy-12" fill="#FEEFCF" x="0.0540750689" y="41.8604651" width="135" height="6.27906977"></rect>
                <rect id="Rectangle-Copy-13" fill="#FEEFCF" x="0" y="25.1162791" width="135" height="3.13953488"></rect>
            </g>
            <g id="Group-15" transform="translate(405.166812, 810.000000)">
                <rect id="Rectangle-Copy-20" fill="#FEEFCF" x="0" y="0" width="135" height="135"></rect>
                <rect id="Rectangle" fill="#EF5F00" x="0" y="63.8372093" width="135" height="71.1627907"></rect>
                <path d="M0,96.9990285 L16.8096771,82.1098719 C19.1871638,80.0040152 22.2533096,78.84135 25.4293252,78.84135 L122,78.84135 C129.179702,78.84135 135,73.0210517 135,65.84135 L135,38.3943773 L135,38.3943773 L130.382889,59.3152833 C129.068253,65.2721197 123.788539,69.5136816 117.688361,69.5136816 L22.7133128,69.5136816 C17.9567445,69.5136816 13.5799404,72.1114486 11.3016144,76.2868735 L0,96.9990285 L0,96.9990285 Z" id="Path-8" fill="#F9E131"></path>
                <path d="M0,96.9990285 L11.3014295,76.2907668 C13.5798958,72.1158015 17.9564465,69.5183984 22.7126785,69.5183984 L117.68802,69.5183984 C123.788353,69.5183984 129.068157,65.2766253 130.382637,59.3195953 L135,38.3943773 L135,38.3943773 L126.224689,53.6806167 C123.912121,57.7090162 119.625892,60.1974549 114.98091,60.208371 L17.5810727,60.4372684 C11.3308301,60.451957 5.97573058,64.9124603 4.83137276,71.0570672 L0,96.9990285 L0,96.9990285 Z" id="Path-8-Copy" fill="#EFC10A"></path>
                <path d="M0,96.9990285 L4.83137276,71.0570672 C5.97573058,64.9124603 11.3308301,60.451957 17.5810727,60.4372684 L114.98091,60.208371 C119.625892,60.1974549 123.912121,57.7090162 126.224689,53.6806167 L135,38.3943773 L135,38.3943773 L119.14766,48.9542199 C117.013011,50.3761905 114.505423,51.1349259 111.94052,51.1349259 L13,51.1349259 C5.82029825,51.1349259 4.44981064e-15,56.9552242 0,64.1349259 L0,96.9990285 L0,96.9990285 Z" id="Path-8-Copy-2" fill="#F1A726"></path>
            </g>
            <g id="Group-Copy-2" transform="translate(405.166812, 270.000000)">
                <mask id="mask-4" fill="white">
                    <use xlink:href="#path-3"></use>
                </mask>
                <use id="Mask" fill="#FEEFCF" xlink:href="#path-3"></use>
                <rect id="Rectangle" fill="#F1A726" mask="url(#mask-4)" x="0" y="63.8372093" width="135" height="71.1627907"></rect>
                <g mask="url(#mask-4)" stroke-linejoin="round" stroke-width="20">
                    <g transform="translate(-46.569767, 28.713958)">
                        <polyline id="Path-2" stroke="#EFC10A" points="1.18974598e-12 38.1976744 106.22093 38.1976744 147.308104 0 204.729688 0"></polyline>
                        <polyline id="Path-2-Copy" stroke="#EF7E00" points="4.13929115e-15 58.0813953 115.713968 58.0813953 156.473477 19.0988372 204.729688 19.0988372"></polyline>
                        <polyline id="Path-2-Copy-2" stroke="#ED4217" points="1.25117216e-12 77.9651163 124.965765 77.9651163 164.538442 38.9825581 204.729688 38.9825581"></polyline>
                    </g>
                </g>
            </g>
            <g id="Group-Copy-3" transform="translate(202.666812, 607.500000) rotate(-180.000000) translate(-202.666812, -607.500000) translate(135.166812, 540.000000)">
                <mask id="mask-6" fill="white">
                    <use xlink:href="#path-5"></use>
                </mask>
                <use id="Mask" fill="#FFF8C4" xlink:href="#path-5"></use>
                <g id="Group-Copy-2" mask="url(#mask-6)" stroke-linejoin="round" stroke-width="20">
                    <g transform="translate(-46.569767, 28.713958)">
                        <polyline id="Path-2" stroke="#EFC10A" points="1.18974598e-12 38.1976744 106.22093 38.1976744 147.308104 0 204.729688 0"></polyline>
                        <polyline id="Path-2-Copy" stroke="#EF7E00" points="4.13929115e-15 58.0813953 115.713968 58.0813953 156.473477 19.0988372 204.729688 19.0988372"></polyline>
                        <polyline id="Path-2-Copy-2" stroke="#ED4217" points="1.25117216e-12 77.9651163 124.965765 77.9651163 164.538442 38.9825581 204.729688 38.9825581"></polyline>
                    </g>
                </g>
            </g>
            <g id="Group-13" transform="translate(405.166812, 540.000000)">
                <rect id="Rectangle-Copy-20" fill="#FEEFCF" x="0" y="0" width="135" height="135"></rect>
                <path d="M0,135 C2.40572902,90.2931084 6.76282608,63.8838762 13.0712912,55.7723034 C22.5339888,43.6049442 41.484316,73.3345635 54.6533015,64.7254994 C67.8222871,56.1164353 54.8242882,31.0332569 64.8632351,21.91395 C74.902182,12.7946431 80.7476072,29.5998609 99.9133441,23.6116035 C112.690502,19.6194319 124.386054,11.7488974 135,0 L135,135 L0,135 Z" id="Path-7" fill="#EF5F00"></path>
                <path d="M135,135 L0,135 C6.70127647,106.938181 15.3894526,89.7621351 26.0645283,83.4718631 C42.0771418,74.0364551 57.2229132,102.413233 71.7207665,92.7386483 C86.2186197,83.0640631 73.1082083,55.4839097 82.9083092,45.5393503 C92.7084102,35.5947909 103.161263,58.7165425 118.234429,45.5393503 C128.283207,36.7545556 133.871731,21.5747721 135,0 L135,135 Z" id="Path-5" fill="#EF7E00"></path>
                <path d="M0,135 C3.59482077,126.219103 12.8566858,120.172691 27.7855952,116.860766 C50.1789591,111.892878 59.6980263,131.012421 81.7648193,116.860766 C103.831612,102.709111 90.3091228,75.218275 98.6923517,71.3875534 C107.075581,67.5568319 115.614741,98.767116 125.217215,97.0051677 C131.618864,95.8305355 134.879792,85.070646 135,64.7254994 L135,135 L0,135 Z" id="Path-6" fill="#F1A726"></path>
            </g>
            <g id="Group-12" transform="translate(270.166812, 675.000000)">
                <rect id="Rectangle-Copy-20" fill="#FFFFC6" x="0" y="0" width="135" height="135"></rect>
                <circle id="Oval" fill="#FFD736" cx="73.255814" cy="61.744186" r="51.2790698"></circle>
                <circle id="Oval" fill="#F68236" cx="87.9069767" cy="47.0930233" r="36.627907"></circle>
                <circle id="Oval" fill="#EE481E" cx="105.697674" cy="29.3023256" r="18.8372093"></circle>
            </g>
            <g id="Group-14" transform="translate(135.166812, 810.000000)">
                <rect id="Rectangle-Copy-20" fill="#F1A726" x="0" y="0" width="135" height="135"></rect>
                <path d="M-2.37949195e-13,12.0727389 C19.1755107,26.7727671 33.7740675,32.930147 43.7956703,30.5448787 C58.8280745,26.9669763 48.1328071,0.62173302 62.8343258,5.31816112 C77.5358445,10.0145892 82.824852,33.0826713 102.536677,30.5448787 C115.677894,28.853017 126.499002,21.5898086 135,8.75525369 L135,40.8082347 C110.946976,57.4475 93.9946022,66.3242623 84.1428798,67.4385217 C69.3652962,69.1099108 75.3594483,40.3782327 66.9726563,38.4524995 C58.5858642,36.5267664 64.6172515,62.9595266 43.7956703,62.9595266 C29.9146162,62.9595266 15.3160594,59.066041 -2.37949195e-13,51.2790698 L-2.37949195e-13,12.0727389 Z" id="Path-12" fill="#FFE683"></path>
                <path d="M0,58.3245561 C20.4721544,65.6554698 35.5078031,69.3209267 45.106946,69.3209267 C59.5056605,69.3209267 57.6417186,55.8963303 66.9726562,58.3245561 C76.3035939,60.752782 64.5573312,76.6677039 75.9751184,77.3538701 C87.3929056,78.0400363 99.5682428,61.6011413 112.602812,61.0667574 C121.292526,60.7105014 128.758255,61.7077081 135,64.0583773 L135,91.914273 C122.839353,85.6085214 112.925119,83.3349086 105.257298,85.0934344 C93.755568,87.7312231 83.4309732,99.8912827 71.5221663,99.8912827 C59.6133594,99.8912827 67.5675042,80.2677479 61.809323,79.1200478 C56.0511418,77.9723478 63.7403092,96.3184428 45.106946,94.6262958 C32.6847039,93.4981978 17.6490553,86.4584236 0,73.5069732 L0,58.3245561 Z" id="Path-13" fill="#FFE683"></path>
                <path d="M135,96.5322462 C123.70308,88.0959165 114.329445,86.1736256 106.879097,90.7653736 C95.7035752,97.6529956 99.1527509,106.65928 90.1323249,108.336053 C81.1118989,110.012826 80.5998874,101.668258 67.5,102.73865 C54.4001126,103.809042 51.5508461,111.762685 43.0696545,109.329248 C34.5884629,106.895811 34.5363289,99.0757561 27.1178663,93.7146155 C22.1722247,90.1405218 13.1329359,89.1574411 0,90.7653736 L0,127.036904 C6.86004311,115.736907 13.8844088,111.692401 21.0730971,114.903385 C31.8561296,119.719861 34.8127069,128.959741 43.0696545,130.422146 C51.3266021,131.88455 54.1824131,125.202784 67.5,125.202784 C80.8175869,125.202784 86.8043647,133.066325 98.8430485,129.134554 C110.881732,125.202784 110.443128,120.202826 118.05462,114.903385 C123.128947,111.370424 128.777407,114.108004 135,123.116124 L135,96.5322462 Z" id="Path-14" fill="#FFE683"></path>
            </g>
            <g id="Group-17" transform="translate(270.166812, 404.972962)">
                <rect id="Rectangle-Copy-20" fill="#FEEFCF" x="0" y="0.0270375345" width="135" height="135"></rect>
                <path d="M126.627907,97.4231703 L126.627907,126.654945 L-8.37209302,126.654945 L-8.37209302,97.4231703 L126.627907,97.4231703 Z M126.627907,76.1636981 L126.627907,94.7657363 L-8.37209302,94.7657363 L-8.37209302,76.1636981 L126.627907,76.1636981 Z M126.627907,53.5755089 L126.627907,69.5201131 L-8.37209302,69.5201131 L-8.37209302,53.5755089 L126.627907,53.5755089 Z M126.627907,30.9873197 L126.627907,42.9457728 L-8.37209302,42.9457728 L-8.37209302,30.9873197 L126.627907,30.9873197 Z M126.681982,8.39913056 L126.681982,16.3714326 L-8.31801795,16.3714326 L-8.31801795,8.39913056 L126.681982,8.39913056 Z" id="Combined-Shape" fill="#F1A726" transform="translate(59.154945, 67.527038) rotate(-270.000000) translate(-59.154945, -67.527038) "></path>
            </g>
            <g id="Group-9" transform="translate(607.666812, 472.500000) scale(-1, 1) translate(-607.666812, -472.500000) translate(540.166812, 405.000000)">
                <rect id="Rectangle-Copy-33" fill="#F1A726" x="0" y="0" width="135" height="135"></rect>
                <polygon id="Rectangle-Copy-46" fill="#EF7E00" points="0 0 135 0 0 135"></polygon>
                <polygon id="Rectangle-Copy-47" fill="#EE481E" points="0 0 88.9534884 0 0 88.9534884"></polygon>
                <polygon id="Rectangle-Copy-48" fill="#FFF18C" transform="translate(90.523256, 90.523256) scale(-1, -1) translate(-90.523256, -90.523256) " points="46.0465116 46.0465116 135 46.0465116 46.0465116 135"></polygon>
            </g>
            <path d="M270.166812,135 C288.530393,152.415477 299.315267,166.643008 302.521436,177.682591 C307.330688,194.241966 285.546912,199.562271 293.302653,214.662081 C301.058395,229.761891 324.57882,221.896142 331.707973,234.506449 C336.460742,242.913321 334.087276,254.744504 324.587576,270 L405.166812,270 L405.166812,135 L270.166812,135 Z" id="Path-15" fill="#EFC10A"></path>
            <path d="M298.186487,135 C314.733755,146.873035 326.577113,157.594278 333.716558,167.163728 C344.425727,181.517902 317.396582,201.140946 326.397594,210.36967 C335.398606,219.598393 362.673194,196.970817 369.734061,204.092416 C376.794929,211.214016 356.737662,231.852384 356.414391,240.644648 C356.091119,249.436911 367.064102,250.073104 367.803869,256.58934 C368.297046,260.933497 365.611425,265.403717 359.747006,270 L405.166812,270 L405.166812,135 L298.186487,135 Z" id="Path-16" fill="#EF7E00"></path>
            <path d="M325.262905,135 L405.166812,135 L405.166812,270 L385.76175,270 C392.458477,262.966457 395.80684,255.02274 395.80684,246.168849 C395.80684,232.888013 388.34172,226.171207 385.76175,206.861836 C383.181781,187.552464 393.312404,170.724636 388.165338,164.511244 C383.018273,158.297851 373.938375,186.800629 365.184929,182.022076 C356.431483,177.243522 363.583143,157.803705 352.962031,145.293569 C345.881289,136.953477 336.648247,133.522288 325.262905,135 Z" id="Path-17" fill="#EF5F00"></path>
        </g>
    </g>
</svg>