<?xml version="1.0" encoding="UTF-8"?>
<svg width="645px" height="903px" viewBox="0 0 645 903" version="1.1" xmlns="http://www.w3.org/2000/svg" xmlns:xlink="http://www.w3.org/1999/xlink">
    <title>loginpage-illu</title>
    <defs>
        <rect id="path-1" x="0" y="0" width="129" height="129"></rect>
        <rect id="path-3" x="0" y="0" width="129" height="129"></rect>
        <rect id="path-5" x="0" y="0" width="129" height="129"></rect>
    </defs>
    <g id="sketch" stroke="none" stroke-width="1" fill="none" fill-rule="evenodd">
        <g id="Landing-page-Copy" transform="translate(-687.000000, -26.000000)">
            <g id="loginpage-illu" transform="translate(687.000000, 26.000000)">
                <rect id="Rectangle-Copy-3" fill="#feefcf" x="129" y="129" width="129" height="129"></rect>
                <g id="Group" transform="translate(516.000000, 0.000000)">
                    <rect id="Rectangle-Copy-4" fill="#FCF19B" x="0" y="0" width="129" height="129"></rect>
                    <rect id="Rectangle" fill="#EF5F00" x="20" y="0" width="21" height="129"></rect>
                    <rect id="Rectangle-Copy-5" fill="#EF7E00" x="54" y="0" width="21" height="129"></rect>
                    <rect id="Rectangle-Copy-15" fill="#F1A726" x="88" y="0" width="21" height="129"></rect>
                </g>
                <g id="Oval-Copy" transform="translate(516.000000, 258.000000)">
                    <mask id="mask-2" fill="white">
                        <use xlink:href="#path-1"></use>
                    </mask>
                    <use id="Mask" fill="#F9E131" xlink:href="#path-1"></use>
                    <path d="M129,152.5 C129,152.5 129,143.376275 129,129.283452 C129,95.9114459 129,34.6752606 129,0.742591301 C129,-13.9318508 129,-23.5 129,-23.5 C80.398942,-23.5 41,15.898942 41,64.5 C41,113.101058 80.398942,152.5 129,152.5 Z" fill="#EF7E00" mask="url(#mask-2)"></path>
                </g>
                <rect id="Rectangle-Copy-6" fill="#FFBF4C" x="516" y="516" width="129" height="129"></rect>
                <rect id="Rectangle" fill="#EF5F00" x="516" y="516" width="60" height="129"></rect>
                <path d="M645,629 C645,629 645,532 645,532 C618.21419,532 596.5,553.71419 596.5,580.5 C596.5,607.28581 618.21419,629 645,629 Z" id="Oval" fill="#EF5F00"></path>
                <path d="M645,371 C645,371 645,274 645,274 C618.21419,274 596.5,295.71419 596.5,322.5 C596.5,349.28581 618.21419,371 645,371 Z" id="Oval-Copy" fill="#EE481E"></path>
                <g id="Group-18" transform="translate(516.000000, 774.000000)">
                    <rect id="Rectangle-Copy-20" fill="#EF7E00" x="0" y="0" width="129" height="129"></rect>
                    <polygon id="Rectangle" fill="#F1A726" points="0 0 129 0 0 129"></polygon>
                    <polygon id="Rectangle" fill="#F9E131" points="0 0 85 0 0 85"></polygon>
                    <polygon id="Rectangle" fill="#FCF19B" transform="translate(86.500000, 86.500000) scale(-1, -1) translate(-86.500000, -86.500000) " points="44 44 129 44 44 129"></polygon>
                </g>
                <g id="Group-16" transform="translate(387.000000, 645.000000)">
                    <rect id="Rectangle-Copy-20" fill="#EE481E" x="0" y="0" width="129" height="129"></rect>
                    <rect id="Rectangle-Copy-8" fill="#feefcf" x="0" y="107" width="129" height="22"></rect>
                    <rect id="Rectangle-Copy-9" fill="#feefcf" x="0" y="91" width="129" height="14"></rect>
                    <rect id="Rectangle-Copy-10" fill="#feefcf" x="0" y="74" width="129" height="12"></rect>
                    <rect id="Rectangle-Copy-11" fill="#feefcf" x="0" y="57" width="129" height="9"></rect>
                    <rect id="Rectangle-Copy-12" fill="#feefcf" x="0.0516717325" y="40" width="129" height="6"></rect>
                    <rect id="Rectangle-Copy-13" fill="#feefcf" x="0" y="24" width="129" height="3"></rect>
                </g>
                <g id="Group-15" transform="translate(258.000000, 774.000000)">
                    <rect id="Rectangle-Copy-20" fill="#feefcf" x="0" y="0" width="129" height="129"></rect>
                    <rect id="Rectangle" fill="#EF5F00" x="0" y="61" width="129" height="68"></rect>
                    <path d="M0,92.6879606 L15.8985749,78.6058119 C18.2760616,76.4999552 21.3422075,75.33729 24.5182231,75.33729 L116,75.33729 C123.179702,75.33729 129,69.5169917 129,62.33729 L129,36.6879606 L129,36.6879606 L124.688126,56.2257864 C123.37349,62.1826228 118.093776,66.4241846 111.993598,66.4241846 L22.046761,66.4241846 C17.2901927,66.4241846 12.9133887,69.0219517 10.6350626,73.1973765 L0,92.6879606 L0,92.6879606 Z" id="Path-8" fill="#F9E131"></path>
                    <path d="M0,92.6879606 L10.6348777,73.2010602 C12.913344,69.0260949 17.2898947,66.4286918 22.0461267,66.4286918 L111.993257,66.4286918 C118.09359,66.4286918 123.373394,62.1869187 124.687874,56.2298887 L129,36.6879606 L129,36.6879606 L120.780802,51.0054732 C118.468234,55.0338726 114.182005,57.5223114 109.537024,57.5332274 L17.2786521,57.750042 C11.0284095,57.7647306 5.67330998,62.2252339 4.52895215,68.3698408 L0,92.6879606 L0,92.6879606 Z" id="Path-8-Copy" fill="#ffcc00"></path>
                    <path d="M0,92.6879606 L4.52895215,68.3698408 C5.67330998,62.2252339 11.0284095,57.7647306 17.2786521,57.750042 L109.537024,57.5332274 C114.182005,57.5223114 118.468234,55.0338726 120.780802,51.0054732 L129,36.6879606 L129,36.6879606 L113.997705,46.6815566 C111.863055,48.1035271 109.355467,48.8622625 106.790564,48.8622625 L13,48.8622625 C5.82029825,48.8622625 2.6734538e-15,54.6825608 0,61.8622625 L0,92.6879606 L0,92.6879606 Z" id="Path-8-Copy-2" fill="#F1A726"></path>
                </g>
                <g id="Group-Copy-2" transform="translate(258.000000, 258.000000)">
                    <mask id="mask-4" fill="white">
                        <use xlink:href="#path-3"></use>
                    </mask>
                    <use id="Mask" fill="#feefcf" xlink:href="#path-3"></use>
                    <rect id="Rectangle" fill="#F1A726" mask="url(#mask-4)" x="0" y="61" width="129" height="68"></rect>
                    <g mask="url(#mask-4)" stroke-linejoin="round" stroke-width="20">
                        <g transform="translate(-44.500000, 27.437782)">
                            <polyline id="Path-2" stroke="#ffcc00" points="1.13686838e-12 36.5 101.5 36.5 140.761077 0 195.630591 0"></polyline>
                            <polyline id="Path-2-Copy" stroke="#EF7E00" points="3.95532265e-15 55.5 110.571125 55.5 149.5191 18.25 195.630591 18.25"></polyline>
                            <polyline id="Path-2-Copy-2" stroke="#ED4217" points="1.19556451e-12 74.5 119.411731 74.5 157.225622 37.25 195.630591 37.25"></polyline>
                        </g>
                    </g>
                </g>
                <g id="Group-Copy-3" transform="translate(64.500000, 580.500000) rotate(-180.000000) translate(-64.500000, -580.500000) translate(0.000000, 516.000000)">
                    <mask id="mask-6" fill="white">
                        <use xlink:href="#path-5"></use>
                    </mask>
                    <use id="Mask" fill="#FFF18C" xlink:href="#path-5"></use>
                    <g id="Group-Copy-2" mask="url(#mask-6)" stroke-linejoin="round" stroke-width="20">
                        <g transform="translate(-44.500000, 27.437782)">
                            <polyline id="Path-2" stroke="#ffcc00" points="1.13686838e-12 36.5 101.5 36.5 140.761077 0 195.630591 0"></polyline>
                            <polyline id="Path-2-Copy" stroke="#EF7E00" points="3.95532265e-15 55.5 110.571125 55.5 149.5191 18.25 195.630591 18.25"></polyline>
                            <polyline id="Path-2-Copy-2" stroke="#ED4217" points="1.19556451e-12 74.5 119.411731 74.5 157.225622 37.25 195.630591 37.25"></polyline>
                        </g>
                    </g>
                </g>
                <g id="Group-13" transform="translate(258.000000, 516.000000)">
                    <rect id="Rectangle-Copy-20" fill="#feefcf" x="0" y="0" width="129" height="129"></rect>
                    <path d="M0,129 C2.29880773,86.2800814 6.46225603,61.0445928 12.4903449,53.2935344 C21.5324782,41.6669467 39.6405686,70.0752496 52.2242659,61.8488105 C64.8079632,53.6223715 52.3876532,29.654001 61.9804247,20.9399967 C71.5731961,12.2259923 77.1588246,28.2843115 95.472751,22.5621989 C107.682035,18.7474571 118.857785,11.2267242 129,0 L129,129 L0,129 Z" id="Path-7" fill="#EF5F00"></path>
                    <path d="M129,129 L0,129 C6.40344196,102.185373 14.7054769,85.7727068 24.9061048,79.7620025 C40.2070466,70.7459459 54.6796727,97.8615342 68.5331768,88.6169306 C82.386681,79.3723269 69.8589546,53.0179582 79.2234955,43.5153792 C88.5880364,34.0128002 98.5763177,56.1069184 112.979566,43.5153792 C122.581731,35.1210198 127.921876,20.6158934 129,0 L129,129 Z" id="Path-5" fill="#EF7E00"></path>
                    <path d="M0,129 C3.43505096,120.609365 12.2852776,114.831683 26.5506798,111.666954 C47.9487832,106.919861 57.0447807,125.189647 78.1308273,111.666954 C99.2168739,98.1442615 86.295384,71.8752405 94.306025,68.2147733 C102.316666,64.554306 110.476308,94.3774664 119.652005,92.6938269 C125.769137,91.5714006 128.885135,81.2897284 129,61.8488105 L129,129 L0,129 Z" id="Path-6" fill="#F1A726"></path>
                </g>
                <g id="Group-12" transform="translate(129.000000, 645.000000)">
                    <rect id="Rectangle-Copy-20" fill="#FFFFC6" x="0" y="0" width="129" height="129"></rect>
                    <circle id="Oval" fill="#FFD736" cx="70" cy="59" r="49"></circle>
                    <circle id="Oval" fill="#F68236" cx="84" cy="45" r="35"></circle>
                    <circle id="Oval" fill="#EE481E" cx="101" cy="28" r="18"></circle>
                </g>
                <g id="Group-14" transform="translate(0.000000, 774.000000)">
                    <rect id="Rectangle-Copy-20" fill="#F1A726" x="0" y="0" width="129" height="129"></rect>
                    <path d="M-2.27373675e-13,11.5361728 C18.3232658,25.5828663 32.2729978,31.4665849 41.8491961,29.1873286 C56.2134934,25.768444 45.9935712,0.594100442 60.0416891,5.0817984 C74.089807,9.56949636 79.1437475,31.6123304 97.9794916,29.1873286 C110.536654,27.5706607 120.876824,20.6302616 129,8.36613131 L129,38.9945354 C106.015999,54.8942777 89.8170644,63.3765173 80.4031963,64.441254 C66.2823941,66.0383592 72.0101394,38.5836445 63.9960938,36.7434996 C55.9820481,34.9033546 61.7453737,60.1613254 41.8491961,60.1613254 C28.5850777,60.1613254 14.6353456,56.4408836 -2.27373675e-13,49 L-2.27373675e-13,11.5361728 Z" id="Path-12" fill="#FFE683"></path>
                    <path d="M0,55.7323536 C19.5622809,62.7374489 33.9296785,66.2399966 43.1021929,66.2399966 C56.8609645,66.2399966 55.0798645,53.4120489 63.9960937,55.7323536 C72.912323,58.0526583 61.6881165,73.2602504 72.5984465,73.9159204 C83.5087765,74.5715903 95.1429876,58.8633128 107.598243,58.3526793 C115.901747,58.0122569 123.035666,58.9651433 129,61.2113383 L129,87.8291942 C117.379826,81.8036982 107.906225,79.6311348 100.579196,81.311504 C89.5886539,83.8320576 79.72293,95.4516701 68.3434034,95.4516701 C56.9638768,95.4516701 64.564504,76.7002924 59.062242,75.6036013 C53.55998,74.5069102 60.9074065,92.0376231 43.1021929,90.4206827 C31.2320504,89.3427224 16.8646528,82.615827 0,70.2399966 L0,55.7323536 Z" id="Path-13" fill="#FFE683"></path>
                    <path d="M129,92.2419242 C118.205165,84.1805424 109.248137,82.3436867 102.128915,86.731357 C91.450083,93.3128625 94.745962,101.918868 86.1264438,103.521117 C77.5069256,105.123367 77.0176702,97.149669 64.5,98.1724881 C51.9823298,99.1953071 49.2596974,106.795455 41.1554476,104.47017 C33.0511978,102.144886 33.0013809,94.6723891 25.9126278,89.5495215 C21.1867924,86.1342764 12.5492498,85.1948882 0,86.731357 L0,121.390819 C6.5551523,110.593045 13.267324,106.728294 20.136515,109.796568 C30.4403016,114.398979 33.2654755,123.228197 41.1554476,124.625606 C49.0454198,126.023015 51.7743059,119.638216 64.5,119.638216 C77.2256941,119.638216 82.946393,127.152266 94.4500241,123.395241 C105.953655,119.638216 105.534545,114.860478 112.807748,109.796568 C117.65655,106.420628 123.053967,109.036537 129,117.644296 L129,92.2419242 Z" id="Path-14" fill="#FFE683"></path>
                </g>
                <g id="Group-17" transform="translate(129.000000, 386.974164)">
                    <rect id="Rectangle-Copy-20" fill="#feefcf" x="0" y="0.0258358663" width="129" height="129"></rect>
                    <path d="M121,93.0932516 L121,121.025836 L-8,121.025836 L-8,93.0932516 L121,93.0932516 Z M121,72.7786449 L121,90.5539258 L-8,90.5539258 L-8,72.7786449 L121,72.7786449 Z M121,51.1943752 L121,66.4303302 L-8,66.4303302 L-8,51.1943752 L121,51.1943752 Z M121,29.6101055 L121,41.0370718 L-8,41.0370718 L-8,29.6101055 L121,29.6101055 Z M121.051672,8.02583587 L121.051672,15.6438134 L-7.94832827,15.6438134 L-7.94832827,8.02583587 L121.051672,8.02583587 Z" id="Combined-Shape" fill="#F1A726" transform="translate(56.525836, 64.525836) rotate(-270.000000) translate(-56.525836, -64.525836) "></path>
                </g>
                <g id="Group-9" transform="translate(451.500000, 451.500000) scale(-1, 1) translate(-451.500000, -451.500000) translate(387.000000, 387.000000)">
                    <rect id="Rectangle-Copy-33" fill="#F1A726" x="0" y="0" width="129" height="129"></rect>
                    <polygon id="Rectangle-Copy-46" fill="#EF7E00" points="0 0 129 0 0 129"></polygon>
                    <polygon id="Rectangle-Copy-47" fill="#EE481E" points="0 0 85 0 0 85"></polygon>
                    <polygon id="Rectangle-Copy-48" fill="#FFF18C" transform="translate(86.500000, 86.500000) scale(-1, -1) translate(-86.500000, -86.500000) " points="44 44 129 44 44 129"></polygon>
                </g>
                <path d="M129,129 C146.547422,145.641456 156.852969,159.236652 159.916641,169.785587 C164.512149,185.60899 143.69654,190.692837 151.107582,205.121544 C158.518624,219.550251 180.993697,212.034091 187.805999,224.08394 C192.347533,232.117173 190.079555,243.422526 181.002063,258 L258,258 L258,129 L129,129 Z" id="Path-15" fill="#ffcc00"></path>
                <path d="M155.774356,129 C171.586191,140.345345 182.903176,150.590088 189.725313,159.734229 C199.958519,173.45044 174.130669,192.201349 182.731636,201.019907 C191.332604,209.838464 217.394987,188.216558 224.142039,195.021642 C230.88909,201.826726 211.723257,221.547834 211.414353,229.94933 C211.105449,238.350826 221.590744,238.958744 222.297632,245.185369 C222.768891,249.336452 220.202631,253.607996 214.598852,258 L258,258 L258,129 L155.774356,129 Z" id="Path-16" fill="#EF7E00"></path>
                <path d="M181.647378,129 L258,129 L258,258 L239.457386,258 C245.85648,251.279059 249.056027,243.688396 249.056027,235.228011 C249.056027,222.537434 241.92269,216.119153 239.457386,197.667976 C236.992082,179.216799 246.672455,163.136875 241.754148,157.199633 C236.835841,151.262391 228.159494,178.498379 219.79509,173.932206 C211.430686,169.366032 218.264495,150.790207 208.115432,138.836077 C201.34939,130.866656 192.526705,127.587964 181.647378,129 Z" id="Path-17" fill="#EF5F00"></path>
            </g>
        </g>
    </g>
</svg>