<?xml version="1.0" encoding="UTF-8"?>
<svg width="18px" height="15px" viewBox="0 0 18 15" version="1.1" xmlns="http://www.w3.org/2000/svg" xmlns:xlink="http://www.w3.org/1999/xlink">
    <title>admin-crown</title>
    <g id="Symbols" stroke="none" stroke-width="1" fill="none" fill-rule="evenodd">
        <path d="M1.13183101,2.44475389 L4.45179861,9.61588067 C4.56781258,9.86647072 4.86500385,9.97556619 5.11559389,9.85955223 C5.23363939,9.80490151 5.32573916,9.70639727 5.37234268,9.58494954 L8.5751846,1.23841573 C8.67411577,0.980603324 8.96331358,0.851804638 9.22112598,0.95073581 C9.35539242,1.0022583 9.46097292,1.10909913 9.51089858,1.24396748 L12.5918358,9.56675957 C12.6877008,9.82572774 12.97535,9.95794895 13.2343181,9.86208393 C13.3576864,9.81641537 13.4580868,9.72396782 13.5137582,9.6047787 L16.8705603,2.41806366 C16.9874227,2.16786816 17.2849819,2.05978033 17.5351774,2.17664273 C17.7220896,2.26394649 17.8361945,2.45708199 17.8224719,2.66292127 L17.1244641,13.133038 C17.0544244,14.1836337 16.1818216,15 15.1288938,15 L2.87110618,15 C1.81817844,15 0.94557558,14.1836337 0.875535868,13.133038 L0.179205017,2.68807525 C0.160836299,2.41254449 0.369307328,2.17429189 0.644838091,2.15592317 C0.851294977,2.14215938 1.04490104,2.25698523 1.13183101,2.44475389 Z" id="admin-crown" fill="#F42323"></path>
    </g>
</svg>