<?xml version="1.0" encoding="UTF-8"?>
<svg width="20px" height="21px" viewBox="0 0 20 21" version="1.1" xmlns="http://www.w3.org/2000/svg" xmlns:xlink="http://www.w3.org/1999/xlink">
    <title>block</title>
    <g id="UI" stroke="none" stroke-width="1" fill="none" fill-rule="evenodd">
        <g id="Chat-mes-groupes-Copy" transform="translate(-1066.000000, -640.000000)" fill="#EF7E00">
            <g id="block" transform="translate(1064.000000, 638.000000)">
                <path d="M11.9263687,2.51806722 C17.3842415,2.51806722 21.8087217,6.94254734 21.8087217,12.4004202 C21.8087217,17.858293 17.3842415,22.2827731 11.9263687,22.2827731 C6.46849589,22.2827731 2.04401577,17.858293 2.04401577,12.4004202 C2.04401577,6.94254734 6.46849589,2.51806722 11.9263687,2.51806722 Z M17.7607519,9.09217872 L8.61812728,18.2348033 C9.59430535,18.7895133 10.723342,19.1063025 11.9263687,19.1063025 C15.6299253,19.1063025 18.6322511,16.1039767 18.6322511,12.4004202 C18.6322511,11.1973934 18.3154618,10.0683568 17.7607519,9.09217872 Z M11.9263687,5.6945378 C8.22281216,5.6945378 5.22048636,8.6968636 5.22048636,12.4004202 C5.22048636,13.6191242 5.5455859,14.7618972 6.11379281,15.7467469 L15.2726954,6.58784425 C14.2878457,6.01963734 13.1450727,5.6945378 11.9263687,5.6945378 Z" id="Combined-Shape"></path>
            </g>
        </g>
    </g>
</svg>