<?xml version="1.0" encoding="UTF-8"?>
<svg width="32px" height="28px" viewBox="0 0 32 28" version="1.1" xmlns="http://www.w3.org/2000/svg" xmlns:xlink="http://www.w3.org/1999/xlink">
    <title>burger-close</title>
    <g id="burger-close" stroke="none" stroke-width="1" fill="none" fill-rule="evenodd">
        <path d="M8.26776695,2.73223305 L16.046,10.511 L23.8241161,2.73223305 C24.8004269,1.75592232 26.3833393,1.75592232 27.35965,2.73223305 C28.3359608,3.70854378 28.3359608,5.29145622 27.35965,6.26776695 L19.581,14.046 L27.35965,21.8241161 C28.3359608,22.8004269 28.3359608,24.3833393 27.35965,25.35965 C26.3833393,26.3359608 24.8004269,26.3359608 23.8241161,25.35965 L16.046,17.581 L8.26776695,25.35965 C7.29145622,26.3359608 5.70854378,26.3359608 4.73223305,25.35965 C3.75592232,24.3833393 3.75592232,22.8004269 4.73223305,21.8241161 L12.511,14.046 L4.73223305,6.26776695 C3.75592232,5.29145622 3.75592232,3.70854378 4.73223305,2.73223305 C5.70854378,1.75592232 7.29145622,1.75592232 8.26776695,2.73223305 Z" id="Combined-Shape" fill="#FEEFCF"></path>
    </g>
</svg>