<?xml version="1.0" encoding="UTF-8"?>
<svg width="21px" height="20px" viewBox="0 0 21 20" version="1.1" xmlns="http://www.w3.org/2000/svg" xmlns:xlink="http://www.w3.org/1999/xlink">
    <title>Group 8</title>
    <g id="UI" stroke="none" stroke-width="1" fill="none" fill-rule="evenodd">
        <g id="Chat-creer-un-groupe" transform="translate(-1200.000000, -497.000000)">
            <g id="Group-2" transform="translate(863.000000, 180.000000)">
                <g id="Group-8" transform="translate(337.650000, 317.000000)">
                    <circle id="Oval" fill="#343330" cx="9.85" cy="9.5" r="9.5"></circle>
                    <path d="M9.89949494,2.89949494 C10.4517797,2.89949494 10.8994949,3.34721019 10.8994949,3.89949494 L10.8994949,8.89949494 L15.8994949,8.89949494 C16.4517797,8.89949494 16.8994949,9.34721019 16.8994949,9.89949494 C16.8994949,10.4517797 16.4517797,10.8994949 15.8994949,10.8994949 L10.8994949,10.8994949 L10.8994949,15.8994949 C10.8994949,16.4517797 10.4517797,16.8994949 9.89949494,16.8994949 C9.34721019,16.8994949 8.89949494,16.4517797 8.89949494,15.8994949 L8.89949494,10.8994949 L3.89949494,10.8994949 C3.34721019,10.8994949 2.89949494,10.4517797 2.89949494,9.89949494 C2.89949494,9.34721019 3.34721019,8.89949494 3.89949494,8.89949494 L8.89949494,8.89949494 L8.89949494,3.89949494 C8.89949494,3.34721019 9.34721019,2.89949494 9.89949494,2.89949494 Z" id="Combined-Shape" fill="#EE481E" transform="translate(9.899495, 9.899495) rotate(-45.000000) translate(-9.899495, -9.899495) "></path>
                </g>
            </g>
        </g>
    </g>
</svg>