<?xml version="1.0" encoding="UTF-8"?>
<svg width="28px" height="28px" viewBox="0 0 28 28" version="1.1" xmlns="http://www.w3.org/2000/svg" xmlns:xlink="http://www.w3.org/1999/xlink">
    <title>edit</title>
    <g id="UI" stroke="none" stroke-width="1" fill="none" fill-rule="evenodd">
        <g id="Chat-mes-groupes-Copy-2" transform="translate(-790.000000, -258.000000)" fill="#ee481e">
            <path d="M807.165083,286.808562 C807.441225,286.808562 807.665083,287.03242 807.665083,287.308562 L807.665083,287.308562 L807.665083,289.308562 C807.665083,289.584705 807.441225,289.808562 807.165083,289.808562 L807.165083,289.808562 L798.165083,289.808562 C797.88894,289.808562 797.665083,289.584705 797.665083,289.308562 L797.665083,289.308562 L797.665083,287.308562 C797.665083,287.03242 797.88894,286.808562 798.165083,286.808562 L798.165083,286.808562 Z M807.165083,264.808562 C807.441225,264.808562 807.665083,265.03242 807.665083,265.308562 L807.665083,284.308562 C807.665083,284.584705 807.441225,284.808562 807.165083,284.808562 L798.165083,284.808562 C797.88894,284.808562 797.665083,284.584705 797.665083,284.308562 L797.665083,265.308562 C797.665083,265.03242 797.88894,264.808562 798.165083,264.808562 L807.165083,264.808562 Z M802.343293,257.256508 C802.554646,257.078789 802.870053,257.106054 803.047772,257.317408 L803.047772,257.317408 L806.97407,261.986773 C807.049838,262.07688 807.09138,262.190833 807.09138,262.308562 C807.09138,262.584705 806.867522,262.808562 806.59138,262.808562 L806.59138,262.808562 L798.738785,262.808562 C798.621056,262.808562 798.507103,262.76702 798.416995,262.691252 C798.205642,262.513532 798.178376,262.198126 798.356095,261.986773 L798.356095,261.986773 L802.282393,257.317408 C802.300903,257.295394 802.321279,257.275019 802.343293,257.256508 Z" id="edit" transform="translate(802.665083, 273.473874) rotate(-135.000000) translate(-802.665083, -273.473874) "></path>
        </g>
    </g>
</svg>