<?xml version="1.0" encoding="UTF-8"?>
<svg width="2151px" height="1039px" viewBox="0 0 2151 1039" version="1.1" xmlns="http://www.w3.org/2000/svg" xmlns:xlink="http://www.w3.org/1999/xlink">
    <title>error404</title>
    <defs>
        <rect id="path-1" x="0" y="0" width="129" height="129"></rect>
        <rect id="path-3" x="0" y="0" width="129" height="129"></rect>
    </defs>
    <g id="sketch" stroke="none" stroke-width="1" fill="none" fill-rule="evenodd">
        <g id="error404" transform="translate(-0.000000, 0.000000)">
            <g id="Group-21" transform="translate(1893.000000, 391.681204)">
                <rect id="Rectangle-Copy-54" fill="#feefcf" x="0" y="0.318795752" width="129" height="129"></rect>
                <path d="M0,0.318795752 C17.5474217,16.960252 27.8529685,30.5554476 30.9166406,41.1043827 C35.5121486,56.9277854 14.6965398,62.0116329 22.1075818,76.4403398 C29.5186237,90.8690467 51.9936969,83.3528867 58.8059987,95.4027361 C63.3475332,103.435969 61.0795548,114.741322 52.0020634,129.318796 L129,129.318796 L129,0.318795752 L0,0.318795752 Z" id="Path-15-Copy" fill="#ffcc00"></path>
                <path d="M26.774356,0.318795752 C42.5861906,11.6641405 53.9031764,21.9088833 60.7253133,31.0530244 C70.9585187,44.7692359 45.1306694,63.5201446 53.7316365,72.3387024 C62.3326035,81.1572602 88.3949875,59.5353539 95.1420386,66.3404379 C101.88909,73.1455219 82.7232571,92.8666293 82.4143531,101.268126 C82.1054492,109.669622 92.5907444,110.27754 93.2976323,116.504165 C93.7688909,120.655248 91.2026308,124.926792 85.5988519,129.318796 L129,129.318796 L129,0.318795752 L26.774356,0.318795752 Z" id="Path-16-Copy" fill="#EF7E00"></path>
                <path d="M52.6473782,0.318795752 L129,0.318795752 L129,129.318796 L110.457386,129.318796 C116.85648,122.597855 120.056027,115.007192 120.056027,106.546807 C120.056027,93.8562299 112.92269,87.4379492 110.457386,68.9867721 C107.992082,50.535595 117.672455,34.4556705 112.754148,28.5184288 C107.835841,22.5811871 99.159494,49.8171745 90.7950899,45.2510013 C82.4306859,40.684828 89.2644946,22.109003 79.1154316,10.1548724 C72.3493896,2.18545197 63.5267051,-1.09324024 52.6473782,0.318795752 Z" id="Path-17-Copy" fill="#EF5F00"></path>
            </g>
            <g id="Group-19" transform="translate(258.000000, 521.000000)">
                <rect id="Rectangle-Copy-55" fill="#FFBF4C" x="-4.54747351e-13" y="0" width="129" height="129"></rect>
                <rect id="Rectangle-Copy-56" fill="#EF5F00" x="-4.54747351e-13" y="0" width="60" height="129"></rect>
                <path d="M129,113 C129,113 129,16 129,16 C102.21419,16 80.5,37.7141896 80.5,64.5 C80.5,91.2858104 102.21419,113 129,113 Z" id="Oval-Copy-13" fill="#EF5F00"></path>
            </g>
            <g id="Group-18-Copy" transform="translate(258.000000, 779.000000)">
                <rect id="Rectangle-Copy-20" fill="#EF7E00" x="0" y="0" width="129" height="129"></rect>
                <polygon id="Rectangle" fill="#F1A726" points="0 0 129 0 0 129"></polygon>
                <polygon id="Rectangle" fill="#F9E131" points="0 0 85 0 0 85"></polygon>
                <polygon id="Rectangle" fill="#FCF19B" transform="translate(86.500000, 86.500000) scale(-1, -1) translate(-86.500000, -86.500000) " points="44 44 129 44 44 129"></polygon>
            </g>
            <g id="Group-16-Copy" transform="translate(129.000000, 650.000000)">
                <rect id="Rectangle-Copy-20" fill="#EE481E" x="0" y="0" width="129" height="129"></rect>
                <rect id="Rectangle-Copy-8" fill="#feefcf" x="0" y="107" width="129" height="22"></rect>
                <rect id="Rectangle-Copy-9" fill="#feefcf" x="0" y="91" width="129" height="14"></rect>
                <rect id="Rectangle-Copy-10" fill="#feefcf" x="0" y="74" width="129" height="12"></rect>
                <rect id="Rectangle-Copy-11" fill="#feefcf" x="0" y="57" width="129" height="9"></rect>
                <rect id="Rectangle-Copy-12" fill="#feefcf" x="0.0516717325" y="40" width="129" height="6"></rect>
                <rect id="Rectangle-Copy-13" fill="#feefcf" x="0" y="24" width="129" height="3"></rect>
            </g>
            <g id="Group-15-Copy" transform="translate(0.000000, 521.000000)">
                <rect id="Rectangle-Copy-20" fill="#feefcf" x="0" y="0" width="129" height="129"></rect>
                <rect id="Rectangle" fill="#EF5F00" x="0" y="61" width="129" height="68"></rect>
                <path d="M0,92.6879606 L15.8985749,78.6058119 C18.2760616,76.4999552 21.3422075,75.33729 24.5182231,75.33729 L116,75.33729 C123.179702,75.33729 129,69.5169917 129,62.33729 L129,36.6879606 L129,36.6879606 L124.688126,56.2257864 C123.37349,62.1826228 118.093776,66.4241846 111.993598,66.4241846 L22.046761,66.4241846 C17.2901927,66.4241846 12.9133887,69.0219517 10.6350626,73.1973765 L0,92.6879606 L0,92.6879606 Z" id="Path-8" fill="#F9E131"></path>
                <path d="M0,92.6879606 L10.6348777,73.2010602 C12.913344,69.0260949 17.2898947,66.4286918 22.0461267,66.4286918 L111.993257,66.4286918 C118.09359,66.4286918 123.373394,62.1869187 124.687874,56.2298887 L129,36.6879606 L129,36.6879606 L120.780802,51.0054732 C118.468234,55.0338726 114.182005,57.5223114 109.537024,57.5332274 L17.2786521,57.750042 C11.0284095,57.7647306 5.67330998,62.2252339 4.52895215,68.3698408 L0,92.6879606 L0,92.6879606 Z" id="Path-8-Copy" fill="#ffcc00"></path>
                <path d="M0,92.6879606 L4.52895215,68.3698408 C5.67330998,62.2252339 11.0284095,57.7647306 17.2786521,57.750042 L109.537024,57.5332274 C114.182005,57.5223114 118.468234,55.0338726 120.780802,51.0054732 L129,36.6879606 L129,36.6879606 L113.997705,46.6815566 C111.863055,48.1035271 109.355467,48.8622625 106.790564,48.8622625 L13,48.8622625 C5.82029825,48.8622625 2.6734538e-15,54.6825608 0,61.8622625 L0,92.6879606 L0,92.6879606 Z" id="Path-8-Copy-2" fill="#F1A726"></path>
            </g>
            <g id="Group-Copy-5" transform="translate(129.000000, 263.000000)">
                <mask id="mask-2" fill="white">
                    <use xlink:href="#path-1"></use>
                </mask>
                <use id="Mask" fill="#feefcf" xlink:href="#path-1"></use>
                <rect id="Rectangle" fill="#F1A726" mask="url(#mask-2)" x="0" y="61" width="129" height="68"></rect>
                <g id="Group-Copy-2" mask="url(#mask-2)" stroke-linejoin="round" stroke-width="20">
                    <g transform="translate(-44.500000, 27.437782)">
                        <polyline id="Path-2" stroke="#ffcc00" points="1.13686838e-12 36.5 101.5 36.5 140.761077 0 195.630591 0"></polyline>
                        <polyline id="Path-2-Copy" stroke="#EF7E00" points="3.95532265e-15 55.5 110.571125 55.5 149.5191 18.25 195.630591 18.25"></polyline>
                        <polyline id="Path-2-Copy-2" stroke="#ED4217" points="1.19556451e-12 74.5 119.411731 74.5 157.225622 37.25 195.630591 37.25"></polyline>
                    </g>
                </g>
            </g>
            <g id="Group-Copy-6" transform="translate(1828.500000, 843.500000) rotate(-180.000000) translate(-1828.500000, -843.500000) translate(1764.000000, 779.000000)">
                <mask id="mask-4" fill="white">
                    <use xlink:href="#path-3"></use>
                </mask>
                <use id="Mask" fill="#FFF18C" xlink:href="#path-3"></use>
                <g id="Group-Copy-2" mask="url(#mask-4)" stroke-linejoin="round" stroke-width="20">
                    <g transform="translate(-44.500000, 27.437782)">
                        <polyline id="Path-2" stroke="#ffcc00" points="1.13686838e-12 36.5 101.5 36.5 140.761077 0 195.630591 0"></polyline>
                        <polyline id="Path-2-Copy" stroke="#EF7E00" points="3.95532265e-15 55.5 110.571125 55.5 149.5191 18.25 195.630591 18.25"></polyline>
                        <polyline id="Path-2-Copy-2" stroke="#ED4217" points="1.19556451e-12 74.5 119.411731 74.5 157.225622 37.25 195.630591 37.25"></polyline>
                    </g>
                </g>
            </g>
            <g id="Group-13-Copy" transform="translate(2022.000000, 779.000000)">
                <rect id="Rectangle-Copy-20" fill="#feefcf" x="0" y="0" width="129" height="129"></rect>
                <path d="M0,129 C2.29880773,86.2800814 6.46225603,61.0445928 12.4903449,53.2935344 C21.5324782,41.6669467 39.6405686,70.0752496 52.2242659,61.8488105 C64.8079632,53.6223715 52.3876532,29.654001 61.9804247,20.9399967 C71.5731961,12.2259923 77.1588246,28.2843115 95.472751,22.5621989 C107.682035,18.7474571 118.857785,11.2267242 129,0 L129,129 L0,129 Z" id="Path-7" fill="#EF5F00"></path>
                <path d="M129,129 L0,129 C6.40344196,102.185373 14.7054769,85.7727068 24.9061048,79.7620025 C40.2070466,70.7459459 54.6796727,97.8615342 68.5331768,88.6169306 C82.386681,79.3723269 69.8589546,53.0179582 79.2234955,43.5153792 C88.5880364,34.0128002 98.5763177,56.1069184 112.979566,43.5153792 C122.581731,35.1210198 127.921876,20.6158934 129,0 L129,129 Z" id="Path-5" fill="#EF7E00"></path>
                <path d="M0,129 C3.43505096,120.609365 12.2852776,114.831683 26.5506798,111.666954 C47.9487832,106.919861 57.0447807,125.189647 78.1308273,111.666954 C99.2168739,98.1442615 86.295384,71.8752405 94.306025,68.2147733 C102.316666,64.554306 110.476308,94.3774664 119.652005,92.6938269 C125.769137,91.5714006 128.885135,81.2897284 129,61.8488105 L129,129 L0,129 Z" id="Path-6" fill="#F1A726"></path>
            </g>
            <g id="Group-14-Copy-6" transform="translate(1635.000000, 908.000000)">
                <rect id="Rectangle-Copy-20" fill="#F1A726" x="0" y="0" width="129" height="129"></rect>
                <path d="M-2.27373675e-13,11.5361728 C18.3232658,25.5828663 32.2729978,31.4665849 41.8491961,29.1873286 C56.2134934,25.768444 45.9935712,0.594100442 60.0416891,5.0817984 C74.089807,9.56949636 79.1437475,31.6123304 97.9794916,29.1873286 C110.536654,27.5706607 120.876824,20.6302616 129,8.36613131 L129,38.9945354 C106.015999,54.8942777 89.8170644,63.3765173 80.4031963,64.441254 C66.2823941,66.0383592 72.0101394,38.5836445 63.9960938,36.7434996 C55.9820481,34.9033546 61.7453737,60.1613254 41.8491961,60.1613254 C28.5850777,60.1613254 14.6353456,56.4408836 -2.27373675e-13,49 L-2.27373675e-13,11.5361728 Z" id="Path-12" fill="#FFE683"></path>
                <path d="M0,55.7323536 C19.5622809,62.7374489 33.9296785,66.2399966 43.1021929,66.2399966 C56.8609645,66.2399966 55.0798645,53.4120489 63.9960937,55.7323536 C72.912323,58.0526583 61.6881165,73.2602504 72.5984465,73.9159204 C83.5087765,74.5715903 95.1429876,58.8633128 107.598243,58.3526793 C115.901747,58.0122569 123.035666,58.9651433 129,61.2113383 L129,87.8291942 C117.379826,81.8036982 107.906225,79.6311348 100.579196,81.311504 C89.5886539,83.8320576 79.72293,95.4516701 68.3434034,95.4516701 C56.9638768,95.4516701 64.564504,76.7002924 59.062242,75.6036013 C53.55998,74.5069102 60.9074065,92.0376231 43.1021929,90.4206827 C31.2320504,89.3427224 16.8646528,82.615827 0,70.2399966 L0,55.7323536 Z" id="Path-13" fill="#FFE683"></path>
                <path d="M129,92.2419242 C118.205165,84.1805424 109.248137,82.3436867 102.128915,86.731357 C91.450083,93.3128625 94.745962,101.918868 86.1264438,103.521117 C77.5069256,105.123367 77.0176702,97.149669 64.5,98.1724881 C51.9823298,99.1953071 49.2596974,106.795455 41.1554476,104.47017 C33.0511978,102.144886 33.0013809,94.6723891 25.9126278,89.5495215 C21.1867924,86.1342764 12.5492498,85.1948882 0,86.731357 L0,121.390819 C6.5551523,110.593045 13.267324,106.728294 20.136515,109.796568 C30.4403016,114.398979 33.2654755,123.228197 41.1554476,124.625606 C49.0454198,126.023015 51.7743059,119.638216 64.5,119.638216 C77.2256941,119.638216 82.946393,127.152266 94.4500241,123.395241 C105.953655,119.638216 105.534545,114.860478 112.807748,109.796568 C117.65655,106.420628 123.053967,109.036537 129,117.644296 L129,92.2419242 Z" id="Path-14" fill="#FFE683"></path>
            </g>
            <g id="Group-17-Copy" transform="translate(1893.000000, 649.974164)">
                <rect id="Rectangle-Copy-20" fill="#feefcf" x="0" y="0.0258358663" width="129" height="129"></rect>
                <path d="M121,93.0932516 L121,121.025836 L-8,121.025836 L-8,93.0932516 L121,93.0932516 Z M121,72.7786449 L121,90.5539258 L-8,90.5539258 L-8,72.7786449 L121,72.7786449 Z M121,51.1943752 L121,66.4303302 L-8,66.4303302 L-8,51.1943752 L121,51.1943752 Z M121,29.6101055 L121,41.0370718 L-8,41.0370718 L-8,29.6101055 L121,29.6101055 Z M121.051672,8.02583587 L121.051672,15.6438134 L-7.94832827,15.6438134 L-7.94832827,8.02583587 L121.051672,8.02583587 Z" id="Combined-Shape" fill="#F1A726" transform="translate(56.525836, 64.525836) rotate(-270.000000) translate(-56.525836, -64.525836) "></path>
            </g>
            <g id="Group-9-Copy-4" transform="translate(838.500000, 972.500000) scale(-1, 1) translate(-838.500000, -972.500000) translate(774.000000, 908.000000)">
                <rect id="Rectangle-Copy-33" fill="#F1A726" x="0" y="0" width="129" height="129"></rect>
                <polygon id="Rectangle-Copy-46" fill="#EF7E00" points="0 0 129 0 0 129"></polygon>
                <polygon id="Rectangle-Copy-47" fill="#EE481E" points="0 0 85 0 0 85"></polygon>
                <polygon id="Rectangle-Copy-48" fill="#FFF18C" transform="translate(86.500000, 86.500000) scale(-1, -1) translate(-86.500000, -86.500000) " points="44 44 129 44 44 129"></polygon>
            </g>
            <g id="4" transform="translate(1219.812603, 158.163371)" stroke-linejoin="round" stroke-width="20">
                <path d="M305.187397,666.741797 L305.187397,213.202562 C305.187397,199.947728 294.442231,189.202562 281.187397,189.202562 C272.693977,189.202562 264.833091,193.691671 260.517081,201.006741 L94.0996913,483.062352 C87.364125,494.478252 91.1582851,509.192923 102.574185,515.928489 C106.268469,518.108177 110.479408,519.257956 114.768787,519.258174 L434.187397,519.274411 L434.187397,519.274411" id="Path-18" stroke="#EE481E"></path>
                <path d="M325.187397,666.741797 L325.187397,218.40609 C325.187397,194.105561 305.487926,174.40609 281.187397,174.40609 C265.767465,174.40609 251.472758,182.478183 243.509244,195.682604 L77.1345793,471.550925 C64.5847444,492.359994 71.2801765,519.402729 92.0892456,531.952564 C98.9472503,536.088588 106.804053,538.274411 114.812732,538.274411 L434.187397,538.274411 L434.187397,538.274411" id="Path-18" stroke="#EF7E00"></path>
                <path d="M345.187397,666.741797 L345.187397,225.233774 C345.187397,189.88755 316.533621,161.233774 281.187397,161.233774 C259.009387,161.233774 238.412234,172.715686 226.750115,191.579913 L60.3709316,460.708931 C41.7844176,490.773812 51.0894722,530.21356 81.1543528,548.800074 C91.266408,555.051483 102.919825,558.362792 114.808213,558.362792 L434.452811,558.362792 L434.452811,558.362792" id="Path-18" stroke="#ffcc00"></path>
                <line x1="188.452811" y1="519.274411" x2="434.187397" y2="518.836629" id="Path-18-Copy" stroke="#EE481E"></line>
                <line x1="188.452811" y1="538.274411" x2="434.187397" y2="538.274411" id="Path-18" stroke="#EF7E00"></line>
            </g>
            <g id="0" transform="translate(896.000000, 306.000000)" stroke-width="20">
                <path d="M164,10 C222.497061,10 258.767262,35.2049266 281.065683,70.488099 C317.366204,127.927032 317.995213,210.353979 318.000283,255.427002 L318.000283,263.572751 C317.995206,308.642051 317.36614,391.031633 281.069193,448.465563 C258.769894,483.750525 222.497148,508.968065 163.994397,509.002943 C105.503203,509.035716 69.2354772,483.841973 46.9378785,448.559702 C10.6337635,391.11443 10.0047817,308.650028 9.99971649,263.573917 L9.99999997,259.500733 L10.0001638,257.263714 C10.0098527,212.528989 10.1253746,128.226951 47.2595992,69.9756233 C69.5831747,34.9573103 105.786799,10 164,10 Z" id="Oval" stroke="#ffcc00"></path>
                <path d="M164,29.228694 C214.645311,29.228694 246.197174,51.7525784 265.710394,83.3220306 C298.299223,136.04585 298.715956,212.298653 298.724981,253.369805 L298.724099,257.519196 L298.72365,259.500173 C298.72365,260.731227 298.724727,262.001847 298.725837,263.310093 C298.727208,264.925009 298.729389,266.599516 298.730211,268.329694 L298.730154,270.966225 C298.704794,312.910646 297.329755,384.516679 266.444392,434.898097 C246.973036,466.660538 215.250897,489.354947 163.994353,489.384077 C112.747936,489.413015 81.0303666,466.739578 61.5607956,434.980049 C30.6702161,384.590123 29.2951815,312.924632 29.2698429,270.967972 L29.2697873,268.330725 C29.2706104,266.600114 29.2727925,264.925262 29.274163,263.3101 C29.2752732,262.001797 29.2763502,260.731173 29.2763502,259.500173 L29.2762189,258.517359 L29.2762189,258.517359 L29.2759007,257.519343 L29.2754443,252.131367 C29.295596,210.775949 30.0266656,135.518612 62.289606,83.3220306 C81.8028256,51.7525784 113.354689,29.228694 164,29.228694 Z" id="Oval" stroke="#EF7E00"></path>
                <path d="M164,49.1093759 C208.002798,49.1093759 235.097292,69.2315137 251.646386,97.4121582 C279.780438,145.320261 278.986435,214.736892 278.809823,251.593817 C278.796331,254.409293 278.783754,257.043222 278.783754,259.473473 C278.783754,261.863006 278.795666,264.449267 278.808432,267.211241 C278.978548,304.018226 279.75967,373.476514 251.612753,421.430356 C235.062583,449.626846 207.976155,469.775877 163.994659,469.800699 C120.021321,469.824187 92.939002,449.693164 76.3906563,421.499791 C48.2398387,373.539318 49.0214474,304.026612 49.1915714,267.211301 C49.2043355,264.449097 49.216246,261.862806 49.216246,259.473473 C49.216246,257.043222 49.2036686,254.409293 49.1901773,251.593817 C49.0135647,214.736892 48.2195624,145.320261 76.3536138,97.4121582 C92.9027078,69.2315137 119.997202,49.1093759 164,49.1093759 Z" id="Oval" stroke="#EE481E"></path>
            </g>
            <g id="4" transform="translate(418.812603, 158.163371)" stroke-linejoin="round" stroke-width="20">
                <path d="M305.187397,666.741797 L305.187397,213.202562 C305.187397,199.947728 294.442231,189.202562 281.187397,189.202562 C272.693977,189.202562 264.833091,193.691671 260.517081,201.006741 L94.0996913,483.062352 C87.364125,494.478252 91.1582851,509.192923 102.574185,515.928489 C106.268469,518.108177 110.479408,519.257956 114.768787,519.258174 L434.187397,519.274411 L434.187397,519.274411" id="Path-18" stroke="#EE481E"></path>
                <path d="M325.187397,666.741797 L325.187397,218.40609 C325.187397,194.105561 305.487926,174.40609 281.187397,174.40609 C265.767465,174.40609 251.472758,182.478183 243.509244,195.682604 L77.1345793,471.550925 C64.5847444,492.359994 71.2801765,519.402729 92.0892456,531.952564 C98.9472503,536.088588 106.804053,538.274411 114.812732,538.274411 L434.187397,538.274411 L434.187397,538.274411" id="Path-18" stroke="#EF7E00"></path>
                <path d="M345.187397,666.741797 L345.187397,225.233774 C345.187397,189.88755 316.533621,161.233774 281.187397,161.233774 C259.009387,161.233774 238.412234,172.715686 226.750115,191.579913 L60.3709316,460.708931 C41.7844176,490.773812 51.0894722,530.21356 81.1543528,548.800074 C91.266408,555.051483 102.919825,558.362792 114.808213,558.362792 L434.452811,558.362792 L434.452811,558.362792" id="Path-18" stroke="#ffcc00"></path>
                <line x1="188.452811" y1="519.274411" x2="434.187397" y2="518.836629" id="Path-18-Copy" stroke="#EE481E"></line>
                <line x1="188.452811" y1="538.274411" x2="434.187397" y2="538.274411" id="Path-18" stroke="#EF7E00"></line>
            </g>
            <text id="error" font-family="TitanOne, Titan One" font-size="230" font-weight="normal" letter-spacing="-2.55555556" fill="#feefcf">
                <tspan x="634.843889" y="223">error</tspan>
            </text>
            <path d="M432,311 L432,338 L537,338 L537,311 L551,311 L551,352 L418,352 L418,311 L432,311 Z M418,285 L418,311 L404,311 L404,285 L418,285 Z M565,272 L565,311 L551,311 L551,272 L565,272 Z M404,259 L404,285 L390,285 L390,259 L404,259 Z M579,153 L579,272 L565,272 L565,153 L579,153 Z M390,233 L390,259 L376,259 L376,233 L390,233 Z M376,219 L376,233 L362,233 L362,219 L376,219 Z M460,73 L460,219 L446,219 L446,139 L421,139 L421,233 L407,233 L407,206 L393,206 L393,192 L407,192 L407,139 L421,139 L421,125 L446,125 L446,73 L460,73 Z M362,192 L362,219 L348,219 L348,192 L362,192 Z M499,73 L499,125 L524,125 L524,139 L499,139 L499,206 L485,206 L485,73 L499,73 Z M565,139 L565,153 L538,153 L538,206 L524,206 L524,139 L565,139 Z M393,178 L393,192 L362,192 L362,178 L393,178 Z M485,59 L485,73 L460,73 L460,59 L485,59 Z" id="fuck" fill="#EE481E"></path>
            <path d="M1249.72727,1003.18182 L1249.727,1026.558 L1340.636,1026.558 L1340.63636,1003.18182 L1352.75758,1003.18182 L1352.75758,1038.67965 L1237.60606,1038.67965 L1237.60606,1003.18182 L1249.72727,1003.18182 Z M1237.60606,980.670996 L1237.60606,1003.18182 L1225.48485,1003.18182 L1225.48485,980.670996 L1237.60606,980.670996 Z M1364.87879,969.415584 L1364.87879,1003.18182 L1352.75758,1003.18182 L1352.75758,969.415584 L1364.87879,969.415584 Z M1225.48485,958.160173 L1225.48485,980.670996 L1213.36364,980.670996 L1213.36364,958.160173 L1225.48485,958.160173 Z M1377,866.385281 L1377,969.415584 L1364.87879,969.415584 L1364.87879,866.385281 L1377,866.385281 Z M1213.36364,935.649351 L1213.36364,958.160173 L1201.24242,958.160173 L1201.24242,935.649351 L1213.36364,935.649351 Z M1201.24242,923.528139 L1201.24242,935.649351 L1189.12121,935.649351 L1189.12121,923.528139 L1201.24242,923.528139 Z M1273.9697,797.121212 L1273.9697,923.528139 L1261.84848,923.528139 L1261.84848,854.264069 L1240.20346,854.264069 L1240.20346,935.649351 L1228.08225,935.649351 L1228.08225,912.272727 L1215.96104,912.272727 L1215.96104,900.151515 L1228.08225,900.151515 L1228.08225,854.264069 L1240.20346,854.264069 L1240.20346,842.142857 L1261.84848,842.142857 L1261.84848,797.121212 L1273.9697,797.121212 Z M1189.12121,900.151515 L1189.12121,923.528139 L1177,923.528139 L1177,900.151515 L1189.12121,900.151515 Z M1307.73593,797.121212 L1307.73593,842.142857 L1329.38095,842.142857 L1329.38095,854.264069 L1307.73593,854.264069 L1307.73593,912.272727 L1295.61472,912.272727 L1295.61472,797.121212 L1307.73593,797.121212 Z M1364.87879,854.264069 L1364.87879,866.385281 L1341.502,866.385 L1341.50216,912.272727 L1329.38095,912.272727 L1329.38095,854.264069 L1364.87879,854.264069 Z M1215.96104,888.030303 L1215.96104,900.151515 L1189.12121,900.151515 L1189.12121,888.030303 L1215.96104,888.030303 Z M1295.61472,785 L1295.61472,797.121212 L1273.9697,797.121212 L1273.9697,785 L1295.61472,785 Z" id="fuck" fill="#EE481E"></path>
            <path d="M1448.90909,237.727273 L1448.909,255.376 L1517.545,255.376 L1517.54545,237.727273 L1526.69697,237.727273 L1526.69697,264.528139 L1439.75758,264.528139 L1439.75758,237.727273 L1448.90909,237.727273 Z M1439.75758,220.731602 L1439.75758,237.727273 L1430.60606,237.727273 L1430.60606,220.731602 L1439.75758,220.731602 Z M1535.84848,212.233766 L1535.84848,237.727273 L1526.69697,237.727273 L1526.69697,212.233766 L1535.84848,212.233766 Z M1430.60606,203.735931 L1430.60606,220.731602 L1421.45455,220.731602 L1421.45455,203.735931 L1430.60606,203.735931 Z M1545,134.445887 L1545,212.233766 L1535.84848,212.233766 L1535.84848,134.445887 L1545,134.445887 Z M1421.45455,186.74026 L1421.45455,203.735931 L1412.30303,203.735931 L1412.30303,186.74026 L1421.45455,186.74026 Z M1412.30303,177.588745 L1412.30303,186.74026 L1403.15152,186.74026 L1403.15152,177.588745 L1412.30303,177.588745 Z M1467.21212,82.1515152 L1467.21212,177.588745 L1458.06061,177.588745 L1458.06061,125.294372 L1441.71861,125.294372 L1441.71861,186.74026 L1432.5671,186.74026 L1432.5671,169.090909 L1423.41558,169.090909 L1423.41558,159.939394 L1432.5671,159.939394 L1432.5671,125.294372 L1441.71861,125.294372 L1441.71861,116.142857 L1458.06061,116.142857 L1458.06061,82.1515152 L1467.21212,82.1515152 Z M1403.15152,159.939394 L1403.15152,177.588745 L1394,177.588745 L1394,159.939394 L1403.15152,159.939394 Z M1492.70563,82.1515152 L1492.70563,116.142857 L1509.04762,116.142857 L1509.04762,125.294372 L1492.70563,125.294372 L1492.70563,169.090909 L1483.55411,169.090909 L1483.55411,82.1515152 L1492.70563,82.1515152 Z M1535.84848,125.294372 L1535.84848,134.445887 L1518.199,134.445 L1518.19913,169.090909 L1509.04762,169.090909 L1509.04762,125.294372 L1535.84848,125.294372 Z M1423.41558,150.787879 L1423.41558,159.939394 L1403.15152,159.939394 L1403.15152,150.787879 L1423.41558,150.787879 Z M1483.55411,73 L1483.55411,82.1515152 L1467.21212,82.1515152 L1467.21212,73 L1483.55411,73 Z" id="fuck" fill="#EE481E"></path>
            <path d="M1719.09091,552.272727 L1719.09,575.766 L1810.454,575.766 L1810.45455,552.272727 L1822.63636,552.272727 L1822.63636,587.948052 L1706.90909,587.948052 L1706.90909,552.272727 L1719.09091,552.272727 Z M1706.90909,529.649351 L1706.90909,552.272727 L1694.72727,552.272727 L1694.72727,529.649351 L1706.90909,529.649351 Z M1834.81818,518.337662 L1834.81818,552.272727 L1822.63636,552.272727 L1822.63636,518.337662 L1834.81818,518.337662 Z M1694.72727,507.025974 L1694.72727,529.649351 L1682.54545,529.649351 L1682.54545,507.025974 L1694.72727,507.025974 Z M1847,414.792208 L1847,518.337662 L1834.81818,518.337662 L1834.81818,414.792208 L1847,414.792208 Z M1682.54545,484.402597 L1682.54545,507.025974 L1670.36364,507.025974 L1670.36364,484.402597 L1682.54545,484.402597 Z M1670.36364,472.220779 L1670.36364,484.402597 L1658.18182,484.402597 L1658.18182,472.220779 L1670.36364,472.220779 Z M1743.45455,345.181818 L1743.45455,472.220779 L1731.27273,472.220779 L1731.27273,402.61039 L1709.51948,402.61039 L1709.51948,484.402597 L1697.33766,484.402597 L1697.33766,460.909091 L1685.15584,460.909091 L1685.15584,448.727273 L1697.33766,448.727273 L1697.33766,402.61039 L1709.51948,402.61039 L1709.51948,390.428571 L1731.27273,390.428571 L1731.27273,345.181818 L1743.45455,345.181818 Z M1658.18182,448.727273 L1658.18182,472.220779 L1646,472.220779 L1646,448.727273 L1658.18182,448.727273 Z M1777.38961,345.181818 L1777.38961,390.428571 L1799.14286,390.428571 L1799.14286,402.61039 L1777.38961,402.61039 L1777.38961,460.909091 L1765.20779,460.909091 L1765.20779,345.181818 L1777.38961,345.181818 Z M1834.81818,402.61039 L1834.81818,414.792208 L1811.324,414.792 L1811.32468,460.909091 L1799.14286,460.909091 L1799.14286,402.61039 L1834.81818,402.61039 Z M1685.15584,436.545455 L1685.15584,448.727273 L1658.18182,448.727273 L1658.18182,436.545455 L1685.15584,436.545455 Z M1765.20779,333 L1765.20779,345.181818 L1743.45455,345.181818 L1743.45455,333 L1765.20779,333 Z" id="fuck" fill="#EE481E"></path>
            <path d="M539.818182,970.454545 L539.818,990.324 L617.09,990.324 L617.090909,970.454545 L627.393939,970.454545 L627.393939,1000.62771 L529.515152,1000.62771 L529.515152,970.454545 L539.818182,970.454545 Z M529.515152,951.320346 L529.515152,970.454545 L519.212121,970.454545 L519.212121,951.320346 L529.515152,951.320346 Z M637.69697,941.753247 L637.69697,970.454545 L627.393939,970.454545 L627.393939,941.753247 L637.69697,941.753247 Z M519.212121,932.186147 L519.212121,951.320346 L508.909091,951.320346 L508.909091,932.186147 L519.212121,932.186147 Z M648,854.177489 L648,941.753247 L637.69697,941.753247 L637.69697,854.177489 L648,854.177489 Z M508.909091,913.051948 L508.909091,932.186147 L498.606061,932.186147 L498.606061,913.051948 L508.909091,913.051948 Z M498.606061,902.748918 L498.606061,913.051948 L488.30303,913.051948 L488.30303,902.748918 L498.606061,902.748918 Z M560.424242,795.30303 L560.424242,902.748918 L550.121212,902.748918 L550.121212,843.874459 L531.722944,843.874459 L531.722944,913.051948 L521.419913,913.051948 L521.419913,893.181818 L511.116883,893.181818 L511.116883,882.878788 L521.419913,882.878788 L521.419913,843.874459 L531.722944,843.874459 L531.722944,833.571429 L550.121212,833.571429 L550.121212,795.30303 L560.424242,795.30303 Z M488.30303,882.878788 L488.30303,902.748918 L478,902.748918 L478,882.878788 L488.30303,882.878788 Z M589.125541,795.30303 L589.125541,833.571429 L607.52381,833.571429 L607.52381,843.874459 L589.125541,843.874459 L589.125541,893.181818 L578.822511,893.181818 L578.822511,795.30303 L589.125541,795.30303 Z M637.69697,843.874459 L637.69697,854.177489 L617.826,854.177 L617.82684,893.181818 L607.52381,893.181818 L607.52381,843.874459 L637.69697,843.874459 Z M511.116883,872.575758 L511.116883,882.878788 L488.30303,882.878788 L488.30303,872.575758 L511.116883,872.575758 Z M578.822511,785 L578.822511,795.30303 L560.424242,795.30303 L560.424242,785 L578.822511,785 Z" id="fuck" fill="#EE481E"></path>
        </g>
    </g>
</svg>