<?xml version="1.0" encoding="UTF-8"?>
<svg width="2151px" height="980px" viewBox="0 0 2151 980" version="1.1" xmlns="http://www.w3.org/2000/svg" xmlns:xlink="http://www.w3.org/1999/xlink">
    <title>error404</title>
    <defs>
        <rect id="path-1" x="0" y="0" width="129" height="129"></rect>
        <rect id="path-3" x="0" y="0" width="129" height="129"></rect>
    </defs>
    <g id="sketch" stroke="none" stroke-width="1" fill="none" fill-rule="evenodd">
        <g id="Landing-page-Copy-2" transform="translate(-166.000000, -402.000000)">
            <g id="error404" transform="translate(166.000000, 402.000000)">
                <g id="Group-21" transform="translate(1893.000000, 332.681204)">
                    <rect id="Rectangle-Copy-54" fill="#FEEFCF" x="0" y="0.318795752" width="129" height="129"></rect>
                    <path d="M0,0.318795752 C17.5474217,16.960252 27.8529685,30.5554476 30.9166406,41.1043827 C35.5121486,56.9277854 14.6965398,62.0116329 22.1075818,76.4403398 C29.5186237,90.8690467 51.9936969,83.3528867 58.8059987,95.4027361 C63.3475332,103.435969 61.0795548,114.741322 52.0020634,129.318796 L129,129.318796 L129,0.318795752 L0,0.318795752 Z" id="Path-15-Copy" fill="#EFC10A"></path>
                    <path d="M26.774356,0.318795752 C42.5861906,11.6641405 53.9031764,21.9088833 60.7253133,31.0530244 C70.9585187,44.7692359 45.1306694,63.5201446 53.7316365,72.3387024 C62.3326035,81.1572602 88.3949875,59.5353539 95.1420386,66.3404379 C101.88909,73.1455219 82.7232571,92.8666293 82.4143531,101.268126 C82.1054492,109.669622 92.5907444,110.27754 93.2976323,116.504165 C93.7688909,120.655248 91.2026308,124.926792 85.5988519,129.318796 L129,129.318796 L129,0.318795752 L26.774356,0.318795752 Z" id="Path-16-Copy" fill="#EF7E00"></path>
                    <path d="M52.6473782,0.318795752 L129,0.318795752 L129,129.318796 L110.457386,129.318796 C116.85648,122.597855 120.056027,115.007192 120.056027,106.546807 C120.056027,93.8562299 112.92269,87.4379492 110.457386,68.9867721 C107.992082,50.535595 117.672455,34.4556705 112.754148,28.5184288 C107.835841,22.5811871 99.159494,49.8171745 90.7950899,45.2510013 C82.4306859,40.684828 89.2644946,22.109003 79.1154316,10.1548724 C72.3493896,2.18545197 63.5267051,-1.09324024 52.6473782,0.318795752 Z" id="Path-17-Copy" fill="#EF5F00"></path>
                </g>
                <g id="Group-19" transform="translate(258.000000, 462.000000)">
                    <rect id="Rectangle-Copy-55" fill="#FFBF4C" x="-4.54747351e-13" y="0" width="129" height="129"></rect>
                    <rect id="Rectangle-Copy-56" fill="#EF5F00" x="-4.54747351e-13" y="0" width="60" height="129"></rect>
                    <path d="M129,113 C129,113 129,16 129,16 C102.21419,16 80.5,37.7141896 80.5,64.5 C80.5,91.2858104 102.21419,113 129,113 Z" id="Oval-Copy-13" fill="#EF5F00"></path>
                </g>
                <g id="Group-18-Copy" transform="translate(258.000000, 720.000000)">
                    <rect id="Rectangle-Copy-20" fill="#EF7E00" x="0" y="0" width="129" height="129"></rect>
                    <polygon id="Rectangle" fill="#F1A726" points="0 0 129 0 0 129"></polygon>
                    <polygon id="Rectangle" fill="#F9E131" points="0 0 85 0 0 85"></polygon>
                    <polygon id="Rectangle" fill="#FCF19B" transform="translate(86.500000, 86.500000) scale(-1, -1) translate(-86.500000, -86.500000) " points="44 44 129 44 44 129"></polygon>
                </g>
                <g id="Group-16-Copy" transform="translate(129.000000, 591.000000)">
                    <rect id="Rectangle-Copy-20" fill="#EE481E" x="0" y="0" width="129" height="129"></rect>
                    <rect id="Rectangle-Copy-8" fill="#FEEFCF" x="0" y="107" width="129" height="22"></rect>
                    <rect id="Rectangle-Copy-9" fill="#FEEFCF" x="0" y="91" width="129" height="14"></rect>
                    <rect id="Rectangle-Copy-10" fill="#FEEFCF" x="0" y="74" width="129" height="12"></rect>
                    <rect id="Rectangle-Copy-11" fill="#FEEFCF" x="0" y="57" width="129" height="9"></rect>
                    <rect id="Rectangle-Copy-12" fill="#FEEFCF" x="0.0516717325" y="40" width="129" height="6"></rect>
                    <rect id="Rectangle-Copy-13" fill="#FEEFCF" x="0" y="24" width="129" height="3"></rect>
                </g>
                <g id="Group-15-Copy" transform="translate(0.000000, 462.000000)">
                    <rect id="Rectangle-Copy-20" fill="#FEEFCF" x="0" y="0" width="129" height="129"></rect>
                    <rect id="Rectangle" fill="#EF5F00" x="0" y="61" width="129" height="68"></rect>
                    <path d="M0,92.6879606 L15.8985749,78.6058119 C18.2760616,76.4999552 21.3422075,75.33729 24.5182231,75.33729 L116,75.33729 C123.179702,75.33729 129,69.5169917 129,62.33729 L129,36.6879606 L129,36.6879606 L124.688126,56.2257864 C123.37349,62.1826228 118.093776,66.4241846 111.993598,66.4241846 L22.046761,66.4241846 C17.2901927,66.4241846 12.9133887,69.0219517 10.6350626,73.1973765 L0,92.6879606 L0,92.6879606 Z" id="Path-8" fill="#F9E131"></path>
                    <path d="M0,92.6879606 L10.6348777,73.2010602 C12.913344,69.0260949 17.2898947,66.4286918 22.0461267,66.4286918 L111.993257,66.4286918 C118.09359,66.4286918 123.373394,62.1869187 124.687874,56.2298887 L129,36.6879606 L129,36.6879606 L120.780802,51.0054732 C118.468234,55.0338726 114.182005,57.5223114 109.537024,57.5332274 L17.2786521,57.750042 C11.0284095,57.7647306 5.67330998,62.2252339 4.52895215,68.3698408 L0,92.6879606 L0,92.6879606 Z" id="Path-8-Copy" fill="#EFC10A"></path>
                    <path d="M0,92.6879606 L4.52895215,68.3698408 C5.67330998,62.2252339 11.0284095,57.7647306 17.2786521,57.750042 L109.537024,57.5332274 C114.182005,57.5223114 118.468234,55.0338726 120.780802,51.0054732 L129,36.6879606 L129,36.6879606 L113.997705,46.6815566 C111.863055,48.1035271 109.355467,48.8622625 106.790564,48.8622625 L13,48.8622625 C5.82029825,48.8622625 2.6734538e-15,54.6825608 0,61.8622625 L0,92.6879606 L0,92.6879606 Z" id="Path-8-Copy-2" fill="#F1A726"></path>
                </g>
                <g id="Group-Copy-5" transform="translate(129.000000, 204.000000)">
                    <mask id="mask-2" fill="white">
                        <use xlink:href="#path-1"></use>
                    </mask>
                    <use id="Mask" fill="#FEEFCF" xlink:href="#path-1"></use>
                    <rect id="Rectangle" fill="#F1A726" mask="url(#mask-2)" x="0" y="61" width="129" height="68"></rect>
                    <g id="Group-Copy-2" mask="url(#mask-2)" stroke-linejoin="round" stroke-width="20">
                        <g transform="translate(-44.500000, 27.437782)">
                            <polyline id="Path-2" stroke="#EFC10A" points="1.13686838e-12 36.5 101.5 36.5 140.761077 0 195.630591 0"></polyline>
                            <polyline id="Path-2-Copy" stroke="#EF7E00" points="3.95532265e-15 55.5 110.571125 55.5 149.5191 18.25 195.630591 18.25"></polyline>
                            <polyline id="Path-2-Copy-2" stroke="#ED4217" points="1.19556451e-12 74.5 119.411731 74.5 157.225622 37.25 195.630591 37.25"></polyline>
                        </g>
                    </g>
                </g>
                <g id="Group-Copy-6" transform="translate(1828.500000, 784.500000) rotate(-180.000000) translate(-1828.500000, -784.500000) translate(1764.000000, 720.000000)">
                    <mask id="mask-4" fill="white">
                        <use xlink:href="#path-3"></use>
                    </mask>
                    <use id="Mask" fill="#FFF18C" xlink:href="#path-3"></use>
                    <g id="Group-Copy-2" mask="url(#mask-4)" stroke-linejoin="round" stroke-width="20">
                        <g transform="translate(-44.500000, 27.437782)">
                            <polyline id="Path-2" stroke="#EFC10A" points="1.13686838e-12 36.5 101.5 36.5 140.761077 0 195.630591 0"></polyline>
                            <polyline id="Path-2-Copy" stroke="#EF7E00" points="3.95532265e-15 55.5 110.571125 55.5 149.5191 18.25 195.630591 18.25"></polyline>
                            <polyline id="Path-2-Copy-2" stroke="#ED4217" points="1.19556451e-12 74.5 119.411731 74.5 157.225622 37.25 195.630591 37.25"></polyline>
                        </g>
                    </g>
                </g>
                <g id="Group-13-Copy" transform="translate(2022.000000, 720.000000)">
                    <rect id="Rectangle-Copy-20" fill="#FEEFCF" x="0" y="0" width="129" height="129"></rect>
                    <path d="M0,129 C2.29880773,86.2800814 6.46225603,61.0445928 12.4903449,53.2935344 C21.5324782,41.6669467 39.6405686,70.0752496 52.2242659,61.8488105 C64.8079632,53.6223715 52.3876532,29.654001 61.9804247,20.9399967 C71.5731961,12.2259923 77.1588246,28.2843115 95.472751,22.5621989 C107.682035,18.7474571 118.857785,11.2267242 129,0 L129,129 L0,129 Z" id="Path-7" fill="#EF5F00"></path>
                    <path d="M129,129 L0,129 C6.40344196,102.185373 14.7054769,85.7727068 24.9061048,79.7620025 C40.2070466,70.7459459 54.6796727,97.8615342 68.5331768,88.6169306 C82.386681,79.3723269 69.8589546,53.0179582 79.2234955,43.5153792 C88.5880364,34.0128002 98.5763177,56.1069184 112.979566,43.5153792 C122.581731,35.1210198 127.921876,20.6158934 129,0 L129,129 Z" id="Path-5" fill="#EF7E00"></path>
                    <path d="M0,129 C3.43505096,120.609365 12.2852776,114.831683 26.5506798,111.666954 C47.9487832,106.919861 57.0447807,125.189647 78.1308273,111.666954 C99.2168739,98.1442615 86.295384,71.8752405 94.306025,68.2147733 C102.316666,64.554306 110.476308,94.3774664 119.652005,92.6938269 C125.769137,91.5714006 128.885135,81.2897284 129,61.8488105 L129,129 L0,129 Z" id="Path-6" fill="#F1A726"></path>
                </g>
                <g id="Group-14-Copy-6" transform="translate(1635.000000, 849.000000)">
                    <rect id="Rectangle-Copy-20" fill="#F1A726" x="0" y="0" width="129" height="129"></rect>
                    <path d="M-2.27373675e-13,11.5361728 C18.3232658,25.5828663 32.2729978,31.4665849 41.8491961,29.1873286 C56.2134934,25.768444 45.9935712,0.594100442 60.0416891,5.0817984 C74.089807,9.56949636 79.1437475,31.6123304 97.9794916,29.1873286 C110.536654,27.5706607 120.876824,20.6302616 129,8.36613131 L129,38.9945354 C106.015999,54.8942777 89.8170644,63.3765173 80.4031963,64.441254 C66.2823941,66.0383592 72.0101394,38.5836445 63.9960938,36.7434996 C55.9820481,34.9033546 61.7453737,60.1613254 41.8491961,60.1613254 C28.5850777,60.1613254 14.6353456,56.4408836 -2.27373675e-13,49 L-2.27373675e-13,11.5361728 Z" id="Path-12" fill="#FFE683"></path>
                    <path d="M0,55.7323536 C19.5622809,62.7374489 33.9296785,66.2399966 43.1021929,66.2399966 C56.8609645,66.2399966 55.0798645,53.4120489 63.9960937,55.7323536 C72.912323,58.0526583 61.6881165,73.2602504 72.5984465,73.9159204 C83.5087765,74.5715903 95.1429876,58.8633128 107.598243,58.3526793 C115.901747,58.0122569 123.035666,58.9651433 129,61.2113383 L129,87.8291942 C117.379826,81.8036982 107.906225,79.6311348 100.579196,81.311504 C89.5886539,83.8320576 79.72293,95.4516701 68.3434034,95.4516701 C56.9638768,95.4516701 64.564504,76.7002924 59.062242,75.6036013 C53.55998,74.5069102 60.9074065,92.0376231 43.1021929,90.4206827 C31.2320504,89.3427224 16.8646528,82.615827 0,70.2399966 L0,55.7323536 Z" id="Path-13" fill="#FFE683"></path>
                    <path d="M129,92.2419242 C118.205165,84.1805424 109.248137,82.3436867 102.128915,86.731357 C91.450083,93.3128625 94.745962,101.918868 86.1264438,103.521117 C77.5069256,105.123367 77.0176702,97.149669 64.5,98.1724881 C51.9823298,99.1953071 49.2596974,106.795455 41.1554476,104.47017 C33.0511978,102.144886 33.0013809,94.6723891 25.9126278,89.5495215 C21.1867924,86.1342764 12.5492498,85.1948882 0,86.731357 L0,121.390819 C6.5551523,110.593045 13.267324,106.728294 20.136515,109.796568 C30.4403016,114.398979 33.2654755,123.228197 41.1554476,124.625606 C49.0454198,126.023015 51.7743059,119.638216 64.5,119.638216 C77.2256941,119.638216 82.946393,127.152266 94.4500241,123.395241 C105.953655,119.638216 105.534545,114.860478 112.807748,109.796568 C117.65655,106.420628 123.053967,109.036537 129,117.644296 L129,92.2419242 Z" id="Path-14" fill="#FFE683"></path>
                </g>
                <g id="Group-17-Copy" transform="translate(1893.000000, 590.974164)">
                    <rect id="Rectangle-Copy-20" fill="#FEEFCF" x="0" y="0.0258358663" width="129" height="129"></rect>
                    <path d="M121,93.0932516 L121,121.025836 L-8,121.025836 L-8,93.0932516 L121,93.0932516 Z M121,72.7786449 L121,90.5539258 L-8,90.5539258 L-8,72.7786449 L121,72.7786449 Z M121,51.1943752 L121,66.4303302 L-8,66.4303302 L-8,51.1943752 L121,51.1943752 Z M121,29.6101055 L121,41.0370718 L-8,41.0370718 L-8,29.6101055 L121,29.6101055 Z M121.051672,8.02583587 L121.051672,15.6438134 L-7.94832827,15.6438134 L-7.94832827,8.02583587 L121.051672,8.02583587 Z" id="Combined-Shape" fill="#F1A726" transform="translate(56.525836, 64.525836) rotate(-270.000000) translate(-56.525836, -64.525836) "></path>
                </g>
                <g id="Group-9-Copy-4" transform="translate(838.500000, 913.500000) scale(-1, 1) translate(-838.500000, -913.500000) translate(774.000000, 849.000000)">
                    <rect id="Rectangle-Copy-33" fill="#F1A726" x="0" y="0" width="129" height="129"></rect>
                    <polygon id="Rectangle-Copy-46" fill="#EF7E00" points="0 0 129 0 0 129"></polygon>
                    <polygon id="Rectangle-Copy-47" fill="#EE481E" points="0 0 85 0 0 85"></polygon>
                    <polygon id="Rectangle-Copy-48" fill="#FFF18C" transform="translate(86.500000, 86.500000) scale(-1, -1) translate(-86.500000, -86.500000) " points="44 44 129 44 44 129"></polygon>
                </g>
                <g id="4" transform="translate(1219.812603, 99.163371)" stroke-linejoin="round" stroke-width="20">
                    <path d="M305.187397,666.741797 L305.187397,213.202562 C305.187397,199.947728 294.442231,189.202562 281.187397,189.202562 C272.693977,189.202562 264.833091,193.691671 260.517081,201.006741 L94.0996913,483.062352 C87.364125,494.478252 91.1582851,509.192923 102.574185,515.928489 C106.268469,518.108177 110.479408,519.257956 114.768787,519.258174 L434.187397,519.274411 L434.187397,519.274411" id="Path-18" stroke="#EE481E"></path>
                    <path d="M325.187397,666.741797 L325.187397,218.40609 C325.187397,194.105561 305.487926,174.40609 281.187397,174.40609 C265.767465,174.40609 251.472758,182.478183 243.509244,195.682604 L77.1345793,471.550925 C64.5847444,492.359994 71.2801765,519.402729 92.0892456,531.952564 C98.9472503,536.088588 106.804053,538.274411 114.812732,538.274411 L434.187397,538.274411 L434.187397,538.274411" id="Path-18" stroke="#EF7E00"></path>
                    <path d="M345.187397,666.741797 L345.187397,225.233774 C345.187397,189.88755 316.533621,161.233774 281.187397,161.233774 C259.009387,161.233774 238.412234,172.715686 226.750115,191.579913 L60.3709316,460.708931 C41.7844176,490.773812 51.0894722,530.21356 81.1543528,548.800074 C91.266408,555.051483 102.919825,558.362792 114.808213,558.362792 L434.452811,558.362792 L434.452811,558.362792" id="Path-18" stroke="#EFC10A"></path>
                    <line x1="188.452811" y1="519.274411" x2="434.187397" y2="518.836629" id="Path-18-Copy" stroke="#EE481E"></line>
                    <line x1="188.452811" y1="538.274411" x2="434.187397" y2="538.274411" id="Path-18" stroke="#EF7E00"></line>
                </g>
                <g id="0" transform="translate(896.000000, 247.000000)" stroke-width="20">
                    <path d="M164,10 C222.497061,10 258.767262,35.2049266 281.065683,70.488099 C317.366204,127.927032 317.995213,210.353979 318.000283,255.427002 L318.000283,263.572751 C317.995206,308.642051 317.36614,391.031633 281.069193,448.465563 C258.769894,483.750525 222.497148,508.968065 163.994397,509.002943 C105.503203,509.035716 69.2354772,483.841973 46.9378785,448.559702 C10.6337635,391.11443 10.0047817,308.650028 9.99971649,263.573917 L9.99999997,259.500733 L10.0001638,257.263714 C10.0098527,212.528989 10.1253746,128.226951 47.2595992,69.9756233 C69.5831747,34.9573103 105.786799,10 164,10 Z" id="Oval" stroke="#EFC10A"></path>
                    <path d="M164,29.228694 C214.645311,29.228694 246.197174,51.7525784 265.710394,83.3220306 C298.299223,136.04585 298.715956,212.298653 298.724981,253.369805 L298.724099,257.519196 L298.72365,259.500173 C298.72365,260.731227 298.724727,262.001847 298.725837,263.310093 C298.727208,264.925009 298.729389,266.599516 298.730211,268.329694 L298.730154,270.966225 C298.704794,312.910646 297.329755,384.516679 266.444392,434.898097 C246.973036,466.660538 215.250897,489.354947 163.994353,489.384077 C112.747936,489.413015 81.0303666,466.739578 61.5607956,434.980049 C30.6702161,384.590123 29.2951815,312.924632 29.2698429,270.967972 L29.2697873,268.330725 C29.2706104,266.600114 29.2727925,264.925262 29.274163,263.3101 C29.2752732,262.001797 29.2763502,260.731173 29.2763502,259.500173 L29.2762189,258.517359 L29.2762189,258.517359 L29.2759007,257.519343 L29.2754443,252.131367 C29.295596,210.775949 30.0266656,135.518612 62.289606,83.3220306 C81.8028256,51.7525784 113.354689,29.228694 164,29.228694 Z" id="Oval" stroke="#EF7E00"></path>
                    <path d="M164,49.1093759 C208.002798,49.1093759 235.097292,69.2315137 251.646386,97.4121582 C279.780438,145.320261 278.986435,214.736892 278.809823,251.593817 C278.796331,254.409293 278.783754,257.043222 278.783754,259.473473 C278.783754,261.863006 278.795666,264.449267 278.808432,267.211241 C278.978548,304.018226 279.75967,373.476514 251.612753,421.430356 C235.062583,449.626846 207.976155,469.775877 163.994659,469.800699 C120.021321,469.824187 92.939002,449.693164 76.3906563,421.499791 C48.2398387,373.539318 49.0214474,304.026612 49.1915714,267.211301 C49.2043355,264.449097 49.216246,261.862806 49.216246,259.473473 C49.216246,257.043222 49.2036686,254.409293 49.1901773,251.593817 C49.0135647,214.736892 48.2195624,145.320261 76.3536138,97.4121582 C92.9027078,69.2315137 119.997202,49.1093759 164,49.1093759 Z" id="Oval" stroke="#EE481E"></path>
                </g>
                <g id="4" transform="translate(418.812603, 99.163371)" stroke-linejoin="round" stroke-width="20">
                    <path d="M305.187397,666.741797 L305.187397,213.202562 C305.187397,199.947728 294.442231,189.202562 281.187397,189.202562 C272.693977,189.202562 264.833091,193.691671 260.517081,201.006741 L94.0996913,483.062352 C87.364125,494.478252 91.1582851,509.192923 102.574185,515.928489 C106.268469,518.108177 110.479408,519.257956 114.768787,519.258174 L434.187397,519.274411 L434.187397,519.274411" id="Path-18" stroke="#EE481E"></path>
                    <path d="M325.187397,666.741797 L325.187397,218.40609 C325.187397,194.105561 305.487926,174.40609 281.187397,174.40609 C265.767465,174.40609 251.472758,182.478183 243.509244,195.682604 L77.1345793,471.550925 C64.5847444,492.359994 71.2801765,519.402729 92.0892456,531.952564 C98.9472503,536.088588 106.804053,538.274411 114.812732,538.274411 L434.187397,538.274411 L434.187397,538.274411" id="Path-18" stroke="#EF7E00"></path>
                    <path d="M345.187397,666.741797 L345.187397,225.233774 C345.187397,189.88755 316.533621,161.233774 281.187397,161.233774 C259.009387,161.233774 238.412234,172.715686 226.750115,191.579913 L60.3709316,460.708931 C41.7844176,490.773812 51.0894722,530.21356 81.1543528,548.800074 C91.266408,555.051483 102.919825,558.362792 114.808213,558.362792 L434.452811,558.362792 L434.452811,558.362792" id="Path-18" stroke="#EFC10A"></path>
                    <line x1="188.452811" y1="519.274411" x2="434.187397" y2="518.836629" id="Path-18-Copy" stroke="#EE481E"></line>
                    <line x1="188.452811" y1="538.274411" x2="434.187397" y2="538.274411" id="Path-18" stroke="#EF7E00"></line>
                </g>
                <path d="M432,252 L432,279 L537,279 L537,252 L551,252 L551,293 L418,293 L418,252 L432,252 Z M418,226 L418,252 L404,252 L404,226 L418,226 Z M565,213 L565,252 L551,252 L551,213 L565,213 Z M404,200 L404,226 L390,226 L390,200 L404,200 Z M579,94 L579,213 L565,213 L565,94 L579,94 Z M390,174 L390,200 L376,200 L376,174 L390,174 Z M376,160 L376,174 L362,174 L362,160 L376,160 Z M460,14 L460,160 L446,160 L446,80 L421,80 L421,174 L407,174 L407,147 L393,147 L393,133 L407,133 L407,80 L421,80 L421,66 L446,66 L446,14 L460,14 Z M362,133 L362,160 L348,160 L348,133 L362,133 Z M499,14 L499,66 L524,66 L524,80 L499,80 L499,147 L485,147 L485,14 L499,14 Z M565,80 L565,94 L538,94 L538,147 L524,147 L524,80 L565,80 Z M393,119 L393,133 L362,133 L362,119 L393,119 Z M485,0 L485,14 L460,14 L460,0 L485,0 Z" id="fuck" fill="#EE481E"></path>
                <path d="M1249.72727,944.181818 L1249.727,967.558 L1340.636,967.558 L1340.63636,944.181818 L1352.75758,944.181818 L1352.75758,979.679654 L1237.60606,979.679654 L1237.60606,944.181818 L1249.72727,944.181818 Z M1237.60606,921.670996 L1237.60606,944.181818 L1225.48485,944.181818 L1225.48485,921.670996 L1237.60606,921.670996 Z M1364.87879,910.415584 L1364.87879,944.181818 L1352.75758,944.181818 L1352.75758,910.415584 L1364.87879,910.415584 Z M1225.48485,899.160173 L1225.48485,921.670996 L1213.36364,921.670996 L1213.36364,899.160173 L1225.48485,899.160173 Z M1377,807.385281 L1377,910.415584 L1364.87879,910.415584 L1364.87879,807.385281 L1377,807.385281 Z M1213.36364,876.649351 L1213.36364,899.160173 L1201.24242,899.160173 L1201.24242,876.649351 L1213.36364,876.649351 Z M1201.24242,864.528139 L1201.24242,876.649351 L1189.12121,876.649351 L1189.12121,864.528139 L1201.24242,864.528139 Z M1273.9697,738.121212 L1273.9697,864.528139 L1261.84848,864.528139 L1261.84848,795.264069 L1240.20346,795.264069 L1240.20346,876.649351 L1228.08225,876.649351 L1228.08225,853.272727 L1215.96104,853.272727 L1215.96104,841.151515 L1228.08225,841.151515 L1228.08225,795.264069 L1240.20346,795.264069 L1240.20346,783.142857 L1261.84848,783.142857 L1261.84848,738.121212 L1273.9697,738.121212 Z M1189.12121,841.151515 L1189.12121,864.528139 L1177,864.528139 L1177,841.151515 L1189.12121,841.151515 Z M1307.73593,738.121212 L1307.73593,783.142857 L1329.38095,783.142857 L1329.38095,795.264069 L1307.73593,795.264069 L1307.73593,853.272727 L1295.61472,853.272727 L1295.61472,738.121212 L1307.73593,738.121212 Z M1364.87879,795.264069 L1364.87879,807.385281 L1341.502,807.385 L1341.50216,853.272727 L1329.38095,853.272727 L1329.38095,795.264069 L1364.87879,795.264069 Z M1215.96104,829.030303 L1215.96104,841.151515 L1189.12121,841.151515 L1189.12121,829.030303 L1215.96104,829.030303 Z M1295.61472,726 L1295.61472,738.121212 L1273.9697,738.121212 L1273.9697,726 L1295.61472,726 Z" id="fuck" fill="#EE481E"></path>
                <path d="M1448.90909,178.727273 L1448.909,196.376 L1517.545,196.376 L1517.54545,178.727273 L1526.69697,178.727273 L1526.69697,205.528139 L1439.75758,205.528139 L1439.75758,178.727273 L1448.90909,178.727273 Z M1439.75758,161.731602 L1439.75758,178.727273 L1430.60606,178.727273 L1430.60606,161.731602 L1439.75758,161.731602 Z M1535.84848,153.233766 L1535.84848,178.727273 L1526.69697,178.727273 L1526.69697,153.233766 L1535.84848,153.233766 Z M1430.60606,144.735931 L1430.60606,161.731602 L1421.45455,161.731602 L1421.45455,144.735931 L1430.60606,144.735931 Z M1545,75.4458874 L1545,153.233766 L1535.84848,153.233766 L1535.84848,75.4458874 L1545,75.4458874 Z M1421.45455,127.74026 L1421.45455,144.735931 L1412.30303,144.735931 L1412.30303,127.74026 L1421.45455,127.74026 Z M1412.30303,118.588745 L1412.30303,127.74026 L1403.15152,127.74026 L1403.15152,118.588745 L1412.30303,118.588745 Z M1467.21212,23.1515152 L1467.21212,118.588745 L1458.06061,118.588745 L1458.06061,66.2943723 L1441.71861,66.2943723 L1441.71861,127.74026 L1432.5671,127.74026 L1432.5671,110.090909 L1423.41558,110.090909 L1423.41558,100.939394 L1432.5671,100.939394 L1432.5671,66.2943723 L1441.71861,66.2943723 L1441.71861,57.1428571 L1458.06061,57.1428571 L1458.06061,23.1515152 L1467.21212,23.1515152 Z M1403.15152,100.939394 L1403.15152,118.588745 L1394,118.588745 L1394,100.939394 L1403.15152,100.939394 Z M1492.70563,23.1515152 L1492.70563,57.1428571 L1509.04762,57.1428571 L1509.04762,66.2943723 L1492.70563,66.2943723 L1492.70563,110.090909 L1483.55411,110.090909 L1483.55411,23.1515152 L1492.70563,23.1515152 Z M1535.84848,66.2943723 L1535.84848,75.4458874 L1518.199,75.445 L1518.19913,110.090909 L1509.04762,110.090909 L1509.04762,66.2943723 L1535.84848,66.2943723 Z M1423.41558,91.7878788 L1423.41558,100.939394 L1403.15152,100.939394 L1403.15152,91.7878788 L1423.41558,91.7878788 Z M1483.55411,14 L1483.55411,23.1515152 L1467.21212,23.1515152 L1467.21212,14 L1483.55411,14 Z" id="fuck" fill="#EE481E"></path>
                <path d="M1719.09091,493.272727 L1719.09,516.766 L1810.454,516.766 L1810.45455,493.272727 L1822.63636,493.272727 L1822.63636,528.948052 L1706.90909,528.948052 L1706.90909,493.272727 L1719.09091,493.272727 Z M1706.90909,470.649351 L1706.90909,493.272727 L1694.72727,493.272727 L1694.72727,470.649351 L1706.90909,470.649351 Z M1834.81818,459.337662 L1834.81818,493.272727 L1822.63636,493.272727 L1822.63636,459.337662 L1834.81818,459.337662 Z M1694.72727,448.025974 L1694.72727,470.649351 L1682.54545,470.649351 L1682.54545,448.025974 L1694.72727,448.025974 Z M1847,355.792208 L1847,459.337662 L1834.81818,459.337662 L1834.81818,355.792208 L1847,355.792208 Z M1682.54545,425.402597 L1682.54545,448.025974 L1670.36364,448.025974 L1670.36364,425.402597 L1682.54545,425.402597 Z M1670.36364,413.220779 L1670.36364,425.402597 L1658.18182,425.402597 L1658.18182,413.220779 L1670.36364,413.220779 Z M1743.45455,286.181818 L1743.45455,413.220779 L1731.27273,413.220779 L1731.27273,343.61039 L1709.51948,343.61039 L1709.51948,425.402597 L1697.33766,425.402597 L1697.33766,401.909091 L1685.15584,401.909091 L1685.15584,389.727273 L1697.33766,389.727273 L1697.33766,343.61039 L1709.51948,343.61039 L1709.51948,331.428571 L1731.27273,331.428571 L1731.27273,286.181818 L1743.45455,286.181818 Z M1658.18182,389.727273 L1658.18182,413.220779 L1646,413.220779 L1646,389.727273 L1658.18182,389.727273 Z M1777.38961,286.181818 L1777.38961,331.428571 L1799.14286,331.428571 L1799.14286,343.61039 L1777.38961,343.61039 L1777.38961,401.909091 L1765.20779,401.909091 L1765.20779,286.181818 L1777.38961,286.181818 Z M1834.81818,343.61039 L1834.81818,355.792208 L1811.324,355.792 L1811.32468,401.909091 L1799.14286,401.909091 L1799.14286,343.61039 L1834.81818,343.61039 Z M1685.15584,377.545455 L1685.15584,389.727273 L1658.18182,389.727273 L1658.18182,377.545455 L1685.15584,377.545455 Z M1765.20779,274 L1765.20779,286.181818 L1743.45455,286.181818 L1743.45455,274 L1765.20779,274 Z" id="fuck" fill="#EE481E"></path>
                <path d="M539.818182,911.454545 L539.818,931.324 L617.09,931.324 L617.090909,911.454545 L627.393939,911.454545 L627.393939,941.627706 L529.515152,941.627706 L529.515152,911.454545 L539.818182,911.454545 Z M529.515152,892.320346 L529.515152,911.454545 L519.212121,911.454545 L519.212121,892.320346 L529.515152,892.320346 Z M637.69697,882.753247 L637.69697,911.454545 L627.393939,911.454545 L627.393939,882.753247 L637.69697,882.753247 Z M519.212121,873.186147 L519.212121,892.320346 L508.909091,892.320346 L508.909091,873.186147 L519.212121,873.186147 Z M648,795.177489 L648,882.753247 L637.69697,882.753247 L637.69697,795.177489 L648,795.177489 Z M508.909091,854.051948 L508.909091,873.186147 L498.606061,873.186147 L498.606061,854.051948 L508.909091,854.051948 Z M498.606061,843.748918 L498.606061,854.051948 L488.30303,854.051948 L488.30303,843.748918 L498.606061,843.748918 Z M560.424242,736.30303 L560.424242,843.748918 L550.121212,843.748918 L550.121212,784.874459 L531.722944,784.874459 L531.722944,854.051948 L521.419913,854.051948 L521.419913,834.181818 L511.116883,834.181818 L511.116883,823.878788 L521.419913,823.878788 L521.419913,784.874459 L531.722944,784.874459 L531.722944,774.571429 L550.121212,774.571429 L550.121212,736.30303 L560.424242,736.30303 Z M488.30303,823.878788 L488.30303,843.748918 L478,843.748918 L478,823.878788 L488.30303,823.878788 Z M589.125541,736.30303 L589.125541,774.571429 L607.52381,774.571429 L607.52381,784.874459 L589.125541,784.874459 L589.125541,834.181818 L578.822511,834.181818 L578.822511,736.30303 L589.125541,736.30303 Z M637.69697,784.874459 L637.69697,795.177489 L617.826,795.177 L617.82684,834.181818 L607.52381,834.181818 L607.52381,784.874459 L637.69697,784.874459 Z M511.116883,813.575758 L511.116883,823.878788 L488.30303,823.878788 L488.30303,813.575758 L511.116883,813.575758 Z M578.822511,726 L578.822511,736.30303 L560.424242,736.30303 L560.424242,726 L578.822511,726 Z" id="fuck" fill="#EE481E"></path>
                <path d="M725.51,66.0001 C764.301,66.0001 783.7,79.4941 783.7,106.4801 C783.7,135.1551 761.926,149.4901 718.38,149.4901 L710.79,149.4901 C710.79,159.4591 715.541,164.4401 725.05,164.4401 C730.57,164.4401 737.775,162.5641 746.67,158.8051 C755.56,155.0501 760.24,153.1701 760.7,153.1701 C763.611,153.1701 767.445,157.5401 772.2,166.2801 C776.951,175.0201 779.33,181.4601 779.33,185.6001 C779.33,191.5801 773.195,196.1051 760.93,199.1701 C748.661,202.2361 736.665,203.7701 724.934,203.7701 C713.205,203.7701 703.391,202.8501 695.495,201.0101 C687.596,199.1701 681.156,196.8341 676.175,193.9951 C671.19,191.1601 666.82,187.6701 663.065,183.5301 C659.306,179.3901 656.51,175.4441 654.67,171.6851 C652.83,167.9301 651.371,163.7501 650.3,159.1501 C648.766,152.4051 648,145.4291 648,138.2201 C648,110.3151 655.281,91.0701 669.85,80.4901 C677.056,75.1241 685.105,71.3691 694,69.2201 C702.891,67.0751 713.395,66.0001 725.51,66.0001 Z M1137.8985,66.0004 C1146.9445,66.0004 1154.6885,66.4244 1161.1285,67.2654 C1167.5685,68.1094 1174.1235,69.9104 1180.7935,72.6704 C1187.4635,75.4304 1192.8285,79.1894 1196.8935,83.9404 C1200.9545,88.6944 1204.2895,95.2494 1206.8985,103.6054 C1209.5035,111.9644 1210.8085,121.8904 1210.8085,133.3904 C1210.8085,156.6994 1204.2135,174.2154 1191.0285,185.9454 C1177.8395,197.6754 1160.1295,203.5404 1137.8985,203.5404 C1126.3985,203.5404 1116.5085,202.5414 1108.2285,200.5504 C1099.9495,198.5594 1092.4345,195.0304 1085.6885,189.9704 C1071.7345,179.8504 1064.7585,160.9904 1064.7585,133.3904 C1064.7585,108.8594 1071.8885,91.3004 1086.1485,80.7204 C1099.4895,70.9094 1116.7395,66.0004 1137.8985,66.0004 Z M898.7005,66 C906.8255,66 912.5365,67.305 915.8345,69.91 C919.1305,72.519 920.7805,75.854 920.7805,79.915 C920.7805,83.98 920.4705,89.155 919.8605,95.44 C919.2465,101.729 917.7505,108.55 915.3745,115.91 C912.9965,123.27 909.8915,126.95 906.0605,126.95 C904.5255,126.95 899.6955,125.8 891.5705,123.5 C883.4415,121.2 876.7355,120.05 871.4455,120.05 C866.1555,120.05 862.8565,120.819 861.5555,122.35 C860.2505,123.885 859.6005,126.03 859.6005,128.79 L859.6005,195.95 C859.6005,197.639 855.2665,198.98 846.6055,199.975 C837.9405,200.974 828.9705,201.47 819.6955,201.47 C810.4155,201.47 804.4005,201.05 801.6405,200.205 C798.8795,199.364 797.4995,197.945 797.4995,195.95 L797.4995,82.56 C797.4995,79.649 801.7545,76.505 810.2655,73.13 C818.7755,69.759 828.0505,68.07 838.0945,68.07 C848.1355,68.07 853.7715,70.83 854.9995,76.35 L857.2995,86.93 L858.9105,86.93 C861.0555,81.105 866.1915,76.16 874.3205,72.095 C882.4455,68.034 890.5715,66 898.7005,66 Z M1033.4798,66 C1041.6048,66 1047.3158,67.305 1050.6138,69.91 C1053.9098,72.519 1055.5598,75.854 1055.5598,79.915 C1055.5598,83.98 1055.2498,89.155 1054.6398,95.44 C1054.0258,101.729 1052.5298,108.55 1050.1538,115.91 C1047.7758,123.27 1044.6708,126.95 1040.8398,126.95 C1039.3048,126.95 1034.4748,125.8 1026.3498,123.5 C1018.2208,121.2 1011.5148,120.05 1006.2248,120.05 C1000.9348,120.05 997.6358,120.819 996.3348,122.35 C995.0298,123.885 994.3798,126.03 994.3798,128.79 L994.3798,195.95 C994.3798,197.639 990.0458,198.98 981.3848,199.975 C972.7198,200.974 963.7498,201.47 954.4748,201.47 C945.1948,201.47 939.1798,201.05 936.4198,200.205 C933.6588,199.364 932.2788,197.945 932.2788,195.95 L932.2788,82.56 C932.2788,79.649 936.5338,76.505 945.0448,73.13 C953.5548,69.759 962.8298,68.07 972.8738,68.07 C982.9148,68.07 988.5508,70.83 989.7788,76.35 L992.0788,86.93 L993.6898,86.93 C995.8348,81.105 1000.9708,76.16 1009.0998,72.095 C1017.2248,68.034 1025.3508,66 1033.4798,66 Z M1325.8089,66 C1333.9339,66 1339.6449,67.305 1342.9429,69.91 C1346.2389,72.519 1347.8889,75.854 1347.8889,79.915 C1347.8889,83.98 1347.5789,89.155 1346.9689,95.44 C1346.3549,101.729 1344.8589,108.55 1342.4829,115.91 C1340.1049,123.27 1336.9999,126.95 1333.1689,126.95 C1331.6339,126.95 1326.8039,125.8 1318.6789,123.5 C1310.5499,121.2 1303.8439,120.05 1298.5539,120.05 C1293.2639,120.05 1289.9649,120.819 1288.6639,122.35 C1287.3589,123.885 1286.7089,126.03 1286.7089,128.79 L1286.7089,195.95 C1286.7089,197.639 1282.3749,198.98 1273.7139,199.975 C1265.0489,200.974 1256.0789,201.47 1246.8039,201.47 C1237.5239,201.47 1231.5089,201.05 1228.7489,200.205 C1225.9879,199.364 1224.6079,197.945 1224.6079,195.95 L1224.6079,82.56 C1224.6079,79.649 1228.8629,76.505 1237.3739,73.13 C1245.8839,69.759 1255.1589,68.07 1265.2029,68.07 C1275.2439,68.07 1280.8799,70.83 1282.1079,76.35 L1284.4079,86.93 L1286.0189,86.93 C1288.1639,81.105 1293.2999,76.16 1301.4289,72.095 C1309.5539,68.034 1317.6799,66 1325.8089,66 Z M1138.0135,99.3504 C1136.0945,99.3504 1134.5245,99.9254 1133.2985,101.0754 C1132.0695,102.2254 1130.9195,105.5994 1129.8485,111.1954 C1128.7745,116.7944 1128.2395,124.7294 1128.2395,135.0004 C1128.2395,145.2744 1128.7745,153.1704 1129.8485,158.6904 C1130.9195,164.2104 1132.0345,167.5094 1133.1835,168.5804 C1134.3335,169.6544 1135.8645,170.1904 1137.7845,170.1904 C1139.6995,170.1904 1141.2335,169.6544 1142.3835,168.5804 C1143.5345,167.5094 1144.6045,164.2104 1145.6035,158.6904 C1146.5995,153.1704 1147.0985,146.2344 1147.0985,137.8754 C1147.0985,129.5194 1146.9045,123.0794 1146.5235,118.5554 C1146.1395,114.0344 1145.6795,110.5444 1145.1435,108.0904 C1144.6045,105.6394 1143.8785,103.7204 1142.9585,102.3404 C1141.5785,100.3494 1139.9295,99.3504 1138.0135,99.3504 Z M718.38,99.1201 C713.011,99.1201 710.33,104.7191 710.33,115.9101 L710.33,131.0901 C714.775,131.0901 718.416,129.3291 721.255,125.8001 C724.091,122.2751 725.51,117.9801 725.51,112.9201 C725.51,103.7201 723.131,99.1201 718.38,99.1201 Z" id="error" fill="#FEEFCF"></path>
            </g>
        </g>
    </g>
</svg>