<?xml version="1.0" encoding="UTF-8"?>
<svg width="24px" height="18px" viewBox="0 0 24 18" version="1.1" xmlns="http://www.w3.org/2000/svg" xmlns:xlink="http://www.w3.org/1999/xlink">
    <title>Combined Shape</title>
    <g id="Symbols" stroke="none" stroke-width="1" fill="none" fill-rule="evenodd">
        <g id="incons/support-copy" transform="translate(-8.000000, -10.000000)" fill="#FEEFCF">
            <path d="M15.5750294,11.5171275 C15.7889717,11.0079722 16.3751581,10.7686548 16.8843185,10.9825849 C19.4200335,12.0480686 21.8373815,13.194665 24.1363623,14.4223743 C26.3238978,15.5905691 28.4207929,16.8410301 30.4270476,18.1737574 C30.5962121,18.286131 30.7407958,18.4316857 30.8520346,18.6015986 C31.3057994,19.2947063 31.1117736,20.2244302 30.4186658,20.678195 L30.4186658,20.678195 L29.5580374,21.233515 C27.824509,22.3360027 26.017284,23.3894745 24.1363623,24.3939304 C21.8257645,25.6278434 19.4083758,26.7854269 16.8841962,27.866681 C16.6775639,27.9551937 16.4471348,27.9715006 16.2300966,27.91297 C15.6968872,27.7691747 15.3812047,27.220354 15.5249539,26.6871322 L15.5249539,26.6871322 L17.1210481,20.7686322 C17.1798941,20.5504247 17.3777986,20.3988206 17.6038017,20.3988206 L17.6038017,20.3988206 L22.3385109,20.3988206 C22.9154312,20.3988206 23.3831176,19.9311343 23.3831176,19.3542139 C23.3831176,18.7772935 22.9154312,18.3096072 22.3385109,18.3096072 L22.3385109,18.3096072 L17.6018672,18.3096072 C17.3767716,18.3096072 17.1794262,18.1591949 17.1197555,17.9421524 L17.1197555,17.9421524 L15.5327258,12.1695913 C15.4733186,11.9535073 15.4882165,11.7237311 15.5750294,11.5171275 Z M11.4577919,22.8907881 C12.0943538,22.8907881 12.6103892,23.4068235 12.6103892,24.0433854 C12.6103892,24.6799473 12.0943538,25.1959827 11.4577919,25.1959827 L9.15259731,25.1959827 C8.51603539,25.1959827 8,24.6799473 8,24.0433854 C8,23.4068235 8.51603539,22.8907881 9.15259731,22.8907881 L11.4577919,22.8907881 Z M12.6103892,18.2803989 C13.2469512,18.2803989 13.7629866,18.7964343 13.7629866,19.4329962 C13.7629866,20.0695581 13.2469512,20.5855935 12.6103892,20.5855935 L10.3051946,20.5855935 C9.6686327,20.5855935 9.15259731,20.0695581 9.15259731,19.4329962 C9.15259731,18.7964343 9.6686327,18.2803989 10.3051946,18.2803989 L12.6103892,18.2803989 Z M11.4577919,13.6700096 C12.0943538,13.6700096 12.6103892,14.186045 12.6103892,14.8226069 C12.6103892,15.4591689 12.0943538,15.9752043 11.4577919,15.9752043 L9.15259731,15.9752043 C8.51603539,15.9752043 8,15.4591689 8,14.8226069 C8,14.186045 8.51603539,13.6700096 9.15259731,13.6700096 L11.4577919,13.6700096 Z" id="Combined-Shape"></path>
        </g>
    </g>
</svg>