<?xml version="1.0" encoding="UTF-8"?>
<svg width="40px" height="40px" viewBox="0 0 40 40" version="1.1" xmlns="http://www.w3.org/2000/svg" xmlns:xlink="http://www.w3.org/1999/xlink">
    <title>icon-admin</title>
    <g id="icon-admin" stroke="none" stroke-width="1" fill="none" fill-rule="evenodd">
        <rect id="BG" stroke="#1F1F1F" stroke-width="2" fill="#1F1F1F" x="1" y="1" width="38" height="38" rx="6"></rect>
        <path d="M12.131831,14.4447539 L15.4517986,21.6158807 C15.5678126,21.8664707 15.8650038,21.9755662 16.1155939,21.8595522 C16.2336394,21.8049015 16.3257392,21.7063973 16.3723427,21.5849495 L19.5751846,13.2384157 C19.6741158,12.9806033 19.9633136,12.8518046 20.221126,12.9507358 C20.3553924,13.0022583 20.4609729,13.1090991 20.5108986,13.2439675 L23.5918358,21.5667596 C23.6877008,21.8257277 23.97535,21.957949 24.2343181,21.8620839 C24.3576864,21.8164154 24.4580868,21.7239678 24.5137582,21.6047787 L27.8705603,14.4180637 C27.9874227,14.1678682 28.2849819,14.0597803 28.5351774,14.1766427 C28.7220896,14.2639465 28.8361945,14.457082 28.8224719,14.6629213 L28.1244641,25.133038 C28.0544244,26.1836337 27.1818216,27 26.1288938,27 L13.8711062,27 C12.8181784,27 11.9455756,26.1836337 11.8755359,25.133038 L11.179205,14.6880753 C11.1608363,14.4125445 11.3693073,14.1742919 11.6448381,14.1559232 C11.851295,14.1421594 12.044901,14.2569852 12.131831,14.4447539 Z" id="Rectangle" fill="#FEEFCF"></path>
    </g>
</svg>