<?xml version="1.0" encoding="UTF-8"?>
<svg width="40px" height="40px" viewBox="0 0 40 40" version="1.1" xmlns="http://www.w3.org/2000/svg" xmlns:xlink="http://www.w3.org/1999/xlink">
    <title>icon-invite-game</title>
    <g id="icon-invite-game" stroke="none" stroke-width="1" fill="none" fill-rule="evenodd">
        <rect id="BG" stroke="#1F1F1F" stroke-width="2" fill="#1F1F1F" x="1" y="1" width="38" height="38" rx="6"></rect>
        <path d="M18.8235294,12.9411765 C18.8235294,12.2914297 19.3502532,11.7647059 20,11.7647059 C20.6497468,11.7647059 21.1764706,12.2914297 21.1764706,12.9411765 L21.1764706,14.1176471 L27.4117647,14.1176471 C28.5163342,14.1176471 29.4117647,15.0130776 29.4117647,16.1176471 L29.4117647,26.2352941 C29.4117647,27.3398636 28.5163342,28.2352941 27.4117647,28.2352941 L12.5882353,28.2352941 C11.4836658,28.2352941 10.5882353,27.3398636 10.5882353,26.2352941 L10.5882353,16.1176471 C10.5882353,15.0130776 11.4836658,14.1176471 12.5882353,14.1176471 L18.8235294,14.1176471 L18.8235294,12.9411765 Z M24.1176471,17.9411765 C22.3308435,17.9411765 20.8823529,19.389667 20.8823529,21.1764706 C20.8823529,22.9632742 22.3308435,24.4117647 24.1176471,24.4117647 C25.9044507,24.4117647 27.3529412,22.9632742 27.3529412,21.1764706 C27.3529412,19.389667 25.9044507,17.9411765 24.1176471,17.9411765 Z M16.0147059,17.9411765 L15.75,17.9411765 C15.3703042,17.9411765 15.056509,18.2233304 15.0068466,18.5894059 L15,18.6911765 L14.9990588,20.2931765 L13.3970588,20.2941176 C13.0173631,20.2941176 12.7035679,20.5762715 12.6539054,20.9423471 L12.6470588,21.0441176 L12.6470588,21.3088235 C12.6470588,21.6885193 12.9292127,22.0023145 13.2952883,22.0519769 L13.3970588,22.0588235 L14.9990588,22.0581765 L15,23.6617647 C15,24.0414605 15.2821539,24.3552557 15.6482294,24.4049181 L15.75,24.4117647 L16.0147059,24.4117647 C16.3944016,24.4117647 16.7081968,24.1296108 16.7578593,23.7635353 L16.7647059,23.6617647 L16.7640588,22.0581765 L18.3676471,22.0588235 C18.7473428,22.0588235 19.061138,21.7766696 19.1108004,21.4105941 L19.1176471,21.3088235 L19.1176471,21.0441176 C19.1176471,20.6644219 18.8354932,20.3506267 18.4694176,20.3009643 L18.3676471,20.2941176 L16.7640588,20.2931765 L16.7647059,18.6911765 C16.7647059,18.2769629 16.4289194,17.9411765 16.0147059,17.9411765 Z M24.1176471,19.4117647 C25.0922672,19.4117647 25.8823529,20.2018504 25.8823529,21.1764706 C25.8823529,22.1510907 25.0922672,22.9411765 24.1176471,22.9411765 C23.1430269,22.9411765 22.3529412,22.1510907 22.3529412,21.1764706 C22.3529412,20.2018504 23.1430269,19.4117647 24.1176471,19.4117647 Z" id="invite-game" fill="#FEEFCF"></path>
    </g>
</svg>