<?xml version="1.0" encoding="UTF-8"?>
<svg width="40px" height="40px" viewBox="0 0 40 40" version="1.1" xmlns="http://www.w3.org/2000/svg" xmlns:xlink="http://www.w3.org/1999/xlink">
    <title>icon-block</title>
    <g id="icon-block" stroke="none" stroke-width="1" fill="none" fill-rule="evenodd">
        <rect id="BG" stroke="#1F1F1F" stroke-width="2" fill="#1F1F1F" x="1" y="1" width="38" height="38" rx="6"></rect>
        <path d="M19.9386406,12.0983893 C24.4868679,12.0983893 28.1739347,15.7854561 28.1739347,20.3336835 C28.1739347,24.8819108 24.4868679,28.5689776 19.9386406,28.5689776 C15.3904132,28.5689776 11.7033465,24.8819108 11.7033465,20.3336835 C11.7033465,15.7854561 15.3904132,12.0983893 19.9386406,12.0983893 Z M24.8010307,17.5775269 L17.182484,25.1960735 C17.9958029,25.6580816 18.9364105,25.9219188 19.9386406,25.9219188 C23.0249377,25.9219188 25.5268759,23.4199806 25.5268759,20.3336835 C25.5268759,19.3314534 25.2630387,18.3908458 24.8010307,17.5775269 Z M19.9386406,14.7454482 C16.8523435,14.7454482 14.3504053,17.2473863 14.3504053,20.3336835 C14.3504053,21.3493125 14.6213442,22.3016604 15.0948866,23.1223917 L22.7273489,15.4899294 C21.9066175,15.016387 20.9542696,14.7454482 19.9386406,14.7454482 Z" id="block" fill="#feefcf"></path>
    </g>
</svg>