<?xml version="1.0" encoding="UTF-8"?>
<svg width="40px" height="40px" viewBox="0 0 40 40" version="1.1" xmlns="http://www.w3.org/2000/svg" xmlns:xlink="http://www.w3.org/1999/xlink">
    <title>icon-exclure</title>
    <g id="icon-exclure" stroke="none" stroke-width="1" fill="none" fill-rule="evenodd">
        <rect id="BG" stroke="#1F1F1F" stroke-width="2" fill="#1F1F1F" x="1" y="1" width="38" height="38" rx="6"></rect>
        <path d="M24.2848297,11.1764706 C25.3893992,11.1764706 26.2848297,12.0719011 26.2848297,13.1764706 L26.2839412,15.8544706 L25.3746943,15.2607835 C25.0263158,15.033324 24.6276379,14.8970113 24.2151633,14.8627069 L24.0079454,14.8541056 C22.7376904,14.8541056 21.6887046,15.8014711 21.5289965,17.0281933 L21.513263,17.1897299 L21.5120929,17.2132913 L20.3900929,17.2136223 C19.3357311,17.2136223 18.4719278,18.0295001 18.3955786,19.0643599 L18.3900929,19.2136223 L18.3900929,20.7863777 C18.3900929,21.8407395 19.2059707,22.7045428 20.2408305,22.780892 L20.3900929,22.7863777 L21.5119436,22.7871947 C21.5366211,23.2230238 21.6750766,23.6457025 21.9146233,24.0125939 C22.6380065,25.1205325 24.0908696,25.4654511 25.2282195,24.8279137 L25.3746943,24.739167 L26.2839412,24.1444706 L26.2848297,26.8235294 C26.2848297,27.9280989 25.3893992,28.8235294 24.2848297,28.8235294 L14.3529412,28.8235294 C13.2483717,28.8235294 12.3529412,27.9280989 12.3529412,26.8235294 L12.3529412,13.1764706 C12.3529412,12.0719011 13.2483717,11.1764706 14.3529412,11.1764706 L24.2848297,11.1764706 Z M24.0340557,16.2498943 C24.2282168,16.2498943 24.4181787,16.3064177 24.5807553,16.4125655 L28.792836,19.1626712 C29.2552799,19.464605 29.3853991,20.0842556 29.0834652,20.5466996 C29.0077573,20.6626544 28.9087908,20.7616209 28.792836,20.8373288 L24.5807553,23.5874345 C24.1183114,23.8893683 23.4986607,23.7592492 23.1967269,23.2968052 C23.0905791,23.1342286 23.0340557,22.9442667 23.0340557,22.7501057 L23.0332817,21.3925686 L20.7832817,21.3931889 C20.230997,21.3931889 19.7832817,20.9454736 19.7832817,20.3931889 L19.7832817,19.6068111 C19.7832817,19.0545264 20.230997,18.6068111 20.7832817,18.6068111 L23.0332817,18.6065686 L23.0340557,17.2498943 C23.0340557,16.6976096 23.481771,16.2498943 24.0340557,16.2498943 Z" id="exclure" fill="#FEEFCF"></path>
    </g>
</svg>