<?xml version="1.0" encoding="UTF-8"?>
<svg width="40px" height="40px" viewBox="0 0 40 40" version="1.1" xmlns="http://www.w3.org/2000/svg" xmlns:xlink="http://www.w3.org/1999/xlink">
    <title>icon-bannir</title>
    <g id="icon-bannir" stroke="none" stroke-width="1" fill="none" fill-rule="evenodd">
        <rect id="BG" stroke="#1F1F1F" stroke-width="2" fill="#1F1F1F" x="1" y="1" width="38" height="38" rx="6"></rect>
        <path d="M27.3671927,26.5079014 C27.8122618,26.5079014 28.1795438,26.8409474 28.2334152,27.2714157 L28.2402173,27.3809261 C28.2402173,27.8610553 28.629439,28.250277 29.1095682,28.250277 L29.1555622,28.2500907 C29.6377653,28.2480573 30.0303166,28.6373117 30.03235,29.1195148 L30.0323578,29.1231967 C30.0323578,29.6074418 29.6397995,30 29.1555544,30 L14.7917831,30 C14.307538,30 13.9149798,29.6074418 13.9149798,29.1231967 C13.9149798,28.6389516 14.307538,28.2463933 14.7917831,28.2463933 L14.8735843,28.2463933 C15.3536555,28.2463933 15.7428302,27.8572187 15.7428302,27.3771474 C15.7428302,26.8970761 16.1320049,26.5079014 16.6120762,26.5079014 L27.3671927,26.5079014 Z M17.0000211,10.5860791 L17.8391231,11.3685543 L17.5802868,11.8746693 C17.3288163,12.3663816 17.5235708,12.9688503 18.0152831,13.2203209 C18.3194495,13.375877 18.6819808,13.3653894 18.9766459,13.1925098 L19.4790099,12.8977735 L20.5905552,13.9336671 L20.8482838,13.6585624 C21.2626184,13.2142429 21.958695,13.1899354 22.4030144,13.60427 L22.955094,14.1190926 C23.3994134,14.5334271 23.423721,15.2295037 23.0093864,15.6738231 L22.7517054,15.9489723 L23.8605282,16.9836054 L23.601553,17.5053055 C23.4496493,17.8113123 23.4644762,18.1736921 23.640871,18.4662665 C23.9056606,18.9054555 24.4544983,19.0681064 24.9102412,18.8607879 L25.0135885,18.8063352 L25.500415,18.5128246 L26.339517,19.2952999 C26.7123621,19.6429835 26.7598708,20.2089013 26.4687225,20.6115987 L26.3888724,20.7086519 L22.7147172,24.6487009 C22.3670336,25.021546 21.8011158,25.0690547 21.3984184,24.7779064 L21.3013652,24.6980563 L20.4622632,23.915581 L20.7009827,23.4219338 C20.8427032,23.1288704 20.832905,22.7851654 20.6747189,22.5006516 C20.425516,22.0524346 19.8827288,21.8706101 19.4199864,22.0617959 L19.3147907,22.1125858 L18.8223764,22.3863618 L17.7137835,21.3514821 L12.4182601,27.0314155 C12.0039256,27.475735 11.307849,27.5000425 10.8635296,27.0857079 L10.3114499,26.5708853 C9.86713053,26.1565508 9.842823,25.4604742 10.2571576,25.0161548 L15.5526334,19.3361769 L14.4408581,18.3005299 L14.6796182,17.7902175 C14.9136657,17.2899773 14.6978739,16.6947195 14.1976338,16.460672 C13.9027786,16.322718 13.5592274,16.3369192 13.2767637,16.4987377 L12.8009713,16.7713107 L11.9618693,15.9888355 C11.5579538,15.6121782 11.5358566,14.9793989 11.9125139,14.5754834 L15.5866691,10.6354344 C15.9633264,10.2315189 16.5961056,10.2094218 17.0000211,10.5860791 Z" id="bannir" fill="#FEEFCF"></path>
    </g>
</svg>