<?xml version="1.0" encoding="UTF-8"?>
<svg width="40px" height="40px" viewBox="0 0 40 40" version="1.1" xmlns="http://www.w3.org/2000/svg" xmlns:xlink="http://www.w3.org/1999/xlink">
    <title>icon-mute</title>
    <g id="icon-mute" stroke="none" stroke-width="1" fill="none" fill-rule="evenodd">
        <rect id="BG" stroke="#1F1F1F" stroke-width="2" fill="#1F1F1F" x="1" y="1" width="38" height="38" rx="6"></rect>
        <path d="M28.4104445,13.6649506 C29.0718676,13.9911957 29.5268759,14.6723071 29.5268759,15.4596914 L29.5268759,25.5773385 C29.5268759,26.681908 28.6314454,27.5773385 27.5268759,27.5773385 L18.266406,27.5773385 C18.1596012,27.5773385 18.055603,27.6115388 17.9696447,27.6749299 L15.7993223,29.2754614 C15.5770782,29.4393581 15.2640491,29.3920582 15.1001524,29.169814 C15.0367613,29.0838557 15.002561,28.9798575 15.002561,28.8730527 L15.002561,28.0773385 C15.002561,27.8011961 14.7787034,27.5773385 14.502561,27.5773385 L14.4963465,27.576646 L28.4104445,13.6649506 Z M28.0463092,10.9295534 L28.2334845,11.1167287 C28.5263777,11.409622 28.5263777,11.8844957 28.2334845,12.1773889 L11.8244477,28.5864257 C11.5315545,28.8793189 11.0566808,28.8793189 10.7637876,28.5864257 L10.5766122,28.3992504 C10.283719,28.1063571 10.283719,27.6314834 10.5766122,27.3385902 L26.985649,10.9295534 C27.2785422,10.6366602 27.753416,10.6366602 28.0463092,10.9295534 Z M22.7913465,13.459646 L10.7033465,25.548646 L10.7033465,15.4596914 C10.7033465,14.3551219 11.598777,13.4596914 12.7033465,13.4596914 L22.7913465,13.459646 Z" id="mute" fill="#feefcf"></path>
    </g>
</svg>