<?xml version="1.0" encoding="UTF-8"?>
<svg width="64px" height="86px" viewBox="0 0 64 86" version="1.1" xmlns="http://www.w3.org/2000/svg" xmlns:xlink="http://www.w3.org/1999/xlink">
    <title>illu-pouce</title>
    <g id="UI" stroke="none" stroke-width="1" fill="none" fill-rule="evenodd">
        <g id="pong-in-game-copy" transform="translate(-729.000000, -315.000000)" fill="#EE481E">
            <path d="M781.587838,397.513514 L781.587838,401 L747.594595,401 L747.594595,397.513514 L781.587838,397.513514 Z M747.594595,394.027027 L747.594595,397.513514 L740.040541,397.513514 L740.040541,394.027027 L747.594595,394.027027 Z M785.074324,385.310811 L785.074324,397.513514 L781.587838,397.513514 L781.587,388.797 L768.804054,388.797297 L768.804054,385.310811 L785.074324,385.310811 Z M750.5,346.378378 L750.5,349.864865 L739.75,349.864865 L739.75,353.351351 L732.486,353.351 L732.486,390.54 L740.040541,390.540541 L740.040541,394.027027 L729,394.027027 L729,349.864865 L739.75,349.864865 L739.75,346.378378 L750.5,346.378378 Z M788.560811,373.108108 L788.560811,385.310811 L785.074324,385.310811 L785.074,376.594 L772.290541,376.594595 L772.290541,373.108108 L788.560811,373.108108 Z M792.047297,364.101351 L792.047297,373.108108 L788.560811,373.108108 L788.560811,364.101351 L792.047297,364.101351 Z M788.560811,360.614865 L788.560811,364.101351 L777.22973,364.101351 L777.22973,360.614865 L788.560811,360.614865 Z M792.047297,351.608108 L792.047297,360.614865 L788.560811,360.614865 L788.560811,351.608108 L792.047297,351.608108 Z M788.560811,348.121622 L788.560811,351.608108 L772.871622,351.608108 L772.871622,348.121622 L788.560811,348.121622 Z M772.871622,339.114865 L772.871622,348.121622 L769.385135,348.121622 L769.385135,339.114865 L772.871622,339.114865 Z M753.986486,342.891892 L753.986486,346.378378 L750.5,346.378378 L750.5,342.891892 L753.986486,342.891892 Z M757.472973,334.756757 L757.472973,342.891892 L753.986486,342.891892 L753.986486,334.756757 L757.472973,334.756757 Z M776.358108,318.486486 L776.358108,339.114865 L772.871622,339.114865 L772.871622,318.486486 L776.358108,318.486486 Z M760.959459,326.621622 L760.959459,334.756757 L757.472973,334.756757 L757.472973,326.621622 L760.959459,326.621622 Z M764.445946,318.486486 L764.445946,326.621622 L760.959459,326.621622 L760.959459,318.486486 L764.445946,318.486486 Z M772.871622,315 L772.871622,318.486486 L764.445946,318.486486 L764.445946,315 L772.871622,315 Z" id="illu-pouce"></path>
        </g>
    </g>
</svg>