<?xml version="1.0" encoding="UTF-8"?>
<svg width="17px" height="17px" viewBox="0 0 17 17" version="1.1" xmlns="http://www.w3.org/2000/svg" xmlns:xlink="http://www.w3.org/1999/xlink">
    <title>icon-invite-game</title>
    <g id="icon-invite-game" stroke="none" stroke-width="1" fill="none" fill-rule="evenodd">
        <path d="M7.5,2.5 C7.5,1.94771525 7.94771525,1.5 8.5,1.5 C9.05228475,1.5 9.5,1.94771525 9.5,2.5 L9.5,3.5 L14.5,3.5 C15.6045695,3.5 16.5,4.3954305 16.5,5.5 L16.5,13.5 C16.5,14.6045695 15.6045695,15.5 14.5,15.5 L2.5,15.5 C1.3954305,15.5 0.5,14.6045695 0.5,13.5 L0.5,5.5 C0.5,4.3954305 1.3954305,3.5 2.5,3.5 L7.5,3.5 L7.5,2.5 Z M12,6.75 C10.4812169,6.75 9.25,7.98121694 9.25,9.5 C9.25,11.0187831 10.4812169,12.25 12,12.25 C13.5187831,12.25 14.75,11.0187831 14.75,9.5 C14.75,7.98121694 13.5187831,6.75 12,6.75 Z M5,6.75 C4.62030423,6.75 4.30650904,7.03215388 4.25684662,7.39822944 L4.25,7.5 L4.25,8.75 L3,8.75 C2.58578644,8.75 2.25,9.08578644 2.25,9.5 C2.25,9.87969577 2.53215388,10.193491 2.89822944,10.2431534 L3,10.25 L4.25,10.25 L4.25,11.5 C4.25,11.9142136 4.58578644,12.25 5,12.25 C5.37969577,12.25 5.69349096,11.9678461 5.74315338,11.6017706 L5.75,11.5 L5.75,10.25 L7,10.25 C7.41421356,10.25 7.75,9.91421356 7.75,9.5 C7.75,9.12030423 7.46784612,8.80650904 7.10177056,8.75684662 L7,8.75 L5.75,8.75 L5.75,7.5 C5.75,7.08578644 5.41421356,6.75 5,6.75 Z M12,8 C12.8284271,8 13.5,8.67157288 13.5,9.5 C13.5,10.3284271 12.8284271,11 12,11 C11.1715729,11 10.5,10.3284271 10.5,9.5 C10.5,8.67157288 11.1715729,8 12,8 Z" id="Combined-Shape" fill="#EE481E"></path>
    </g>
</svg>