<?xml version="1.0" encoding="UTF-8"?>
<svg width="12px" height="15px" viewBox="0 0 12 15" version="1.1" xmlns="http://www.w3.org/2000/svg" xmlns:xlink="http://www.w3.org/1999/xlink">
    <title>Combined Shape</title>
    <g id="UI" stroke="none" stroke-width="1" fill="none" fill-rule="evenodd">
        <g id="Chat-creer-un-groupe" transform="translate(-561.000000, -305.000000)" fill="#9C9381">
            <path d="M567,305 C568.893548,305 570.428571,306.535024 570.428571,308.428571 L570.428,309.714 L571,309.714286 C572.104569,309.714286 573,310.609716 573,311.714286 L573,318 C573,319.104569 572.104569,320 571,320 L563,320 C561.895431,320 561,319.104569 561,318 L561,311.714286 C561,310.609716 561.895431,309.714286 563,309.714286 L563.571,309.714 L563.571429,308.428571 C563.571429,306.535024 565.106452,305 567,305 Z M567,312.285714 C566.171573,312.285714 565.5,312.957287 565.5,313.785714 C565.5,314.340752 565.80146,314.82538 566.249579,315.084797 L566.249579,315.084797 L566.25,316.678571 C566.25,317.092785 566.585786,317.428571 567,317.428571 C567.414214,317.428571 567.75,317.092785 567.75,316.678571 L567.75,316.678571 L567.751421,315.084218 C568.198988,314.824659 568.5,314.340339 568.5,313.785714 C568.5,312.957287 567.828427,312.285714 567,312.285714 Z M567,306.5 C565.934879,306.5 565.071429,307.363451 565.071429,308.428571 L565.071,309.714 L568.928,309.714 L568.928571,308.428571 C568.928571,307.363451 568.065121,306.5 567,306.5 Z" id="Combined-Shape"></path>
        </g>
    </g>
</svg>