<?xml version="1.0" encoding="UTF-8"?>
<svg width="196px" height="55px" viewBox="0 0 196 55" version="1.1" xmlns="http://www.w3.org/2000/svg" xmlns:xlink="http://www.w3.org/1999/xlink">
    <title>logo</title>
    <g id="Symbols" stroke="none" stroke-width="1" fill="none" fill-rule="evenodd">
        <g id="header-copy-2" transform="translate(-42.000000, -52.000000)">
            <g id="logo" transform="translate(42.000000, 55.000000)">
                <rect id="Rectangle-Copy-3" fill="#EFC10A" x="180" y="0" width="16" height="16.3333333"></rect>
                <rect id="Rectangle-Copy-6" fill="#EFC10A" x="0" y="0" width="36" height="16.3333333"></rect>
                <rect id="Rectangle-Copy-4" fill="#EF7E00" x="180" y="16.3333333" width="16" height="16.3333333"></rect>
                <rect id="Rectangle-Copy-7" fill="#EF7E00" x="0" y="16.3333333" width="36" height="16.3333333"></rect>
                <rect id="Rectangle-Copy-5" fill="#EE481E" x="180" y="32.6666667" width="16" height="16.3333333"></rect>
                <rect id="Rectangle-Copy-8" fill="#EE481E" x="0" y="32.6666667" width="36" height="16.3333333"></rect>
                <g id="LOGO" transform="translate(48.000000, 2.999700)">
                    <path d="M79.4454013,0 C81.6692785,0 83.7709776,0.520725619 85.6385999,1.44293568 C90.2681531,3.72907681 93.4535959,8.49578679 93.4535959,14.0084883 L93.4535959,14.0084883 L93.4531763,16.9315526 C95.6140944,8.0427415 103.495224,1.28733196 112.959778,0.899301661 C115.418319,0.79826973 117.786696,1.12368653 120,1.80300878 L120,1.80300878 L120,10.2429931 C117.946467,9.15073215 115.570455,8.58477712 113.049943,8.73221325 C106.474057,9.11725064 101.1317,14.4337623 100.720523,21.0078865 C100.278802,28.0774784 105.429962,34.0339568 112.172081,34.887148 L112.172081,34.887148 L112.172081,28.378812 L108.207753,28.378812 L108.207753,21.4534256 L120,21.4534256 L120,41.9018184 C119.560629,42.0369192 119.114502,42.155573 118.663383,42.2621852 C117.113835,42.6275449 115.498793,42.8237348 113.83764,42.8237348 C103.959638,42.8237348 95.676884,35.994492 93.4531643,26.7999691 L93.4535959,42.2621852 L85.6256772,42.2621852 L85.6256772,14.0084883 C85.6256772,10.5951363 82.8587533,7.82791873 79.4454013,7.82791873 C76.0320492,7.82791873 73.2651254,10.5951363 73.2651254,14.0084883 L73.2651254,14.0084883 L73.2651254,42.2621852 L65.4369129,42.2621852 L65.4374786,26.800419 C63.213623,35.9946739 54.9308877,42.8237935 45.0530748,42.8237935 C33.4708213,42.8237935 24.0816068,33.434579 24.0816068,21.8526192 C24.0816068,21.2001219 24.1114057,20.5545847 24.1697169,19.9172943 C22.0745199,24.0957848 17.7524301,26.9631314 12.7599804,26.9631314 L12.7599804,26.9631314 L7.82791873,26.9631314 L7.82791873,42.2621265 L0,42.2621265 L0,1.44287694 L12.7604209,1.44287694 L12.7604209,1.44287694 L13.0910054,1.44706594 C18.2473294,1.57805745 22.6425516,4.76874995 24.5310814,9.27079568 C25.1678175,10.7883305 25.5202545,12.4544763 25.5202545,14.203151 L25.5202545,14.203151 L25.6344805,13.9183386 C28.762837,6.2698188 36.2786403,0.881151157 45.0530748,0.881151157 C54.9306836,0.881151157 63.2132807,7.70998852 65.4373407,16.9041379 L65.4369129,14.0084883 C65.4369129,8.49578679 68.6226494,3.72907681 73.2522027,1.44293568 C75.1198249,0.520725619 77.2212303,0 79.4454013,0 Z M45.0530748,8.70906989 C37.7940481,8.70906989 31.9098192,14.5935925 31.9098192,21.8526192 C31.9098192,29.1113522 37.7940481,34.9958748 45.0530748,34.9958748 C52.3121015,34.9958748 58.1963304,29.1113522 58.1963304,21.8526192 C58.1963304,14.5935925 52.3121015,8.70906989 45.0530748,8.70906989 Z M12.7599804,9.27079568 L7.82791873,9.27079568 L7.82791873,19.1352127 L12.7599804,19.1352127 C15.4840244,19.1352127 17.6923357,16.9269014 17.6923357,14.203151 C17.6923357,11.479107 15.4840244,9.27079568 12.7599804,9.27079568 L12.7599804,9.27079568 Z" id="Combined-Shape" stroke="#EFC10A" stroke-width="11" stroke-linejoin="round"></path>
                    <path d="M79.4454013,0 C81.6692785,0 83.7709776,0.520725619 85.6385999,1.44293568 C90.2681531,3.72907681 93.4535959,8.49578679 93.4535959,14.0084883 L93.4535959,14.0084883 L93.4531763,16.9315526 C95.6140944,8.0427415 103.495224,1.28733196 112.959778,0.899301661 C115.418319,0.79826973 117.786696,1.12368653 120,1.80300878 L120,1.80300878 L120,10.2429931 C117.946467,9.15073215 115.570455,8.58477712 113.049943,8.73221325 C106.474057,9.11725064 101.1317,14.4337623 100.720523,21.0078865 C100.278802,28.0774784 105.429962,34.0339568 112.172081,34.887148 L112.172081,34.887148 L112.172081,28.378812 L108.207753,28.378812 L108.207753,21.4534256 L120,21.4534256 L120,41.9018184 C119.560629,42.0369192 119.114502,42.155573 118.663383,42.2621852 C117.113835,42.6275449 115.498793,42.8237348 113.83764,42.8237348 C103.959638,42.8237348 95.676884,35.994492 93.4531643,26.7999691 L93.4535959,42.2621852 L85.6256772,42.2621852 L85.6256772,14.0084883 C85.6256772,10.5951363 82.8587533,7.82791873 79.4454013,7.82791873 C76.0320492,7.82791873 73.2651254,10.5951363 73.2651254,14.0084883 L73.2651254,14.0084883 L73.2651254,42.2621852 L65.4369129,42.2621852 L65.4374786,26.800419 C63.213623,35.9946739 54.9308877,42.8237935 45.0530748,42.8237935 C33.4708213,42.8237935 24.0816068,33.434579 24.0816068,21.8526192 C24.0816068,21.2001219 24.1114057,20.5545847 24.1697169,19.9172943 C22.0745199,24.0957848 17.7524301,26.9631314 12.7599804,26.9631314 L12.7599804,26.9631314 L7.82791873,26.9631314 L7.82791873,42.2621265 L0,42.2621265 L0,1.44287694 L12.7604209,1.44287694 L12.7604209,1.44287694 L13.0910054,1.44706594 C18.2473294,1.57805745 22.6425516,4.76874995 24.5310814,9.27079568 C25.1678175,10.7883305 25.5202545,12.4544763 25.5202545,14.203151 L25.5202545,14.203151 L25.6344805,13.9183386 C28.762837,6.2698188 36.2786403,0.881151157 45.0530748,0.881151157 C54.9306836,0.881151157 63.2132807,7.70998852 65.4373407,16.9041379 L65.4369129,14.0084883 C65.4369129,8.49578679 68.6226494,3.72907681 73.2522027,1.44293568 C75.1198249,0.520725619 77.2212303,0 79.4454013,0 Z M45.0530748,8.70906989 C37.7940481,8.70906989 31.9098192,14.5935925 31.9098192,21.8526192 C31.9098192,29.1113522 37.7940481,34.9958748 45.0530748,34.9958748 C52.3121015,34.9958748 58.1963304,29.1113522 58.1963304,21.8526192 C58.1963304,14.5935925 52.3121015,8.70906989 45.0530748,8.70906989 Z M12.7599804,9.27079568 L7.82791873,9.27079568 L7.82791873,19.1352127 L12.7599804,19.1352127 C15.4840244,19.1352127 17.6923357,16.9269014 17.6923357,14.203151 C17.6923357,11.479107 15.4840244,9.27079568 12.7599804,9.27079568 L12.7599804,9.27079568 Z" id="Combined-Shape" stroke="#EF7E00" stroke-width="6" stroke-linejoin="round"></path>
                    <path d="M79.4454013,0 C81.6692785,0 83.7709776,0.520725619 85.6385999,1.44293568 C90.2681531,3.72907681 93.4535959,8.49578679 93.4535959,14.0084883 L93.4535959,14.0084883 L93.4531763,16.9315526 C95.6140944,8.0427415 103.495224,1.28733196 112.959778,0.899301661 C115.418319,0.79826973 117.786696,1.12368653 120,1.80300878 L120,1.80300878 L120,10.2429931 C117.946467,9.15073215 115.570455,8.58477712 113.049943,8.73221325 C106.474057,9.11725064 101.1317,14.4337623 100.720523,21.0078865 C100.278802,28.0774784 105.429962,34.0339568 112.172081,34.887148 L112.172081,34.887148 L112.172081,28.378812 L108.207753,28.378812 L108.207753,21.4534256 L120,21.4534256 L120,41.9018184 C119.560629,42.0369192 119.114502,42.155573 118.663383,42.2621852 C117.113835,42.6275449 115.498793,42.8237348 113.83764,42.8237348 C103.959638,42.8237348 95.676884,35.994492 93.4531643,26.7999691 L93.4535959,42.2621852 L85.6256772,42.2621852 L85.6256772,14.0084883 C85.6256772,10.5951363 82.8587533,7.82791873 79.4454013,7.82791873 C76.0320492,7.82791873 73.2651254,10.5951363 73.2651254,14.0084883 L73.2651254,14.0084883 L73.2651254,42.2621852 L65.4369129,42.2621852 L65.4374786,26.800419 C63.213623,35.9946739 54.9308877,42.8237935 45.0530748,42.8237935 C33.4708213,42.8237935 24.0816068,33.434579 24.0816068,21.8526192 C24.0816068,21.2001219 24.1114057,20.5545847 24.1697169,19.9172943 C22.0745199,24.0957848 17.7524301,26.9631314 12.7599804,26.9631314 L12.7599804,26.9631314 L7.82791873,26.9631314 L7.82791873,42.2621265 L0,42.2621265 L0,1.44287694 L12.7604209,1.44287694 L12.7604209,1.44287694 L13.0910054,1.44706594 C18.2473294,1.57805745 22.6425516,4.76874995 24.5310814,9.27079568 C25.1678175,10.7883305 25.5202545,12.4544763 25.5202545,14.203151 L25.5202545,14.203151 L25.6344805,13.9183386 C28.762837,6.2698188 36.2786403,0.881151157 45.0530748,0.881151157 C54.9306836,0.881151157 63.2132807,7.70998852 65.4373407,16.9041379 L65.4369129,14.0084883 C65.4369129,8.49578679 68.6226494,3.72907681 73.2522027,1.44293568 C75.1198249,0.520725619 77.2212303,0 79.4454013,0 Z M45.0530748,8.70906989 C37.7940481,8.70906989 31.9098192,14.5935925 31.9098192,21.8526192 C31.9098192,29.1113522 37.7940481,34.9958748 45.0530748,34.9958748 C52.3121015,34.9958748 58.1963304,29.1113522 58.1963304,21.8526192 C58.1963304,14.5935925 52.3121015,8.70906989 45.0530748,8.70906989 Z M12.7599804,9.27079568 L7.82791873,9.27079568 L7.82791873,19.1352127 L12.7599804,19.1352127 C15.4840244,19.1352127 17.6923357,16.9269014 17.6923357,14.203151 C17.6923357,11.479107 15.4840244,9.27079568 12.7599804,9.27079568 L12.7599804,9.27079568 Z" id="Combined-Shape-Copy" fill="#121212"></path>
                </g>
            </g>
        </g>
    </g>
</svg>