<?xml version="1.0" encoding="UTF-8"?>
<svg width="24px" height="24px" viewBox="0 0 24 24" version="1.1" xmlns="http://www.w3.org/2000/svg" xmlns:xlink="http://www.w3.org/1999/xlink">
    <title>mute</title>
    <g id="UI" stroke="none" stroke-width="1" fill="none" fill-rule="evenodd">
        <g id="Chat-mes-groupes-Copy" transform="translate(-1119.000000, -638.000000)" fill="#F1A726">
            <g id="mute" transform="translate(1119.000000, 638.000000)">
                <path d="M22.1902598,4.30027113 C22.9189722,4.59894433 23.4322511,5.31534568 23.4322511,6.15162973 L23.4322511,19.0928062 C23.4322511,20.1973757 22.5368206,21.0928062 21.4322511,21.0928062 L9.88680171,21.0928062 C9.77999698,21.0928062 9.67599869,21.1270065 9.59004039,21.1903976 L6.79983455,23.24807 C6.57759039,23.4119667 6.26456133,23.3646668 6.10066458,23.1424226 C6.03727355,23.0564643 6.00307323,22.9524661 6.00307323,22.8456613 L6.00307323,21.5928062 C6.00307323,21.3166638 5.7792156,21.0928062 5.50307323,21.0928062 L5.39601577,21.0925753 L22.1902598,4.30027113 Z M21.549505,1.00939808 L21.9862474,1.4461405 C22.2791406,1.73903372 22.2791406,2.21390746 21.9862474,2.50680067 L2.08327126,22.4097768 C1.79037804,22.7026701 1.31550431,22.7026701 1.02261109,22.4097768 L0.585868667,21.9730344 C0.292975448,21.6801412 0.292975448,21.2052675 0.585868667,20.9123742 L20.4888448,1.00939808 C20.7817381,0.71650486 21.2566118,0.71650486 21.549505,1.00939808 Z M15.3500158,4.15157526 L0.844015775,18.6575753 L0.844015775,6.15162973 C0.844015775,5.04706023 1.73944628,4.15162973 2.84401577,4.15162973 L15.3500158,4.15157526 Z" id="Combined-Shape"></path>
            </g>
        </g>
    </g>
</svg>