<?xml version="1.0" encoding="UTF-8"?>
<svg width="10px" height="10px" viewBox="0 0 10 10" version="1.1" xmlns="http://www.w3.org/2000/svg" xmlns:xlink="http://www.w3.org/1999/xlink">
    <title>Combined Shape</title>
    <g id="Symbols" stroke="none" stroke-width="1" fill="none" fill-rule="evenodd">
        <g id="addfriend" transform="translate(-5.000000, -5.000000)" fill="#EE481E">
            <path d="M11,5.5 C11.2761424,5.5 11.5,5.72385763 11.5,6 L11.5,8.5 L14,8.5 C14.2761424,8.5 14.5,8.72385763 14.5,9 L14.5,11 C14.5,11.2761424 14.2761424,11.5 14,11.5 L11.5,11.5 L11.5,14 C11.5,14.2761424 11.2761424,14.5 11,14.5 L9,14.5 C8.72385763,14.5 8.5,14.2761424 8.5,14 L8.5,11.5 L6,11.5 C5.72385763,11.5 5.5,11.2761424 5.5,11 L5.5,9 C5.5,8.72385763 5.72385763,8.5 6,8.5 L8.5,8.5 L8.5,6 C8.5,5.72385763 8.72385763,5.5 9,5.5 L11,5.5 Z" id="Combined-Shape"></path>
        </g>
    </g>
</svg>