<?xml version="1.0" encoding="UTF-8"?>
<svg width="42px" height="42px" viewBox="0 0 42 42" version="1.1" xmlns="http://www.w3.org/2000/svg" xmlns:xlink="http://www.w3.org/1999/xlink">
    <title>settings</title>
    <g id="UI" stroke="none" stroke-width="1" fill="none" fill-rule="evenodd">
        <g id="Chat" transform="translate(-975.000000, -212.000000)" stroke="#EE481E">
            <g id="settings" transform="translate(975.999800, 213.000000)">
                <path d="M19.4036615,28.0577256 C15.2901187,28.0577256 11.9404854,24.7086887 11.9404854,20.5951458 C11.9404854,16.4821993 15.2901187,13.132566 19.4036615,13.132566 C23.5172044,13.132566 26.8668376,16.4821993 26.8668376,20.5951458 C26.8668376,24.7086887 23.5172044,28.0577256 19.4036615,28.0577256 M32.1474149,16.5686684 C31.9023198,15.7981991 31.6160773,15.0998867 31.2666229,14.434373 C30.9624903,13.85831 31.0698312,13.1474745 31.5325899,12.6882939 L35.2340629,8.98682092 L31.0131791,4.76593715 L27.3111098,8.4674101 C26.8489475,8.92718707 26.138112,9.034528 25.5650307,8.73278073 C24.899517,8.38392271 24.2006083,8.0970839 23.4307353,7.85258513 C22.8099469,7.65519709 22.388932,7.07913412 22.388932,6.42852883 L22.388932,1.19267696 L16.4183911,1.19267696 L16.4183911,6.42852883 C16.4183911,7.07913412 15.9973761,7.65519709 15.3765878,7.85258513 C14.6067148,8.0970839 13.9078061,8.38392271 13.2422923,8.73278073 C12.6662294,9.034528 11.9589719,8.93016876 11.4962133,8.4674101 L7.79414396,4.76593715 L3.57326018,8.98682092 L7.27473314,12.6882939 C7.73451011,13.1474745 7.84483273,13.8553283 7.5407001,14.434373 C7.19124575,15.0998867 6.90500328,15.7981991 6.65990816,16.5686684 C6.46311646,17.1894567 5.88705349,17.6104717 5.23585187,17.6104717 L0,17.6104717 L0,23.5804162 L5.23585187,23.5804162 C5.88705349,23.5804162 6.46311646,24.0014312 6.65990816,24.6222196 C6.90500328,25.3920926 7.19124575,26.0904049 7.5407001,26.756515 C7.84483273,27.332578 7.7374918,28.0428171 7.27473314,28.5025941 L3.57326018,32.204067 L7.79414396,36.4243545 L11.4962133,32.7234778 C11.9553939,32.2607192 12.6662294,32.1533783 13.2422923,32.4575109 C13.9078061,32.8069652 14.6067148,33.0932077 15.3765878,33.3383028 C15.9973761,33.5350945 16.4183911,34.1111575 16.4183911,34.7617628 L16.4183911,39.9976146 L22.388932,39.9976146 L22.388932,34.7617628 C22.388932,34.1111575 22.8099469,33.5350945 23.4307353,33.3383028 C24.2006083,33.0932077 24.899517,32.8069652 25.5650307,32.4575109 C26.138112,32.1533783 26.8489475,32.2607192 27.3111098,32.7234778 L31.0131791,36.4243545 L35.2340629,32.204067 L31.5325899,28.5025941 C31.0728129,28.0428171 30.9624903,27.3355597 31.2666229,26.756515 C31.6160773,26.0904049 31.9023198,25.3920926 32.1474149,24.6222196 C32.3442066,24.0014312 32.9208659,23.5804162 33.5714712,23.5804162 L38.807323,23.5804162 L38.807323,17.6104717 L33.5714712,17.6104717 C32.9208659,17.6104717 32.3442066,17.1894567 32.1474149,16.5686684" id="Fill-1" fill="#EE481E"></path>
                <path d="M20.5963385,26.8650486 C16.4827956,26.8650486 13.1331624,23.5160117 13.1331624,19.4024688 C13.1331624,15.2895223 16.4827956,11.9398891 20.5963385,11.9398891 C24.7098813,11.9398891 28.0595146,15.2895223 28.0595146,19.4024688 C28.0595146,23.5160117 24.7098813,26.8650486 20.5963385,26.8650486 M33.3400918,15.3759914 C33.0949967,14.6055221 32.8087542,13.9072097 32.4592999,13.241696 C32.1551673,12.665633 32.2625082,11.9547975 32.7252669,11.4956169 L36.4267398,7.79414396 L32.205856,3.57326018 L28.5037867,7.27473314 C28.0416244,7.73451011 27.330789,7.84185103 26.7577077,7.54010376 C26.0921939,7.19124575 25.3932852,6.90440694 24.6234122,6.65990816 C24.0026239,6.46252013 23.5816089,5.88645715 23.5816089,5.23585187 L23.5816089,0 L17.611068,0 L17.611068,5.23585187 C17.611068,5.88645715 17.1900531,6.46252013 16.5692647,6.65990816 C15.7993917,6.90440694 15.100483,7.19124575 14.4349693,7.54010376 C13.8589063,7.84185103 13.1516489,7.7374918 12.6888902,7.27473314 L8.98682092,3.57326018 L4.76593715,7.79414396 L8.4674101,11.4956169 C8.92718707,11.9547975 9.03750969,12.6626513 8.73337706,13.241696 C8.38392271,13.9072097 8.09768024,14.6055221 7.85258513,15.3759914 C7.65579343,15.9967798 7.07973046,16.4177947 6.42852883,16.4177947 L1.19267696,16.4177947 L1.19267696,22.3877393 L6.42852883,22.3877393 C7.07973046,22.3877393 7.65579343,22.8087542 7.85258513,23.4295426 C8.09768024,24.1994156 8.38392271,24.897728 8.73337706,25.563838 C9.03750969,26.139901 8.93016876,26.8501401 8.4674101,27.3099171 L4.76593715,31.0113901 L8.98682092,35.2316775 L12.6888902,31.5308009 C13.1480708,31.0680422 13.8589063,30.9607013 14.4349693,31.2648339 C15.100483,31.6142883 15.7993917,31.9005307 16.5692647,32.1456259 C17.1900531,32.3424176 17.611068,32.9184805 17.611068,33.5690858 L17.611068,38.8049377 L23.5816089,38.8049377 L23.5816089,33.5690858 C23.5816089,32.9184805 24.0026239,32.3424176 24.6234122,32.1456259 C25.3932852,31.9005307 26.0921939,31.6142883 26.7577077,31.2648339 C27.330789,30.9607013 28.0416244,31.0680422 28.5037867,31.5308009 L32.205856,35.2316775 L36.4267398,31.0113901 L32.7252669,27.3099171 C32.2654899,26.8501401 32.1551673,26.1428827 32.4592999,25.563838 C32.8087542,24.897728 33.0949967,24.1994156 33.3400918,23.4295426 C33.5368835,22.8087542 34.1135428,22.3877393 34.7641481,22.3877393 L40,22.3877393 L40,16.4177947 L34.7641481,16.4177947 C34.1135428,16.4177947 33.5368835,15.9967798 33.3400918,15.3759914" id="Fill-1-Copy" fill="#feefcf"></path>
            </g>
        </g>
    </g>
</svg>